<?xml version="1.0" encoding="UTF-8" standalone="no"?><svg xmlns="http://www.w3.org/2000/svg" xmlns:xlink="http://www.w3.org/1999/xlink" clip-rule="evenodd" stroke-miterlimit="10" viewBox="0 0 1024 768"><desc>SVG generated by Keynote</desc><defs><linearGradient id="gradSh1.45" x1="0.0" y1="0.0" x2="100.0" y2="0.0" gradientUnits="userSpaceOnUse" gradientTransform="matrix(0.00, 7.70, 10.26, 0.00, 512.0, -1.0)"><stop offset="0.00000" stop-color="#FFFFFF"></stop><stop offset="0.01246" stop-color="#FEFEFE"></stop><stop offset="1.00000" stop-color="#D5D5D5"></stop></linearGradient></defs><g transform="matrix(1.00, 0.00, -0.00, -1.00, 0.0, 768.0)"><g><clipPath id="clip0x60800a2af660"><path d="M 0.0 768.0 L 1024.0 768.0 L 1024.0 0.0 L 0.0 0.0 Z M 0.0 768.0 "></path></clipPath><g clip-path="url(#clip0x60800a2af660)"><path d="M 0.0 768.0 L 1024.0 768.0 L 1024.0 0.0 L 0.0 0.0 Z M 0.0 768.0 " fill="url(#gradSh1.45)"></path></g></g><path d="M 327.0 651.0 L 545.0 651.0 L 545.0 591.0 L 327.0 591.0 Z M 327.3 651.2 " fill="#595959"></path><path d="M 326.0 532.0 L 543.0 532.0 L 543.0 462.0 L 326.0 462.0 Z M 325.8 532.0 " fill="#595959"></path><path d="M 207.0 402.0 L 424.0 402.0 L 424.0 343.0 L 207.0 343.0 Z M 207.3 402.4 " fill="#595959"></path><path d="M 207.0 274.0 L 424.0 274.0 L 424.0 215.0 L 207.0 215.0 Z M 207.3 274.5 " fill="#595959"></path><path d="M 0.0 0.0 L 286.9 0.0 L 287.9 0.0 " fill="none" stroke="#525252" stroke-width="2.00" stroke-linejoin="round" stroke-dasharray="2.0, 4.0" transform="matrix(0.24, -0.97, -0.97, -0.24, 504.0, 451.9)"></path><path d="M 567.1 172.0 L 574.1 163.8 L 576.5 174.2 Z M 567.1 172.0 " fill="#525252"></path><path d="M 0.1 -0.1 L 28.2 -0.1 L 29.1 -0.1 " fill="none" stroke="#525252" stroke-width="2.00" stroke-linejoin="round" stroke-dasharray="2.0, 4.0" transform="matrix(0.00, -1.00, -1.00, 0.00, 315.9, 323.1)"></path><path d="M 311.2 295.0 L 316.0 285.4 L 320.8 295.0 Z M 311.2 295.0 " fill="#525252"></path><text xml:space="preserve" font-family="MyriadSetPro-Text,Myriad Set Pro" font-size="18.0" fill="#FFFFFF" transform="matrix(1.00, 0.00, -0.00, -1.00, 347.0, 625.8)">I</text><text xml:space="preserve" font-family="MyriadSetPro-Text,Myriad Set Pro" font-size="18.0" fill="#FFFFFF" transform="matrix(1.00, 0.00, -0.00, -1.00, 351.2, 625.8)">n</text><text xml:space="preserve" font-family="MyriadSetPro-Text,Myriad Set Pro" font-size="18.0" fill="#FFFFFF" transform="matrix(1.00, 0.00, -0.00, -1.00, 360.7, 625.8)">t</text><text xml:space="preserve" font-family="MyriadSetPro-Text,Myriad Set Pro" font-size="18.0" fill="#FFFFFF" transform="matrix(1.00, 0.00, -0.00, -1.00, 366.5, 625.8)">u</text><text xml:space="preserve" font-family="MyriadSetPro-Text,Myriad Set Pro" font-size="18.0" fill="#FFFFFF" transform="matrix(1.00, 0.00, -0.00, -1.00, 376.1, 625.8)">i</text><text xml:space="preserve" font-family="MyriadSetPro-Text,Myriad Set Pro" font-size="18.0" fill="#FFFFFF" transform="matrix(1.00, 0.00, -0.00, -1.00, 380.2, 625.8)">t</text><text xml:space="preserve" font-family="MyriadSetPro-Text,Myriad Set Pro" font-size="18.0" fill="#FFFFFF" transform="matrix(1.00, 0.00, -0.00, -1.00, 385.9, 625.8)">i</text><text xml:space="preserve" font-family="MyriadSetPro-Text,Myriad Set Pro" font-size="18.0" fill="#FFFFFF" transform="matrix(1.00, 0.00, -0.00, -1.00, 390.0, 625.8)">o</text><text xml:space="preserve" font-family="MyriadSetPro-Text,Myriad Set Pro" font-size="18.0" fill="#FFFFFF" transform="matrix(1.00, 0.00, -0.00, -1.00, 399.5, 625.8)">n</text><text xml:space="preserve" font-family="MyriadSetPro-Text,Myriad Set Pro" font-size="18.0" fill="#FFFFFF" transform="matrix(1.00, 0.00, -0.00, -1.00, 409.3, 625.8)"> </text><text xml:space="preserve" font-family="MyriadSetPro-Text,Myriad Set Pro" font-size="18.0" fill="#FFFFFF" transform="matrix(1.00, 0.00, -0.00, -1.00, 413.6, 625.8)">b</text><text xml:space="preserve" font-family="MyriadSetPro-Text,Myriad Set Pro" font-size="18.0" fill="#FFFFFF" transform="matrix(1.00, 0.00, -0.00, -1.00, 423.6, 625.8)">r</text><text xml:space="preserve" font-family="MyriadSetPro-Text,Myriad Set Pro" font-size="18.0" fill="#FFFFFF" transform="matrix(1.00, 0.00, -0.00, -1.00, 429.3, 625.8)">i</text><text xml:space="preserve" font-family="MyriadSetPro-Text,Myriad Set Pro" font-size="18.0" fill="#FFFFFF" transform="matrix(1.00, 0.00, -0.00, -1.00, 433.3, 625.8)">n</text><text xml:space="preserve" font-family="MyriadSetPro-Text,Myriad Set Pro" font-size="18.0" fill="#FFFFFF" transform="matrix(1.00, 0.00, -0.00, -1.00, 443.0, 625.8)">g</text><text xml:space="preserve" font-family="MyriadSetPro-Text,Myriad Set Pro" font-size="18.0" fill="#FFFFFF" transform="matrix(1.00, 0.00, -0.00, -1.00, 452.8, 625.8)">s</text><text xml:space="preserve" font-family="MyriadSetPro-Text,Myriad Set Pro" font-size="18.0" fill="#FFFFFF" transform="matrix(1.00, 0.00, -0.00, -1.00, 459.7, 625.8)"> </text><text xml:space="preserve" font-family="MyriadSetPro-Text,Myriad Set Pro" font-size="18.0" fill="#FFFFFF" transform="matrix(1.00, 0.00, -0.00, -1.00, 464.1, 625.8)">d</text><text xml:space="preserve" font-family="MyriadSetPro-Text,Myriad Set Pro" font-size="18.0" fill="#FFFFFF" transform="matrix(1.00, 0.00, -0.00, -1.00, 473.9, 625.8)">e</text><text xml:space="preserve" font-family="MyriadSetPro-Text,Myriad Set Pro" font-size="18.0" fill="#FFFFFF" transform="matrix(1.00, 0.00, -0.00, -1.00, 482.7, 625.8)">c</text><text xml:space="preserve" font-family="MyriadSetPro-Text,Myriad Set Pro" font-size="18.0" fill="#FFFFFF" transform="matrix(1.00, 0.00, -0.00, -1.00, 490.6, 625.8)">i</text><text xml:space="preserve" font-family="MyriadSetPro-Text,Myriad Set Pro" font-size="18.0" fill="#FFFFFF" transform="matrix(1.00, 0.00, -0.00, -1.00, 494.6, 625.8)">s</text><text xml:space="preserve" font-family="MyriadSetPro-Text,Myriad Set Pro" font-size="18.0" fill="#FFFFFF" transform="matrix(1.00, 0.00, -0.00, -1.00, 501.5, 625.8)">i</text><text xml:space="preserve" font-family="MyriadSetPro-Text,Myriad Set Pro" font-size="18.0" fill="#FFFFFF" transform="matrix(1.00, 0.00, -0.00, -1.00, 505.5, 625.8)">o</text><text xml:space="preserve" font-family="MyriadSetPro-Text,Myriad Set Pro" font-size="18.0" fill="#FFFFFF" transform="matrix(1.00, 0.00, -0.00, -1.00, 515.1, 625.8)">n</text><text xml:space="preserve" font-family="MyriadSetPro-Text,Myriad Set Pro" font-size="18.0" fill="#FFFFFF" transform="matrix(1.00, 0.00, -0.00, -1.00, 524.8, 625.8)"> </text><text xml:space="preserve" font-family="MyriadSetPro-Text,Myriad Set Pro" font-size="18.0" fill="#FFFFFF" transform="matrix(1.00, 0.00, -0.00, -1.00, 407.3, 606.8)">f</text><text xml:space="preserve" font-family="MyriadSetPro-Text,Myriad Set Pro" font-size="18.0" fill="#FFFFFF" transform="matrix(1.00, 0.00, -0.00, -1.00, 412.1, 606.8)">o</text><text xml:space="preserve" font-family="MyriadSetPro-Text,Myriad Set Pro" font-size="18.0" fill="#FFFFFF" transform="matrix(1.00, 0.00, -0.00, -1.00, 421.7, 606.8)">r</text><text xml:space="preserve" font-family="MyriadSetPro-Text,Myriad Set Pro" font-size="18.0" fill="#FFFFFF" transform="matrix(1.00, 0.00, -0.00, -1.00, 427.9, 606.8)">w</text><text xml:space="preserve" font-family="MyriadSetPro-Text,Myriad Set Pro" font-size="18.0" fill="#FFFFFF" transform="matrix(1.00, 0.00, -0.00, -1.00, 440.8, 606.8)">a</text><text xml:space="preserve" font-family="MyriadSetPro-Text,Myriad Set Pro" font-size="18.0" fill="#FFFFFF" transform="matrix(1.00, 0.00, -0.00, -1.00, 449.2, 606.8)">r</text><text xml:space="preserve" font-family="MyriadSetPro-Text,Myriad Set Pro" font-size="18.0" fill="#FFFFFF" transform="matrix(1.00, 0.00, -0.00, -1.00, 454.7, 606.8)">d</text><text xml:space="preserve" font-family="MyriadSetPro-Text,Myriad Set Pro" font-size="17.0" fill="#FFFFFF" transform="matrix(1.00, 0.00, -0.00, -1.00, 367.5, 509.2)">B</text><text xml:space="preserve" font-family="MyriadSetPro-Text,Myriad Set Pro" font-size="17.0" fill="#FFFFFF" transform="matrix(1.00, 0.00, -0.00, -1.00, 376.4, 509.2)">e</text><text xml:space="preserve" font-family="MyriadSetPro-Text,Myriad Set Pro" font-size="17.0" fill="#FFFFFF" transform="matrix(1.00, 0.00, -0.00, -1.00, 384.7, 509.2)">h</text><text xml:space="preserve" font-family="MyriadSetPro-Text,Myriad Set Pro" font-size="17.0" fill="#FFFFFF" transform="matrix(1.00, 0.00, -0.00, -1.00, 393.9, 509.2)">a</text><text xml:space="preserve" font-family="MyriadSetPro-Text,Myriad Set Pro" font-size="17.0" fill="#FFFFFF" transform="matrix(1.00, 0.00, -0.00, -1.00, 401.7, 509.2)">v</text><text xml:space="preserve" font-family="MyriadSetPro-Text,Myriad Set Pro" font-size="17.0" fill="#FFFFFF" transform="matrix(1.00, 0.00, -0.00, -1.00, 409.5, 509.2)">i</text><text xml:space="preserve" font-family="MyriadSetPro-Text,Myriad Set Pro" font-size="17.0" fill="#FFFFFF" transform="matrix(1.00, 0.00, -0.00, -1.00, 413.4, 509.2)">o</text><text xml:space="preserve" font-family="MyriadSetPro-Text,Myriad Set Pro" font-size="17.0" fill="#FFFFFF" transform="matrix(1.00, 0.00, -0.00, -1.00, 422.4, 509.2)">r</text><text xml:space="preserve" font-family="MyriadSetPro-Text,Myriad Set Pro" font-size="17.0" fill="#FFFFFF" transform="matrix(1.00, 0.00, -0.00, -1.00, 427.7, 509.2)"> </text><text xml:space="preserve" font-family="MyriadSetPro-Text,Myriad Set Pro" font-size="17.0" fill="#FFFFFF" transform="matrix(1.00, 0.00, -0.00, -1.00, 431.9, 509.2)">i</text><text xml:space="preserve" font-family="MyriadSetPro-Text,Myriad Set Pro" font-size="17.0" fill="#FFFFFF" transform="matrix(1.00, 0.00, -0.00, -1.00, 435.7, 509.2)">s</text><text xml:space="preserve" font-family="MyriadSetPro-Text,Myriad Set Pro" font-size="17.0" fill="#FFFFFF" transform="matrix(1.00, 0.00, -0.00, -1.00, 442.2, 509.2)"> </text><text xml:space="preserve" font-family="MyriadSetPro-Text,Myriad Set Pro" font-size="17.0" fill="#FFFFFF" transform="matrix(1.00, 0.00, -0.00, -1.00, 446.3, 509.2)">j</text><text xml:space="preserve" font-family="MyriadSetPro-Text,Myriad Set Pro" font-size="17.0" fill="#FFFFFF" transform="matrix(1.00, 0.00, -0.00, -1.00, 450.2, 509.2)">u</text><text xml:space="preserve" font-family="MyriadSetPro-Text,Myriad Set Pro" font-size="17.0" fill="#FFFFFF" transform="matrix(1.00, 0.00, -0.00, -1.00, 459.3, 509.2)">s</text><text xml:space="preserve" font-family="MyriadSetPro-Text,Myriad Set Pro" font-size="17.0" fill="#FFFFFF" transform="matrix(1.00, 0.00, -0.00, -1.00, 465.8, 509.2)">t</text><text xml:space="preserve" font-family="MyriadSetPro-Text,Myriad Set Pro" font-size="17.0" fill="#FFFFFF" transform="matrix(1.00, 0.00, -0.00, -1.00, 471.3, 509.2)">i</text><text xml:space="preserve" font-family="MyriadSetPro-Text,Myriad Set Pro" font-size="17.0" fill="#FFFFFF" transform="matrix(1.00, 0.00, -0.00, -1.00, 475.1, 509.2)">f</text><text xml:space="preserve" font-family="MyriadSetPro-Text,Myriad Set Pro" font-size="17.0" fill="#FFFFFF" transform="matrix(1.00, 0.00, -0.00, -1.00, 479.8, 509.2)">i</text><text xml:space="preserve" font-family="MyriadSetPro-Text,Myriad Set Pro" font-size="17.0" fill="#FFFFFF" transform="matrix(1.00, 0.00, -0.00, -1.00, 483.6, 509.2)">e</text><text xml:space="preserve" font-family="MyriadSetPro-Text,Myriad Set Pro" font-size="17.0" fill="#FFFFFF" transform="matrix(1.00, 0.00, -0.00, -1.00, 491.9, 509.2)">d</text><text xml:space="preserve" font-family="LucidaGrande,Lucida Grande" font-size="17.0" fill="#FFFFFF" transform="matrix(1.00, 0.00, -0.00, -1.00, 501.2, 509.2)"> </text><text xml:space="preserve" font-family="MyriadSetPro-Text,Myriad Set Pro" font-size="17.0" fill="#FFFFFF" transform="matrix(1.00, 0.00, -0.00, -1.00, 352.5, 491.2)">e</text><text xml:space="preserve" font-family="MyriadSetPro-Text,Myriad Set Pro" font-size="17.0" fill="#FFFFFF" transform="matrix(1.00, 0.00, -0.00, -1.00, 360.8, 491.2)">i</text><text xml:space="preserve" font-family="MyriadSetPro-Text,Myriad Set Pro" font-size="17.0" fill="#FFFFFF" transform="matrix(1.00, 0.00, -0.00, -1.00, 364.6, 491.2)">t</text><text xml:space="preserve" font-family="MyriadSetPro-Text,Myriad Set Pro" font-size="17.0" fill="#FFFFFF" transform="matrix(1.00, 0.00, -0.00, -1.00, 370.1, 491.2)">h</text><text xml:space="preserve" font-family="MyriadSetPro-Text,Myriad Set Pro" font-size="17.0" fill="#FFFFFF" transform="matrix(1.00, 0.00, -0.00, -1.00, 379.2, 491.2)">e</text><text xml:space="preserve" font-family="MyriadSetPro-Text,Myriad Set Pro" font-size="17.0" fill="#FFFFFF" transform="matrix(1.00, 0.00, -0.00, -1.00, 387.5, 491.2)">r</text><text xml:space="preserve" font-family="MyriadSetPro-Text,Myriad Set Pro" font-size="17.0" fill="#FFFFFF" transform="matrix(1.00, 0.00, -0.00, -1.00, 392.8, 491.2)"> </text><text xml:space="preserve" font-family="MyriadSetPro-Text,Myriad Set Pro" font-size="17.0" fill="#FFFFFF" transform="matrix(1.00, 0.00, -0.00, -1.00, 396.9, 491.2)">t</text><text xml:space="preserve" font-family="MyriadSetPro-Text,Myriad Set Pro" font-size="17.0" fill="#FFFFFF" transform="matrix(1.00, 0.00, -0.00, -1.00, 402.4, 491.2)">h</text><text xml:space="preserve" font-family="MyriadSetPro-Text,Myriad Set Pro" font-size="17.0" fill="#FFFFFF" transform="matrix(1.00, 0.00, -0.00, -1.00, 411.6, 491.2)">r</text><text xml:space="preserve" font-family="MyriadSetPro-Text,Myriad Set Pro" font-size="17.0" fill="#FFFFFF" transform="matrix(1.00, 0.00, -0.00, -1.00, 416.8, 491.2)">o</text><text xml:space="preserve" font-family="MyriadSetPro-Text,Myriad Set Pro" font-size="17.0" fill="#FFFFFF" transform="matrix(1.00, 0.00, -0.00, -1.00, 425.8, 491.2)">u</text><text xml:space="preserve" font-family="MyriadSetPro-Text,Myriad Set Pro" font-size="17.0" fill="#FFFFFF" transform="matrix(1.00, 0.00, -0.00, -1.00, 434.9, 491.2)">g</text><text xml:space="preserve" font-family="MyriadSetPro-Text,Myriad Set Pro" font-size="17.0" fill="#FFFFFF" transform="matrix(1.00, 0.00, -0.00, -1.00, 444.2, 491.2)">h</text><text xml:space="preserve" font-family="MyriadSetPro-Text,Myriad Set Pro" font-size="17.0" fill="#FFFFFF" transform="matrix(1.00, 0.00, -0.00, -1.00, 453.4, 491.2)"> </text><text xml:space="preserve" font-family="MyriadSetPro-Text,Myriad Set Pro" font-size="17.0" fill="#FFFFFF" transform="matrix(1.00, 0.00, -0.00, -1.00, 457.5, 491.2)">i</text><text xml:space="preserve" font-family="MyriadSetPro-Text,Myriad Set Pro" font-size="17.0" fill="#FFFFFF" transform="matrix(1.00, 0.00, -0.00, -1.00, 461.3, 491.2)">n</text><text xml:space="preserve" font-family="MyriadSetPro-Text,Myriad Set Pro" font-size="17.0" fill="#FFFFFF" transform="matrix(1.00, 0.00, -0.00, -1.00, 470.3, 491.2)">t</text><text xml:space="preserve" font-family="MyriadSetPro-Text,Myriad Set Pro" font-size="17.0" fill="#FFFFFF" transform="matrix(1.00, 0.00, -0.00, -1.00, 475.8, 491.2)">u</text><text xml:space="preserve" font-family="MyriadSetPro-Text,Myriad Set Pro" font-size="17.0" fill="#FFFFFF" transform="matrix(1.00, 0.00, -0.00, -1.00, 484.9, 491.2)">i</text><text xml:space="preserve" font-family="MyriadSetPro-Text,Myriad Set Pro" font-size="17.0" fill="#FFFFFF" transform="matrix(1.00, 0.00, -0.00, -1.00, 488.7, 491.2)">t</text><text xml:space="preserve" font-family="MyriadSetPro-Text,Myriad Set Pro" font-size="17.0" fill="#FFFFFF" transform="matrix(1.00, 0.00, -0.00, -1.00, 494.1, 491.2)">i</text><text xml:space="preserve" font-family="MyriadSetPro-Text,Myriad Set Pro" font-size="17.0" fill="#FFFFFF" transform="matrix(1.00, 0.00, -0.00, -1.00, 497.9, 491.2)">o</text><text xml:space="preserve" font-family="MyriadSetPro-Text,Myriad Set Pro" font-size="17.0" fill="#FFFFFF" transform="matrix(1.00, 0.00, -0.00, -1.00, 507.0, 491.2)">n</text><text xml:space="preserve" font-family="MyriadSetPro-Text,Myriad Set Pro" font-size="17.0" fill="#FFFFFF" transform="matrix(1.00, 0.00, -0.00, -1.00, 516.2, 491.2)"> </text><text xml:space="preserve" font-family="MyriadSetPro-Text,Myriad Set Pro" font-size="17.0" fill="#FFFFFF" transform="matrix(1.00, 0.00, -0.00, -1.00, 390.9, 473.2)">o</text><text xml:space="preserve" font-family="MyriadSetPro-Text,Myriad Set Pro" font-size="17.0" fill="#FFFFFF" transform="matrix(1.00, 0.00, -0.00, -1.00, 400.0, 473.2)">r</text><text xml:space="preserve" font-family="MyriadSetPro-Text,Myriad Set Pro" font-size="17.0" fill="#FFFFFF" transform="matrix(1.00, 0.00, -0.00, -1.00, 405.3, 473.2)"> </text><text xml:space="preserve" font-family="MyriadSetPro-Text,Myriad Set Pro" font-size="17.0" fill="#FFFFFF" transform="matrix(1.00, 0.00, -0.00, -1.00, 409.4, 473.2)">r</text><text xml:space="preserve" font-family="MyriadSetPro-Text,Myriad Set Pro" font-size="17.0" fill="#FFFFFF" transform="matrix(1.00, 0.00, -0.00, -1.00, 414.6, 473.2)">e</text><text xml:space="preserve" font-family="MyriadSetPro-Text,Myriad Set Pro" font-size="17.0" fill="#FFFFFF" transform="matrix(1.00, 0.00, -0.00, -1.00, 422.9, 473.2)">a</text><text xml:space="preserve" font-family="MyriadSetPro-Text,Myriad Set Pro" font-size="17.0" fill="#FFFFFF" transform="matrix(1.00, 0.00, -0.00, -1.00, 430.8, 473.2)">s</text><text xml:space="preserve" font-family="MyriadSetPro-Text,Myriad Set Pro" font-size="17.0" fill="#FFFFFF" transform="matrix(1.00, 0.00, -0.00, -1.00, 437.3, 473.2)">o</text><text xml:space="preserve" font-family="MyriadSetPro-Text,Myriad Set Pro" font-size="17.0" fill="#FFFFFF" transform="matrix(1.00, 0.00, -0.00, -1.00, 446.4, 473.2)">n</text><text xml:space="preserve" font-family="MyriadSetPro-Text,Myriad Set Pro" font-size="17.0" fill="#FFFFFF" transform="matrix(1.00, 0.00, -0.00, -1.00, 455.6, 473.2)">i</text><text xml:space="preserve" font-family="MyriadSetPro-Text,Myriad Set Pro" font-size="17.0" fill="#FFFFFF" transform="matrix(1.00, 0.00, -0.00, -1.00, 459.4, 473.2)">n</text><text xml:space="preserve" font-family="MyriadSetPro-Text,Myriad Set Pro" font-size="17.0" fill="#FFFFFF" transform="matrix(1.00, 0.00, -0.00, -1.00, 468.6, 473.2)">g</text><path d="M 207.0 155.0 L 424.0 155.0 L 424.0 95.0 L 207.0 95.0 Z M 207.3 155.2 " fill="#595959"></path><path d="M -0.1 -0.1 L 28.2 -0.1 L 28.9 -0.1 " fill="none" stroke="#525252" stroke-width="2.00" stroke-linejoin="round" stroke-dasharray="2.0, 4.0" transform="matrix(0.00, -1.00, -1.00, 0.00, 315.9, 203.9)"></path><path d="M 311.2 176.0 L 316.0 166.4 L 320.8 176.0 Z M 311.2 176.0 " fill="#525252"></path><text xml:space="preserve" font-family="MyriadSetPro-Text,Myriad Set Pro" font-size="18.0" fill="#FFFFFF" transform="matrix(1.00, 0.00, -0.00, -1.00, 234.3, 367.4)">B</text><text xml:space="preserve" font-family="MyriadSetPro-Text,Myriad Set Pro" font-size="18.0" fill="#FFFFFF" transform="matrix(1.00, 0.00, -0.00, -1.00, 243.8, 367.4)">e</text><text xml:space="preserve" font-family="MyriadSetPro-Text,Myriad Set Pro" font-size="18.0" fill="#FFFFFF" transform="matrix(1.00, 0.00, -0.00, -1.00, 252.6, 367.4)">h</text><text xml:space="preserve" font-family="MyriadSetPro-Text,Myriad Set Pro" font-size="18.0" fill="#FFFFFF" transform="matrix(1.00, 0.00, -0.00, -1.00, 262.3, 367.4)">a</text><text xml:space="preserve" font-family="MyriadSetPro-Text,Myriad Set Pro" font-size="18.0" fill="#FFFFFF" transform="matrix(1.00, 0.00, -0.00, -1.00, 270.5, 367.4)">v</text><text xml:space="preserve" font-family="MyriadSetPro-Text,Myriad Set Pro" font-size="18.0" fill="#FFFFFF" transform="matrix(1.00, 0.00, -0.00, -1.00, 278.8, 367.4)">i</text><text xml:space="preserve" font-family="MyriadSetPro-Text,Myriad Set Pro" font-size="18.0" fill="#FFFFFF" transform="matrix(1.00, 0.00, -0.00, -1.00, 282.9, 367.4)">o</text><text xml:space="preserve" font-family="MyriadSetPro-Text,Myriad Set Pro" font-size="18.0" fill="#FFFFFF" transform="matrix(1.00, 0.00, -0.00, -1.00, 292.5, 367.4)">r</text><text xml:space="preserve" font-family="MyriadSetPro-Text,Myriad Set Pro" font-size="18.0" fill="#FFFFFF" transform="matrix(1.00, 0.00, -0.00, -1.00, 298.1, 367.4)"> </text><text xml:space="preserve" font-family="MyriadSetPro-Text,Myriad Set Pro" font-size="18.0" fill="#FFFFFF" transform="matrix(1.00, 0.00, -0.00, -1.00, 302.5, 367.4)">i</text><text xml:space="preserve" font-family="MyriadSetPro-Text,Myriad Set Pro" font-size="18.0" fill="#FFFFFF" transform="matrix(1.00, 0.00, -0.00, -1.00, 306.5, 367.4)">s</text><text xml:space="preserve" font-family="MyriadSetPro-Text,Myriad Set Pro" font-size="18.0" fill="#FFFFFF" transform="matrix(1.00, 0.00, -0.00, -1.00, 313.4, 367.4)"> </text><text xml:space="preserve" font-family="MyriadSetPro-Text,Myriad Set Pro" font-size="18.0" fill="#FFFFFF" transform="matrix(1.00, 0.00, -0.00, -1.00, 317.7, 367.4)">c</text><text xml:space="preserve" font-family="MyriadSetPro-Text,Myriad Set Pro" font-size="18.0" fill="#FFFFFF" transform="matrix(1.00, 0.00, -0.00, -1.00, 325.6, 367.4)">a</text><text xml:space="preserve" font-family="MyriadSetPro-Text,Myriad Set Pro" font-size="18.0" fill="#FFFFFF" transform="matrix(1.00, 0.00, -0.00, -1.00, 334.0, 367.4)">r</text><text xml:space="preserve" font-family="MyriadSetPro-Text,Myriad Set Pro" font-size="18.0" fill="#FFFFFF" transform="matrix(1.00, 0.00, -0.00, -1.00, 339.7, 367.4)">r</text><text xml:space="preserve" font-family="MyriadSetPro-Text,Myriad Set Pro" font-size="18.0" fill="#FFFFFF" transform="matrix(1.00, 0.00, -0.00, -1.00, 345.4, 367.4)">i</text><text xml:space="preserve" font-family="MyriadSetPro-Text,Myriad Set Pro" font-size="18.0" fill="#FFFFFF" transform="matrix(1.00, 0.00, -0.00, -1.00, 349.5, 367.4)">e</text><text xml:space="preserve" font-family="MyriadSetPro-Text,Myriad Set Pro" font-size="18.0" fill="#FFFFFF" transform="matrix(1.00, 0.00, -0.00, -1.00, 358.2, 367.4)">d</text><text xml:space="preserve" font-family="MyriadSetPro-Text,Myriad Set Pro" font-size="18.0" fill="#FFFFFF" transform="matrix(1.00, 0.00, -0.00, -1.00, 368.1, 367.4)"> </text><text xml:space="preserve" font-family="MyriadSetPro-Text,Myriad Set Pro" font-size="18.0" fill="#FFFFFF" transform="matrix(1.00, 0.00, -0.00, -1.00, 372.4, 367.4)">o</text><text xml:space="preserve" font-family="MyriadSetPro-Text,Myriad Set Pro" font-size="18.0" fill="#FFFFFF" transform="matrix(1.00, 0.00, -0.00, -1.00, 382.0, 367.4)">u</text><text xml:space="preserve" font-family="MyriadSetPro-Text,Myriad Set Pro" font-size="18.0" fill="#FFFFFF" transform="matrix(1.00, 0.00, -0.00, -1.00, 391.7, 367.4)">t</text><text xml:space="preserve" font-family="MyriadSetPro-Text,Myriad Set Pro" font-size="18.0" fill="#FFFFFF" transform="matrix(1.00, 0.00, -0.00, -1.00, 235.8, 249.1)">B</text><text xml:space="preserve" font-family="MyriadSetPro-Text,Myriad Set Pro" font-size="18.0" fill="#FFFFFF" transform="matrix(1.00, 0.00, -0.00, -1.00, 245.3, 249.1)">e</text><text xml:space="preserve" font-family="MyriadSetPro-Text,Myriad Set Pro" font-size="18.0" fill="#FFFFFF" transform="matrix(1.00, 0.00, -0.00, -1.00, 254.1, 249.1)">h</text><text xml:space="preserve" font-family="MyriadSetPro-Text,Myriad Set Pro" font-size="18.0" fill="#FFFFFF" transform="matrix(1.00, 0.00, -0.00, -1.00, 263.8, 249.1)">a</text><text xml:space="preserve" font-family="MyriadSetPro-Text,Myriad Set Pro" font-size="18.0" fill="#FFFFFF" transform="matrix(1.00, 0.00, -0.00, -1.00, 272.0, 249.1)">v</text><text xml:space="preserve" font-family="MyriadSetPro-Text,Myriad Set Pro" font-size="18.0" fill="#FFFFFF" transform="matrix(1.00, 0.00, -0.00, -1.00, 280.4, 249.1)">i</text><text xml:space="preserve" font-family="MyriadSetPro-Text,Myriad Set Pro" font-size="18.0" fill="#FFFFFF" transform="matrix(1.00, 0.00, -0.00, -1.00, 284.4, 249.1)">o</text><text xml:space="preserve" font-family="MyriadSetPro-Text,Myriad Set Pro" font-size="18.0" fill="#FFFFFF" transform="matrix(1.00, 0.00, -0.00, -1.00, 294.0, 249.1)">r</text><text xml:space="preserve" font-family="MyriadSetPro-Text,Myriad Set Pro" font-size="18.0" fill="#FFFFFF" transform="matrix(1.00, 0.00, -0.00, -1.00, 300.2, 249.1)">’</text><text xml:space="preserve" font-family="MyriadSetPro-Text,Myriad Set Pro" font-size="18.0" fill="#FFFFFF" transform="matrix(1.00, 0.00, -0.00, -1.00, 302.5, 249.1)">s</text><text xml:space="preserve" font-family="MyriadSetPro-Text,Myriad Set Pro" font-size="18.0" fill="#FFFFFF" transform="matrix(1.00, 0.00, -0.00, -1.00, 309.4, 249.1)"> </text><text xml:space="preserve" font-family="MyriadSetPro-Text,Myriad Set Pro" font-size="18.0" fill="#FFFFFF" transform="matrix(1.00, 0.00, -0.00, -1.00, 313.7, 249.1)">e</text><text xml:space="preserve" font-family="MyriadSetPro-Text,Myriad Set Pro" font-size="18.0" fill="#FFFFFF" transform="matrix(1.00, 0.00, -0.00, -1.00, 322.5, 249.1)">t</text><text xml:space="preserve" font-family="MyriadSetPro-Text,Myriad Set Pro" font-size="18.0" fill="#FFFFFF" transform="matrix(1.00, 0.00, -0.00, -1.00, 328.3, 249.1)">h</text><text xml:space="preserve" font-family="MyriadSetPro-Text,Myriad Set Pro" font-size="18.0" fill="#FFFFFF" transform="matrix(1.00, 0.00, -0.00, -1.00, 338.0, 249.1)">i</text><text xml:space="preserve" font-family="MyriadSetPro-Text,Myriad Set Pro" font-size="18.0" fill="#FFFFFF" transform="matrix(1.00, 0.00, -0.00, -1.00, 342.0, 249.1)">c</text><text xml:space="preserve" font-family="MyriadSetPro-Text,Myriad Set Pro" font-size="18.0" fill="#FFFFFF" transform="matrix(1.00, 0.00, -0.00, -1.00, 349.9, 249.1)">a</text><text xml:space="preserve" font-family="MyriadSetPro-Text,Myriad Set Pro" font-size="18.0" fill="#FFFFFF" transform="matrix(1.00, 0.00, -0.00, -1.00, 358.3, 249.1)">l</text><text xml:space="preserve" font-family="MyriadSetPro-Text,Myriad Set Pro" font-size="18.0" fill="#FFFFFF" transform="matrix(1.00, 0.00, -0.00, -1.00, 362.3, 249.1)">i</text><text xml:space="preserve" font-family="MyriadSetPro-Text,Myriad Set Pro" font-size="18.0" fill="#FFFFFF" transform="matrix(1.00, 0.00, -0.00, -1.00, 366.4, 249.1)">t</text><text xml:space="preserve" font-family="MyriadSetPro-Text,Myriad Set Pro" font-size="18.0" fill="#FFFFFF" transform="matrix(1.00, 0.00, -0.00, -1.00, 372.4, 249.1)">y</text><text xml:space="preserve" font-family="MyriadSetPro-Text,Myriad Set Pro" font-size="18.0" fill="#FFFFFF" transform="matrix(1.00, 0.00, -0.00, -1.00, 380.6, 249.1)"> </text><text xml:space="preserve" font-family="MyriadSetPro-Text,Myriad Set Pro" font-size="18.0" fill="#FFFFFF" transform="matrix(1.00, 0.00, -0.00, -1.00, 384.9, 249.1)">i</text><text xml:space="preserve" font-family="MyriadSetPro-Text,Myriad Set Pro" font-size="18.0" fill="#FFFFFF" transform="matrix(1.00, 0.00, -0.00, -1.00, 389.0, 249.1)">s</text><text xml:space="preserve" font-family="MyriadSetPro-Text,Myriad Set Pro" font-size="18.0" fill="#FFFFFF" transform="matrix(1.00, 0.00, -0.00, -1.00, 395.9, 249.1)"> </text><text xml:space="preserve" font-family="MyriadSetPro-Text,Myriad Set Pro" font-size="18.0" fill="#FFFFFF" transform="matrix(1.00, 0.00, -0.00, -1.00, 222.5, 230.1)">b</text><text xml:space="preserve" font-family="MyriadSetPro-Text,Myriad Set Pro" font-size="18.0" fill="#FFFFFF" transform="matrix(1.00, 0.00, -0.00, -1.00, 232.5, 230.1)">r</text><text xml:space="preserve" font-family="MyriadSetPro-Text,Myriad Set Pro" font-size="18.0" fill="#FFFFFF" transform="matrix(1.00, 0.00, -0.00, -1.00, 238.0, 230.1)">o</text><text xml:space="preserve" font-family="MyriadSetPro-Text,Myriad Set Pro" font-size="18.0" fill="#FFFFFF" transform="matrix(1.00, 0.00, -0.00, -1.00, 247.6, 230.1)">u</text><text xml:space="preserve" font-family="MyriadSetPro-Text,Myriad Set Pro" font-size="18.0" fill="#FFFFFF" transform="matrix(1.00, 0.00, -0.00, -1.00, 257.2, 230.1)">g</text><text xml:space="preserve" font-family="MyriadSetPro-Text,Myriad Set Pro" font-size="18.0" fill="#FFFFFF" transform="matrix(1.00, 0.00, -0.00, -1.00, 267.0, 230.1)">h</text><text xml:space="preserve" font-family="MyriadSetPro-Text,Myriad Set Pro" font-size="18.0" fill="#FFFFFF" transform="matrix(1.00, 0.00, -0.00, -1.00, 276.7, 230.1)">t</text><text xml:space="preserve" font-family="MyriadSetPro-Text,Myriad Set Pro" font-size="18.0" fill="#FFFFFF" transform="matrix(1.00, 0.00, -0.00, -1.00, 282.4, 230.1)"> </text><text xml:space="preserve" font-family="MyriadSetPro-Text,Myriad Set Pro" font-size="18.0" fill="#FFFFFF" transform="matrix(1.00, 0.00, -0.00, -1.00, 286.8, 230.1)">b</text><text xml:space="preserve" font-family="MyriadSetPro-Text,Myriad Set Pro" font-size="18.0" fill="#FFFFFF" transform="matrix(1.00, 0.00, -0.00, -1.00, 296.8, 230.1)">a</text><text xml:space="preserve" font-family="MyriadSetPro-Text,Myriad Set Pro" font-size="18.0" fill="#FFFFFF" transform="matrix(1.00, 0.00, -0.00, -1.00, 305.2, 230.1)">c</text><text xml:space="preserve" font-family="MyriadSetPro-Text,Myriad Set Pro" font-size="18.0" fill="#FFFFFF" transform="matrix(1.00, 0.00, -0.00, -1.00, 313.0, 230.1)">k</text><text xml:space="preserve" font-family="MyriadSetPro-Text,Myriad Set Pro" font-size="18.0" fill="#FFFFFF" transform="matrix(1.00, 0.00, -0.00, -1.00, 321.1, 230.1)"> </text><text xml:space="preserve" font-family="MyriadSetPro-Text,Myriad Set Pro" font-size="18.0" fill="#FFFFFF" transform="matrix(1.00, 0.00, -0.00, -1.00, 325.5, 230.1)">t</text><text xml:space="preserve" font-family="MyriadSetPro-Text,Myriad Set Pro" font-size="18.0" fill="#FFFFFF" transform="matrix(1.00, 0.00, -0.00, -1.00, 331.1, 230.1)">o</text><text xml:space="preserve" font-family="MyriadSetPro-Text,Myriad Set Pro" font-size="18.0" fill="#FFFFFF" transform="matrix(1.00, 0.00, -0.00, -1.00, 340.7, 230.1)"> </text><text xml:space="preserve" font-family="MyriadSetPro-Text,Myriad Set Pro" font-size="18.0" fill="#FFFFFF" transform="matrix(1.00, 0.00, -0.00, -1.00, 345.1, 230.1)">q</text><text xml:space="preserve" font-family="MyriadSetPro-Text,Myriad Set Pro" font-size="18.0" fill="#FFFFFF" transform="matrix(1.00, 0.00, -0.00, -1.00, 354.9, 230.1)">u</text><text xml:space="preserve" font-family="MyriadSetPro-Text,Myriad Set Pro" font-size="18.0" fill="#FFFFFF" transform="matrix(1.00, 0.00, -0.00, -1.00, 364.5, 230.1)">e</text><text xml:space="preserve" font-family="MyriadSetPro-Text,Myriad Set Pro" font-size="18.0" fill="#FFFFFF" transform="matrix(1.00, 0.00, -0.00, -1.00, 373.2, 230.1)">s</text><text xml:space="preserve" font-family="MyriadSetPro-Text,Myriad Set Pro" font-size="18.0" fill="#FFFFFF" transform="matrix(1.00, 0.00, -0.00, -1.00, 380.1, 230.1)">t</text><text xml:space="preserve" font-family="MyriadSetPro-Text,Myriad Set Pro" font-size="18.0" fill="#FFFFFF" transform="matrix(1.00, 0.00, -0.00, -1.00, 385.8, 230.1)">i</text><text xml:space="preserve" font-family="MyriadSetPro-Text,Myriad Set Pro" font-size="18.0" fill="#FFFFFF" transform="matrix(1.00, 0.00, -0.00, -1.00, 389.9, 230.1)">o</text><text xml:space="preserve" font-family="MyriadSetPro-Text,Myriad Set Pro" font-size="18.0" fill="#FFFFFF" transform="matrix(1.00, 0.00, -0.00, -1.00, 399.5, 230.1)">n</text><text xml:space="preserve" font-family="MyriadSetPro-Text,Myriad Set Pro" font-size="18.0" fill="#FFFFFF" transform="matrix(1.00, 0.00, -0.00, -1.00, 223.4, 119.6)">R</text><text xml:space="preserve" font-family="MyriadSetPro-Text,Myriad Set Pro" font-size="18.0" fill="#FFFFFF" transform="matrix(1.00, 0.00, -0.00, -1.00, 232.8, 119.6)">e</text><text xml:space="preserve" font-family="MyriadSetPro-Text,Myriad Set Pro" font-size="18.0" fill="#FFFFFF" transform="matrix(1.00, 0.00, -0.00, -1.00, 241.6, 119.6)">f</text><text xml:space="preserve" font-family="MyriadSetPro-Text,Myriad Set Pro" font-size="18.0" fill="#FFFFFF" transform="matrix(1.00, 0.00, -0.00, -1.00, 246.6, 119.6)">l</text><text xml:space="preserve" font-family="MyriadSetPro-Text,Myriad Set Pro" font-size="18.0" fill="#FFFFFF" transform="matrix(1.00, 0.00, -0.00, -1.00, 250.7, 119.6)">e</text><text xml:space="preserve" font-family="MyriadSetPro-Text,Myriad Set Pro" font-size="18.0" fill="#FFFFFF" transform="matrix(1.00, 0.00, -0.00, -1.00, 259.4, 119.6)">c</text><text xml:space="preserve" font-family="MyriadSetPro-Text,Myriad Set Pro" font-size="18.0" fill="#FFFFFF" transform="matrix(1.00, 0.00, -0.00, -1.00, 267.5, 119.6)">t</text><text xml:space="preserve" font-family="MyriadSetPro-Text,Myriad Set Pro" font-size="18.0" fill="#FFFFFF" transform="matrix(1.00, 0.00, -0.00, -1.00, 273.3, 119.6)">i</text><text xml:space="preserve" font-family="MyriadSetPro-Text,Myriad Set Pro" font-size="18.0" fill="#FFFFFF" transform="matrix(1.00, 0.00, -0.00, -1.00, 277.3, 119.6)">o</text><text xml:space="preserve" font-family="MyriadSetPro-Text,Myriad Set Pro" font-size="18.0" fill="#FFFFFF" transform="matrix(1.00, 0.00, -0.00, -1.00, 286.9, 119.6)">n</text><text xml:space="preserve" font-family="MyriadSetPro-Text,Myriad Set Pro" font-size="18.0" fill="#FFFFFF" transform="matrix(1.00, 0.00, -0.00, -1.00, 296.6, 119.6)"> </text><text xml:space="preserve" font-family="MyriadSetPro-Text,Myriad Set Pro" font-size="18.0" fill="#FFFFFF" transform="matrix(1.00, 0.00, -0.00, -1.00, 301.0, 119.6)">&amp;</text><text xml:space="preserve" font-family="MyriadSetPro-Text,Myriad Set Pro" font-size="18.0" fill="#FFFFFF" transform="matrix(1.00, 0.00, -0.00, -1.00, 311.5, 119.6)"> </text><text xml:space="preserve" font-family="MyriadSetPro-Text,Myriad Set Pro" font-size="18.0" fill="#FFFFFF" transform="matrix(1.00, 0.00, -0.00, -1.00, 315.9, 119.6)">A</text><text xml:space="preserve" font-family="MyriadSetPro-Text,Myriad Set Pro" font-size="18.0" fill="#FFFFFF" transform="matrix(1.00, 0.00, -0.00, -1.00, 326.3, 119.6)">d</text><text xml:space="preserve" font-family="MyriadSetPro-Text,Myriad Set Pro" font-size="18.0" fill="#FFFFFF" transform="matrix(1.00, 0.00, -0.00, -1.00, 336.2, 119.6)">j</text><text xml:space="preserve" font-family="MyriadSetPro-Text,Myriad Set Pro" font-size="18.0" fill="#FFFFFF" transform="matrix(1.00, 0.00, -0.00, -1.00, 340.3, 119.6)">u</text><text xml:space="preserve" font-family="MyriadSetPro-Text,Myriad Set Pro" font-size="18.0" fill="#FFFFFF" transform="matrix(1.00, 0.00, -0.00, -1.00, 350.0, 119.6)">s</text><text xml:space="preserve" font-family="MyriadSetPro-Text,Myriad Set Pro" font-size="18.0" fill="#FFFFFF" transform="matrix(1.00, 0.00, -0.00, -1.00, 356.9, 119.6)">t</text><text xml:space="preserve" font-family="MyriadSetPro-Text,Myriad Set Pro" font-size="18.0" fill="#FFFFFF" transform="matrix(1.00, 0.00, -0.00, -1.00, 362.6, 119.6)">m</text><text xml:space="preserve" font-family="MyriadSetPro-Text,Myriad Set Pro" font-size="18.0" fill="#FFFFFF" transform="matrix(1.00, 0.00, -0.00, -1.00, 377.3, 119.6)">e</text><text xml:space="preserve" font-family="MyriadSetPro-Text,Myriad Set Pro" font-size="18.0" fill="#FFFFFF" transform="matrix(1.00, 0.00, -0.00, -1.00, 386.1, 119.6)">n</text><text xml:space="preserve" font-family="MyriadSetPro-Text,Myriad Set Pro" font-size="18.0" fill="#FFFFFF" transform="matrix(1.00, 0.00, -0.00, -1.00, 395.6, 119.6)">t</text><text xml:space="preserve" font-family="MyriadSetPro-Text,Myriad Set Pro" font-size="18.0" fill="#FFFFFF" transform="matrix(1.00, 0.00, -0.00, -1.00, 401.4, 119.6)">s</text><path d="M -0.1 0.3 L 28.2 0.3 L 28.9 0.3 " fill="none" stroke="#525252" stroke-width="2.00" stroke-linejoin="round" stroke-dasharray="2.0, 4.0" transform="matrix(0.00, -1.00, -1.00, 0.00, 434.3, 578.9)"></path><path d="M 429.2 551.0 L 434.0 541.4 L 438.8 551.0 Z M 429.2 551.0 " fill="#525252"></path><path d="M 457.0 155.0 L 675.0 155.0 L 675.0 95.0 L 457.0 95.0 Z M 457.3 155.2 " fill="#595959"></path><text xml:space="preserve" font-family="MyriadSetPro-Text,Myriad Set Pro" font-size="18.0" fill="#FFFFFF" transform="matrix(1.00, 0.00, -0.00, -1.00, 470.0, 119.6)">B</text><text xml:space="preserve" font-family="MyriadSetPro-Text,Myriad Set Pro" font-size="18.0" fill="#FFFFFF" transform="matrix(1.00, 0.00, -0.00, -1.00, 479.5, 119.6)">e</text><text xml:space="preserve" font-family="MyriadSetPro-Text,Myriad Set Pro" font-size="18.0" fill="#FFFFFF" transform="matrix(1.00, 0.00, -0.00, -1.00, 488.3, 119.6)">h</text><text xml:space="preserve" font-family="MyriadSetPro-Text,Myriad Set Pro" font-size="18.0" fill="#FFFFFF" transform="matrix(1.00, 0.00, -0.00, -1.00, 498.0, 119.6)">a</text><text xml:space="preserve" font-family="MyriadSetPro-Text,Myriad Set Pro" font-size="18.0" fill="#FFFFFF" transform="matrix(1.00, 0.00, -0.00, -1.00, 506.2, 119.6)">v</text><text xml:space="preserve" font-family="MyriadSetPro-Text,Myriad Set Pro" font-size="18.0" fill="#FFFFFF" transform="matrix(1.00, 0.00, -0.00, -1.00, 514.6, 119.6)">i</text><text xml:space="preserve" font-family="MyriadSetPro-Text,Myriad Set Pro" font-size="18.0" fill="#FFFFFF" transform="matrix(1.00, 0.00, -0.00, -1.00, 518.6, 119.6)">o</text><text xml:space="preserve" font-family="MyriadSetPro-Text,Myriad Set Pro" font-size="18.0" fill="#FFFFFF" transform="matrix(1.00, 0.00, -0.00, -1.00, 528.2, 119.6)">r</text><text xml:space="preserve" font-family="MyriadSetPro-Text,Myriad Set Pro" font-size="18.0" fill="#FFFFFF" transform="matrix(1.00, 0.00, -0.00, -1.00, 533.8, 119.6)"> </text><text xml:space="preserve" font-family="MyriadSetPro-Text,Myriad Set Pro" font-size="18.0" fill="#FFFFFF" transform="matrix(1.00, 0.00, -0.00, -1.00, 538.2, 119.6)">i</text><text xml:space="preserve" font-family="MyriadSetPro-Text,Myriad Set Pro" font-size="18.0" fill="#FFFFFF" transform="matrix(1.00, 0.00, -0.00, -1.00, 542.2, 119.6)">s</text><text xml:space="preserve" font-family="MyriadSetPro-Text,Myriad Set Pro" font-size="18.0" fill="#FFFFFF" transform="matrix(1.00, 0.00, -0.00, -1.00, 549.1, 119.6)"> </text><text xml:space="preserve" font-family="MyriadSetPro-Text,Myriad Set Pro" font-size="18.0" fill="#FFFFFF" transform="matrix(1.00, 0.00, -0.00, -1.00, 553.5, 119.6)">n</text><text xml:space="preserve" font-family="MyriadSetPro-Text,Myriad Set Pro" font-size="18.0" fill="#FFFFFF" transform="matrix(1.00, 0.00, -0.00, -1.00, 563.2, 119.6)">o</text><text xml:space="preserve" font-family="MyriadSetPro-Text,Myriad Set Pro" font-size="18.0" fill="#FFFFFF" transform="matrix(1.00, 0.00, -0.00, -1.00, 572.8, 119.6)">t</text><text xml:space="preserve" font-family="MyriadSetPro-Text,Myriad Set Pro" font-size="18.0" fill="#FFFFFF" transform="matrix(1.00, 0.00, -0.00, -1.00, 578.6, 119.6)"> </text><text xml:space="preserve" font-family="MyriadSetPro-Text,Myriad Set Pro" font-size="18.0" fill="#FFFFFF" transform="matrix(1.00, 0.00, -0.00, -1.00, 582.9, 119.6)">c</text><text xml:space="preserve" font-family="MyriadSetPro-Text,Myriad Set Pro" font-size="18.0" fill="#FFFFFF" transform="matrix(1.00, 0.00, -0.00, -1.00, 590.7, 119.6)">o</text><text xml:space="preserve" font-family="MyriadSetPro-Text,Myriad Set Pro" font-size="18.0" fill="#FFFFFF" transform="matrix(1.00, 0.00, -0.00, -1.00, 600.3, 119.6)">n</text><text xml:space="preserve" font-family="MyriadSetPro-Text,Myriad Set Pro" font-size="18.0" fill="#FFFFFF" transform="matrix(1.00, 0.00, -0.00, -1.00, 610.0, 119.6)">d</text><text xml:space="preserve" font-family="MyriadSetPro-Text,Myriad Set Pro" font-size="18.0" fill="#FFFFFF" transform="matrix(1.00, 0.00, -0.00, -1.00, 619.9, 119.6)">u</text><text xml:space="preserve" font-family="MyriadSetPro-Text,Myriad Set Pro" font-size="18.0" fill="#FFFFFF" transform="matrix(1.00, 0.00, -0.00, -1.00, 629.5, 119.6)">c</text><text xml:space="preserve" font-family="MyriadSetPro-Text,Myriad Set Pro" font-size="18.0" fill="#FFFFFF" transform="matrix(1.00, 0.00, -0.00, -1.00, 637.6, 119.6)">t</text><text xml:space="preserve" font-family="MyriadSetPro-Text,Myriad Set Pro" font-size="18.0" fill="#FFFFFF" transform="matrix(1.00, 0.00, -0.00, -1.00, 643.2, 119.6)">e</text><text xml:space="preserve" font-family="MyriadSetPro-Text,Myriad Set Pro" font-size="18.0" fill="#FFFFFF" transform="matrix(1.00, 0.00, -0.00, -1.00, 652.0, 119.6)">d</text><path d="M 0.0 0.0 L 80.7 0.0 L 81.7 0.0 " fill="none" stroke="#525252" stroke-width="2.00" stroke-linejoin="round" stroke-dasharray="2.0, 4.0" transform="matrix(-0.90, -0.43, -0.43, 0.90, 427.9, 453.5)"></path><path d="M 352.9 423.4 L 346.2 414.9 L 357.0 414.7 Z M 352.9 423.4 " fill="#525252"></path><text xml:space="preserve" font-family="MyriadSetPro-Thin,Myriad Set Pro" font-size="27.0" fill="#000000" transform="matrix(1.00, 0.00, -0.00, -1.00, 837.5, 706.3)">C</text><text xml:space="preserve" font-family="MyriadSetPro-Thin,Myriad Set Pro" font-size="27.0" fill="#000000" transform="matrix(1.00, 0.00, -0.00, -1.00, 852.2, 706.3)">o</text><text xml:space="preserve" font-family="MyriadSetPro-Thin,Myriad Set Pro" font-size="27.0" fill="#000000" transform="matrix(1.00, 0.00, -0.00, -1.00, 866.2, 706.3)">n</text><text xml:space="preserve" font-family="MyriadSetPro-Thin,Myriad Set Pro" font-size="27.0" fill="#000000" transform="matrix(1.00, 0.00, -0.00, -1.00, 880.4, 706.3)">s</text><text xml:space="preserve" font-family="MyriadSetPro-Thin,Myriad Set Pro" font-size="27.0" fill="#000000" transform="matrix(1.00, 0.00, -0.00, -1.00, 890.3, 706.3)">e</text><text xml:space="preserve" font-family="MyriadSetPro-Thin,Myriad Set Pro" font-size="27.0" fill="#000000" transform="matrix(1.00, 0.00, -0.00, -1.00, 903.1, 706.3)">n</text><text xml:space="preserve" font-family="MyriadSetPro-Thin,Myriad Set Pro" font-size="27.0" fill="#000000" transform="matrix(1.00, 0.00, -0.00, -1.00, 917.3, 706.3)">s</text><text xml:space="preserve" font-family="MyriadSetPro-Thin,Myriad Set Pro" font-size="27.0" fill="#000000" transform="matrix(1.00, 0.00, -0.00, -1.00, 927.2, 706.3)">u</text><text xml:space="preserve" font-family="MyriadSetPro-Thin,Myriad Set Pro" font-size="27.0" fill="#000000" transform="matrix(1.00, 0.00, -0.00, -1.00, 941.2, 706.3)">s</text><text xml:space="preserve" font-family="MyriadSetPro-Thin,Myriad Set Pro" font-size="27.0" fill="#000000" transform="matrix(1.00, 0.00, -0.00, -1.00, 951.1, 706.3)"> </text><text xml:space="preserve" font-family="MyriadSetPro-Thin,Myriad Set Pro" font-size="27.0" fill="#000000" transform="matrix(1.00, 0.00, -0.00, -1.00, 956.8, 706.3)">2</text><text xml:space="preserve" font-family="MyriadSetPro-Thin,Myriad Set Pro" font-size="27.0" fill="#000000" transform="matrix(1.00, 0.00, -0.00, -1.00, 969.8, 706.3)">
</text><text xml:space="preserve" font-family="MyriadSetPro-Thin,Myriad Set Pro" font-size="27.0" fill="#000000" transform="matrix(1.00, 0.00, -0.00, -1.00, 969.8, 706.3)"></text><text xml:space="preserve" font-family="MyriadSetPro-Thin,Myriad Set Pro" font-size="27.0" fill="#000000" transform="matrix(1.00, 0.00, -0.00, -1.00, 851.9, 668.6)">F</text><text xml:space="preserve" font-family="MyriadSetPro-Thin,Myriad Set Pro" font-size="27.0" fill="#000000" transform="matrix(1.00, 0.00, -0.00, -1.00, 863.4, 668.6)">r</text><text xml:space="preserve" font-family="MyriadSetPro-Thin,Myriad Set Pro" font-size="27.0" fill="#000000" transform="matrix(1.00, 0.00, -0.00, -1.00, 871.1, 668.6)">a</text><text xml:space="preserve" font-family="MyriadSetPro-Thin,Myriad Set Pro" font-size="27.0" fill="#000000" transform="matrix(1.00, 0.00, -0.00, -1.00, 883.1, 668.6)">m</text><text xml:space="preserve" font-family="MyriadSetPro-Thin,Myriad Set Pro" font-size="27.0" fill="#000000" transform="matrix(1.00, 0.00, -0.00, -1.00, 904.8, 668.6)">e</text><text xml:space="preserve" font-family="MyriadSetPro-Thin,Myriad Set Pro" font-size="27.0" fill="#000000" transform="matrix(1.00, 0.00, -0.00, -1.00, 917.7, 668.6)">w</text><text xml:space="preserve" font-family="MyriadSetPro-Thin,Myriad Set Pro" font-size="27.0" fill="#000000" transform="matrix(1.00, 0.00, -0.00, -1.00, 936.6, 668.6)">o</text><text xml:space="preserve" font-family="MyriadSetPro-Thin,Myriad Set Pro" font-size="27.0" fill="#000000" transform="matrix(1.00, 0.00, -0.00, -1.00, 950.6, 668.6)">r</text><text xml:space="preserve" font-family="MyriadSetPro-Thin,Myriad Set Pro" font-size="27.0" fill="#000000" transform="matrix(1.00, 0.00, -0.00, -1.00, 958.5, 668.6)">k</text></g></svg>