<?xml version="1.0" encoding="UTF-8" standalone="no"?><svg xmlns="http://www.w3.org/2000/svg" xmlns:xlink="http://www.w3.org/1999/xlink" clip-rule="evenodd" stroke-miterlimit="10" viewBox="0 0 1024 768"><desc>SVG generated by Keynote</desc><defs><linearGradient id="gradSh1.5" x1="0.0" y1="0.0" x2="100.0" y2="0.0" gradientUnits="userSpaceOnUse" gradientTransform="matrix(0.00, 7.70, 10.26, 0.00, 512.0, -1.0)"><stop offset="0.00000" stop-color="#FFFFFF"></stop><stop offset="0.01246" stop-color="#FEFEFE"></stop><stop offset="1.00000" stop-color="#D5D5D5"></stop></linearGradient></defs><g transform="matrix(1.00, 0.00, -0.00, -1.00, 0.0, 768.0)"><g><clipPath id="clip0x600001aa77a0"><path d="M 0.0 768.0 L 1024.0 768.0 L 1024.0 0.0 L 0.0 0.0 Z M 0.0 768.0 "></path></clipPath><g clip-path="url(#clip0x600001aa77a0)"><path d="M 0.0 768.0 L 1024.0 768.0 L 1024.0 0.0 L 0.0 0.0 Z M 0.0 768.0 " fill="url(#gradSh1.5)"></path></g></g><text xml:space="preserve" font-family="MyriadSetPro-Thin,Myriad Set Pro" font-size="77.0" fill="#000000" transform="matrix(1.00, 0.00, -0.00, -1.00, 194.6, 502.1)">K</text><text xml:space="preserve" font-family="MyriadSetPro-Thin,Myriad Set Pro" font-size="77.0" fill="#000000" transform="matrix(1.00, 0.00, -0.00, -1.00, 233.2, 502.1)">n</text><text xml:space="preserve" font-family="MyriadSetPro-Thin,Myriad Set Pro" font-size="77.0" fill="#000000" transform="matrix(1.00, 0.00, -0.00, -1.00, 273.6, 502.1)">o</text><text xml:space="preserve" font-family="MyriadSetPro-Thin,Myriad Set Pro" font-size="77.0" fill="#000000" transform="matrix(1.00, 0.00, -0.00, -1.00, 313.2, 502.1)">w</text><text xml:space="preserve" font-family="MyriadSetPro-Thin,Myriad Set Pro" font-size="77.0" fill="#000000" transform="matrix(1.00, 0.00, -0.00, -1.00, 367.8, 502.1)">l</text><text xml:space="preserve" font-family="MyriadSetPro-Thin,Myriad Set Pro" font-size="77.0" fill="#000000" transform="matrix(1.00, 0.00, -0.00, -1.00, 383.7, 502.1)">e</text><text xml:space="preserve" font-family="MyriadSetPro-Thin,Myriad Set Pro" font-size="77.0" fill="#000000" transform="matrix(1.00, 0.00, -0.00, -1.00, 420.2, 502.1)">d</text><text xml:space="preserve" font-family="MyriadSetPro-Thin,Myriad Set Pro" font-size="77.0" fill="#000000" transform="matrix(1.00, 0.00, -0.00, -1.00, 461.1, 502.1)">g</text><text xml:space="preserve" font-family="MyriadSetPro-Thin,Myriad Set Pro" font-size="77.0" fill="#000000" transform="matrix(1.00, 0.00, -0.00, -1.00, 502.1, 502.1)">e</text><text xml:space="preserve" font-family="MyriadSetPro-Thin,Myriad Set Pro" font-size="77.0" fill="#000000" transform="matrix(1.00, 0.00, -0.00, -1.00, 538.6, 502.1)"> </text><text xml:space="preserve" font-family="MyriadSetPro-Thin,Myriad Set Pro" font-size="77.0" fill="#000000" transform="matrix(1.00, 0.00, -0.00, -1.00, 555.1, 502.1)">Q</text><text xml:space="preserve" font-family="MyriadSetPro-Thin,Myriad Set Pro" font-size="77.0" fill="#000000" transform="matrix(1.00, 0.00, -0.00, -1.00, 605.5, 502.1)">u</text><text xml:space="preserve" font-family="MyriadSetPro-Thin,Myriad Set Pro" font-size="77.0" fill="#000000" transform="matrix(1.00, 0.00, -0.00, -1.00, 645.5, 502.1)">e</text><text xml:space="preserve" font-family="MyriadSetPro-Thin,Myriad Set Pro" font-size="77.0" fill="#000000" transform="matrix(1.00, 0.00, -0.00, -1.00, 681.5, 502.1)">s</text><text xml:space="preserve" font-family="MyriadSetPro-Thin,Myriad Set Pro" font-size="77.0" fill="#000000" transform="matrix(1.00, 0.00, -0.00, -1.00, 709.7, 502.1)">t</text><text xml:space="preserve" font-family="MyriadSetPro-Thin,Myriad Set Pro" font-size="77.0" fill="#000000" transform="matrix(1.00, 0.00, -0.00, -1.00, 733.0, 502.1)">i</text><text xml:space="preserve" font-family="MyriadSetPro-Thin,Myriad Set Pro" font-size="77.0" fill="#000000" transform="matrix(1.00, 0.00, -0.00, -1.00, 748.9, 502.1)">o</text><text xml:space="preserve" font-family="MyriadSetPro-Thin,Myriad Set Pro" font-size="77.0" fill="#000000" transform="matrix(1.00, 0.00, -0.00, -1.00, 788.9, 502.1)">n</text><text xml:space="preserve" font-family="MyriadSetPro-Thin,Myriad Set Pro" font-size="38.0" fill="#000000" transform="matrix(1.00, 0.00, -0.00, -1.00, 128.0, 333.3)">I</text><text xml:space="preserve" font-family="MyriadSetPro-Thin,Myriad Set Pro" font-size="38.0" fill="#000000" transform="matrix(1.00, 0.00, -0.00, -1.00, 135.9, 333.3)">n</text><text xml:space="preserve" font-family="MyriadSetPro-Thin,Myriad Set Pro" font-size="38.0" fill="#000000" transform="matrix(1.00, 0.00, -0.00, -1.00, 155.9, 333.3)"> </text><text xml:space="preserve" font-family="MyriadSetPro-Thin,Myriad Set Pro" font-size="38.0" fill="#000000" transform="matrix(1.00, 0.00, -0.00, -1.00, 164.0, 333.3)">w</text><text xml:space="preserve" font-family="MyriadSetPro-Thin,Myriad Set Pro" font-size="38.0" fill="#000000" transform="matrix(1.00, 0.00, -0.00, -1.00, 190.9, 333.3)">h</text><text xml:space="preserve" font-family="MyriadSetPro-Thin,Myriad Set Pro" font-size="38.0" fill="#000000" transform="matrix(1.00, 0.00, -0.00, -1.00, 210.9, 333.3)">a</text><text xml:space="preserve" font-family="MyriadSetPro-Thin,Myriad Set Pro" font-size="38.0" fill="#000000" transform="matrix(1.00, 0.00, -0.00, -1.00, 227.7, 333.3)">t</text><text xml:space="preserve" font-family="MyriadSetPro-Thin,Myriad Set Pro" font-size="38.0" fill="#000000" transform="matrix(1.00, 0.00, -0.00, -1.00, 239.2, 333.3)"> </text><text xml:space="preserve" font-family="MyriadSetPro-Thin,Myriad Set Pro" font-size="38.0" fill="#000000" transform="matrix(1.00, 0.00, -0.00, -1.00, 247.3, 333.3)">w</text><text xml:space="preserve" font-family="MyriadSetPro-Thin,Myriad Set Pro" font-size="38.0" fill="#000000" transform="matrix(1.00, 0.00, -0.00, -1.00, 274.1, 333.3)">a</text><text xml:space="preserve" font-family="MyriadSetPro-Thin,Myriad Set Pro" font-size="38.0" fill="#000000" transform="matrix(1.00, 0.00, -0.00, -1.00, 290.7, 333.3)">y</text><text xml:space="preserve" font-family="MyriadSetPro-Thin,Myriad Set Pro" font-size="38.0" fill="#000000" transform="matrix(1.00, 0.00, -0.00, -1.00, 307.0, 333.3)">s</text><text xml:space="preserve" font-family="MyriadSetPro-Thin,Myriad Set Pro" font-size="38.0" fill="#000000" transform="matrix(1.00, 0.00, -0.00, -1.00, 320.9, 333.3)"> </text><text xml:space="preserve" font-family="MyriadSetPro-Thin,Myriad Set Pro" font-size="38.0" fill="#000000" transform="matrix(1.00, 0.00, -0.00, -1.00, 329.0, 333.3)">d</text><text xml:space="preserve" font-family="MyriadSetPro-Thin,Myriad Set Pro" font-size="38.0" fill="#000000" transform="matrix(1.00, 0.00, -0.00, -1.00, 349.2, 333.3)">o</text><text xml:space="preserve" font-family="MyriadSetPro-Thin,Myriad Set Pro" font-size="38.0" fill="#000000" transform="matrix(1.00, 0.00, -0.00, -1.00, 369.0, 333.3)"> </text><text xml:space="preserve" font-family="MyriadSetPro-Thin,Myriad Set Pro" font-size="38.0" fill="#000000" transform="matrix(1.00, 0.00, -0.00, -1.00, 377.1, 333.3)">r</text><text xml:space="preserve" font-family="MyriadSetPro-Thin,Myriad Set Pro" font-size="38.0" fill="#000000" transform="matrix(1.00, 0.00, -0.00, -1.00, 387.9, 333.3)">e</text><text xml:space="preserve" font-family="MyriadSetPro-Thin,Myriad Set Pro" font-size="38.0" fill="#000000" transform="matrix(1.00, 0.00, -0.00, -1.00, 405.9, 333.3)">a</text><text xml:space="preserve" font-family="MyriadSetPro-Thin,Myriad Set Pro" font-size="38.0" fill="#000000" transform="matrix(1.00, 0.00, -0.00, -1.00, 422.9, 333.3)">s</text><text xml:space="preserve" font-family="MyriadSetPro-Thin,Myriad Set Pro" font-size="38.0" fill="#000000" transform="matrix(1.00, 0.00, -0.00, -1.00, 436.8, 333.3)">o</text><text xml:space="preserve" font-family="MyriadSetPro-Thin,Myriad Set Pro" font-size="38.0" fill="#000000" transform="matrix(1.00, 0.00, -0.00, -1.00, 456.5, 333.3)">n</text><text xml:space="preserve" font-family="MyriadSetPro-Thin,Myriad Set Pro" font-size="38.0" fill="#000000" transform="matrix(1.00, 0.00, -0.00, -1.00, 476.5, 333.3)"> </text><text xml:space="preserve" font-family="MyriadSetPro-Thin,Myriad Set Pro" font-size="38.0" fill="#000000" transform="matrix(1.00, 0.00, -0.00, -1.00, 484.6, 333.3)">a</text><text xml:space="preserve" font-family="MyriadSetPro-Thin,Myriad Set Pro" font-size="38.0" fill="#000000" transform="matrix(1.00, 0.00, -0.00, -1.00, 501.5, 333.3)">n</text><text xml:space="preserve" font-family="MyriadSetPro-Thin,Myriad Set Pro" font-size="38.0" fill="#000000" transform="matrix(1.00, 0.00, -0.00, -1.00, 521.5, 333.3)">d</text><text xml:space="preserve" font-family="MyriadSetPro-Thin,Myriad Set Pro" font-size="38.0" fill="#000000" transform="matrix(1.00, 0.00, -0.00, -1.00, 541.7, 333.3)"> </text><text xml:space="preserve" font-family="MyriadSetPro-Thin,Myriad Set Pro" font-size="38.0" fill="#000000" transform="matrix(1.00, 0.00, -0.00, -1.00, 549.8, 333.3)">i</text><text xml:space="preserve" font-family="MyriadSetPro-Thin,Myriad Set Pro" font-size="38.0" fill="#000000" transform="matrix(1.00, 0.00, -0.00, -1.00, 557.7, 333.3)">n</text><text xml:space="preserve" font-family="MyriadSetPro-Thin,Myriad Set Pro" font-size="38.0" fill="#000000" transform="matrix(1.00, 0.00, -0.00, -1.00, 577.3, 333.3)">t</text><text xml:space="preserve" font-family="MyriadSetPro-Thin,Myriad Set Pro" font-size="38.0" fill="#000000" transform="matrix(1.00, 0.00, -0.00, -1.00, 588.8, 333.3)">u</text><text xml:space="preserve" font-family="MyriadSetPro-Thin,Myriad Set Pro" font-size="38.0" fill="#000000" transform="matrix(1.00, 0.00, -0.00, -1.00, 608.6, 333.3)">i</text><text xml:space="preserve" font-family="MyriadSetPro-Thin,Myriad Set Pro" font-size="38.0" fill="#000000" transform="matrix(1.00, 0.00, -0.00, -1.00, 616.4, 333.3)">t</text><text xml:space="preserve" font-family="MyriadSetPro-Thin,Myriad Set Pro" font-size="38.0" fill="#000000" transform="matrix(1.00, 0.00, -0.00, -1.00, 627.9, 333.3)">i</text><text xml:space="preserve" font-family="MyriadSetPro-Thin,Myriad Set Pro" font-size="38.0" fill="#000000" transform="matrix(1.00, 0.00, -0.00, -1.00, 635.7, 333.3)">o</text><text xml:space="preserve" font-family="MyriadSetPro-Thin,Myriad Set Pro" font-size="38.0" fill="#000000" transform="matrix(1.00, 0.00, -0.00, -1.00, 655.5, 333.3)">n</text><text xml:space="preserve" font-family="MyriadSetPro-Thin,Myriad Set Pro" font-size="38.0" fill="#000000" transform="matrix(1.00, 0.00, -0.00, -1.00, 675.4, 333.3)"> </text><text xml:space="preserve" font-family="MyriadSetPro-Thin,Myriad Set Pro" font-size="38.0" fill="#000000" transform="matrix(1.00, 0.00, -0.00, -1.00, 683.6, 333.3)">a</text><text xml:space="preserve" font-family="MyriadSetPro-Thin,Myriad Set Pro" font-size="38.0" fill="#000000" transform="matrix(1.00, 0.00, -0.00, -1.00, 700.5, 333.3)">f</text><text xml:space="preserve" font-family="MyriadSetPro-Thin,Myriad Set Pro" font-size="38.0" fill="#000000" transform="matrix(1.00, 0.00, -0.00, -1.00, 710.3, 333.3)">f</text><text xml:space="preserve" font-family="MyriadSetPro-Thin,Myriad Set Pro" font-size="38.0" fill="#000000" transform="matrix(1.00, 0.00, -0.00, -1.00, 719.6, 333.3)">e</text><text xml:space="preserve" font-family="MyriadSetPro-Thin,Myriad Set Pro" font-size="38.0" fill="#000000" transform="matrix(1.00, 0.00, -0.00, -1.00, 737.6, 333.3)">c</text><text xml:space="preserve" font-family="MyriadSetPro-Thin,Myriad Set Pro" font-size="38.0" fill="#000000" transform="matrix(1.00, 0.00, -0.00, -1.00, 754.6, 333.3)">t</text><text xml:space="preserve" font-family="MyriadSetPro-Thin,Myriad Set Pro" font-size="38.0" fill="#000000" transform="matrix(1.00, 0.00, -0.00, -1.00, 766.1, 333.3)"> </text><text xml:space="preserve" font-family="MyriadSetPro-Thin,Myriad Set Pro" font-size="38.0" fill="#000000" transform="matrix(1.00, 0.00, -0.00, -1.00, 774.2, 333.3)">p</text><text xml:space="preserve" font-family="MyriadSetPro-Thin,Myriad Set Pro" font-size="38.0" fill="#000000" transform="matrix(1.00, 0.00, -0.00, -1.00, 794.8, 333.3)">e</text><text xml:space="preserve" font-family="MyriadSetPro-Thin,Myriad Set Pro" font-size="38.0" fill="#000000" transform="matrix(1.00, 0.00, -0.00, -1.00, 812.8, 333.3)">o</text><text xml:space="preserve" font-family="MyriadSetPro-Thin,Myriad Set Pro" font-size="38.0" fill="#000000" transform="matrix(1.00, 0.00, -0.00, -1.00, 832.6, 333.3)">p</text><text xml:space="preserve" font-family="MyriadSetPro-Thin,Myriad Set Pro" font-size="38.0" fill="#000000" transform="matrix(1.00, 0.00, -0.00, -1.00, 853.1, 333.3)">l</text><text xml:space="preserve" font-family="MyriadSetPro-Thin,Myriad Set Pro" font-size="38.0" fill="#000000" transform="matrix(1.00, 0.00, -0.00, -1.00, 860.9, 333.3)">e</text><text xml:space="preserve" font-family="MyriadSetPro-Thin,Myriad Set Pro" font-size="38.0" fill="#000000" transform="matrix(1.00, 0.00, -0.00, -1.00, 878.1, 333.3)">’</text><text xml:space="preserve" font-family="MyriadSetPro-Thin,Myriad Set Pro" font-size="38.0" fill="#000000" transform="matrix(1.00, 0.00, -0.00, -1.00, 882.1, 333.3)">s</text><text xml:space="preserve" font-family="MyriadSetPro-Thin,Myriad Set Pro" font-size="38.0" fill="#000000" transform="matrix(1.00, 0.00, -0.00, -1.00, 896.0, 333.3)"> </text><text xml:space="preserve" font-family="MyriadSetPro-Thin,Myriad Set Pro" font-size="38.0" fill="#000000" transform="matrix(1.00, 0.00, -0.00, -1.00, 120.8, 285.3)">d</text><text xml:space="preserve" font-family="MyriadSetPro-Thin,Myriad Set Pro" font-size="38.0" fill="#000000" transform="matrix(1.00, 0.00, -0.00, -1.00, 141.0, 285.3)">e</text><text xml:space="preserve" font-family="MyriadSetPro-Thin,Myriad Set Pro" font-size="38.0" fill="#000000" transform="matrix(1.00, 0.00, -0.00, -1.00, 159.0, 285.3)">c</text><text xml:space="preserve" font-family="MyriadSetPro-Thin,Myriad Set Pro" font-size="38.0" fill="#000000" transform="matrix(1.00, 0.00, -0.00, -1.00, 175.5, 285.3)">i</text><text xml:space="preserve" font-family="MyriadSetPro-Thin,Myriad Set Pro" font-size="38.0" fill="#000000" transform="matrix(1.00, 0.00, -0.00, -1.00, 183.4, 285.3)">s</text><text xml:space="preserve" font-family="MyriadSetPro-Thin,Myriad Set Pro" font-size="38.0" fill="#000000" transform="matrix(1.00, 0.00, -0.00, -1.00, 197.3, 285.3)">i</text><text xml:space="preserve" font-family="MyriadSetPro-Thin,Myriad Set Pro" font-size="38.0" fill="#000000" transform="matrix(1.00, 0.00, -0.00, -1.00, 205.1, 285.3)">o</text><text xml:space="preserve" font-family="MyriadSetPro-Thin,Myriad Set Pro" font-size="38.0" fill="#000000" transform="matrix(1.00, 0.00, -0.00, -1.00, 224.9, 285.3)">n</text><text xml:space="preserve" font-family="MyriadSetPro-Thin,Myriad Set Pro" font-size="38.0" fill="#000000" transform="matrix(1.00, 0.00, -0.00, -1.00, 244.8, 285.3)"> </text><text xml:space="preserve" font-family="MyriadSetPro-Thin,Myriad Set Pro" font-size="38.0" fill="#000000" transform="matrix(1.00, 0.00, -0.00, -1.00, 252.9, 285.3)">t</text><text xml:space="preserve" font-family="MyriadSetPro-Thin,Myriad Set Pro" font-size="38.0" fill="#000000" transform="matrix(1.00, 0.00, -0.00, -1.00, 264.2, 285.3)">o</text><text xml:space="preserve" font-family="MyriadSetPro-Thin,Myriad Set Pro" font-size="38.0" fill="#000000" transform="matrix(1.00, 0.00, -0.00, -1.00, 284.0, 285.3)"> </text><text xml:space="preserve" font-family="MyriadSetPro-Thin,Myriad Set Pro" font-size="38.0" fill="#000000" transform="matrix(1.00, 0.00, -0.00, -1.00, 292.1, 285.3)">c</text><text xml:space="preserve" font-family="MyriadSetPro-Thin,Myriad Set Pro" font-size="38.0" fill="#000000" transform="matrix(1.00, 0.00, -0.00, -1.00, 308.6, 285.3)">a</text><text xml:space="preserve" font-family="MyriadSetPro-Thin,Myriad Set Pro" font-size="38.0" fill="#000000" transform="matrix(1.00, 0.00, -0.00, -1.00, 325.6, 285.3)">r</text><text xml:space="preserve" font-family="MyriadSetPro-Thin,Myriad Set Pro" font-size="38.0" fill="#000000" transform="matrix(1.00, 0.00, -0.00, -1.00, 336.8, 285.3)">r</text><text xml:space="preserve" font-family="MyriadSetPro-Thin,Myriad Set Pro" font-size="38.0" fill="#000000" transform="matrix(1.00, 0.00, -0.00, -1.00, 348.8, 285.3)">y</text><text xml:space="preserve" font-family="MyriadSetPro-Thin,Myriad Set Pro" font-size="38.0" fill="#000000" transform="matrix(1.00, 0.00, -0.00, -1.00, 365.2, 285.3)"> </text><text xml:space="preserve" font-family="MyriadSetPro-Thin,Myriad Set Pro" font-size="38.0" fill="#000000" transform="matrix(1.00, 0.00, -0.00, -1.00, 373.3, 285.3)">o</text><text xml:space="preserve" font-family="MyriadSetPro-Thin,Myriad Set Pro" font-size="38.0" fill="#000000" transform="matrix(1.00, 0.00, -0.00, -1.00, 393.1, 285.3)">u</text><text xml:space="preserve" font-family="MyriadSetPro-Thin,Myriad Set Pro" font-size="38.0" fill="#000000" transform="matrix(1.00, 0.00, -0.00, -1.00, 412.8, 285.3)">t</text><text xml:space="preserve" font-family="MyriadSetPro-Thin,Myriad Set Pro" font-size="38.0" fill="#000000" transform="matrix(1.00, 0.00, -0.00, -1.00, 424.3, 285.3)"> </text><text xml:space="preserve" font-family="MyriadSetPro-Thin,Myriad Set Pro" font-size="38.0" fill="#000000" transform="matrix(1.00, 0.00, -0.00, -1.00, 432.4, 285.3)">p</text><text xml:space="preserve" font-family="MyriadSetPro-Thin,Myriad Set Pro" font-size="38.0" fill="#000000" transform="matrix(1.00, 0.00, -0.00, -1.00, 453.0, 285.3)">o</text><text xml:space="preserve" font-family="MyriadSetPro-Thin,Myriad Set Pro" font-size="38.0" fill="#000000" transform="matrix(1.00, 0.00, -0.00, -1.00, 472.8, 285.3)">t</text><text xml:space="preserve" font-family="MyriadSetPro-Thin,Myriad Set Pro" font-size="38.0" fill="#000000" transform="matrix(1.00, 0.00, -0.00, -1.00, 484.1, 285.3)">e</text><text xml:space="preserve" font-family="MyriadSetPro-Thin,Myriad Set Pro" font-size="38.0" fill="#000000" transform="matrix(1.00, 0.00, -0.00, -1.00, 502.1, 285.3)">n</text><text xml:space="preserve" font-family="MyriadSetPro-Thin,Myriad Set Pro" font-size="38.0" fill="#000000" transform="matrix(1.00, 0.00, -0.00, -1.00, 521.7, 285.3)">t</text><text xml:space="preserve" font-family="MyriadSetPro-Thin,Myriad Set Pro" font-size="38.0" fill="#000000" transform="matrix(1.00, 0.00, -0.00, -1.00, 533.2, 285.3)">i</text><text xml:space="preserve" font-family="MyriadSetPro-Thin,Myriad Set Pro" font-size="38.0" fill="#000000" transform="matrix(1.00, 0.00, -0.00, -1.00, 541.1, 285.3)">a</text><text xml:space="preserve" font-family="MyriadSetPro-Thin,Myriad Set Pro" font-size="38.0" fill="#000000" transform="matrix(1.00, 0.00, -0.00, -1.00, 558.0, 285.3)">l</text><text xml:space="preserve" font-family="MyriadSetPro-Thin,Myriad Set Pro" font-size="38.0" fill="#000000" transform="matrix(1.00, 0.00, -0.00, -1.00, 565.8, 285.3)">l</text><text xml:space="preserve" font-family="MyriadSetPro-Thin,Myriad Set Pro" font-size="38.0" fill="#000000" transform="matrix(1.00, 0.00, -0.00, -1.00, 573.7, 285.3)">y</text><text xml:space="preserve" font-family="MyriadSetPro-Thin,Myriad Set Pro" font-size="38.0" fill="#000000" transform="matrix(1.00, 0.00, -0.00, -1.00, 590.0, 285.3)"> </text><text xml:space="preserve" font-family="MyriadSetPro-Thin,Myriad Set Pro" font-size="38.0" fill="#000000" transform="matrix(1.00, 0.00, -0.00, -1.00, 598.2, 285.3)">u</text><text xml:space="preserve" font-family="MyriadSetPro-Thin,Myriad Set Pro" font-size="38.0" fill="#000000" transform="matrix(1.00, 0.00, -0.00, -1.00, 617.9, 285.3)">n</text><text xml:space="preserve" font-family="MyriadSetPro-Thin,Myriad Set Pro" font-size="38.0" fill="#000000" transform="matrix(1.00, 0.00, -0.00, -1.00, 637.8, 285.3)">e</text><text xml:space="preserve" font-family="MyriadSetPro-Thin,Myriad Set Pro" font-size="38.0" fill="#000000" transform="matrix(1.00, 0.00, -0.00, -1.00, 655.8, 285.3)">t</text><text xml:space="preserve" font-family="MyriadSetPro-Thin,Myriad Set Pro" font-size="38.0" fill="#000000" transform="matrix(1.00, 0.00, -0.00, -1.00, 667.4, 285.3)">h</text><text xml:space="preserve" font-family="MyriadSetPro-Thin,Myriad Set Pro" font-size="38.0" fill="#000000" transform="matrix(1.00, 0.00, -0.00, -1.00, 687.3, 285.3)">i</text><text xml:space="preserve" font-family="MyriadSetPro-Thin,Myriad Set Pro" font-size="38.0" fill="#000000" transform="matrix(1.00, 0.00, -0.00, -1.00, 695.1, 285.3)">c</text><text xml:space="preserve" font-family="MyriadSetPro-Thin,Myriad Set Pro" font-size="38.0" fill="#000000" transform="matrix(1.00, 0.00, -0.00, -1.00, 711.7, 285.3)">a</text><text xml:space="preserve" font-family="MyriadSetPro-Thin,Myriad Set Pro" font-size="38.0" fill="#000000" transform="matrix(1.00, 0.00, -0.00, -1.00, 728.6, 285.3)">l</text><text xml:space="preserve" font-family="MyriadSetPro-Thin,Myriad Set Pro" font-size="38.0" fill="#000000" transform="matrix(1.00, 0.00, -0.00, -1.00, 736.4, 285.3)"> </text><text xml:space="preserve" font-family="MyriadSetPro-Thin,Myriad Set Pro" font-size="38.0" fill="#000000" transform="matrix(1.00, 0.00, -0.00, -1.00, 744.6, 285.3)">b</text><text xml:space="preserve" font-family="MyriadSetPro-Thin,Myriad Set Pro" font-size="38.0" fill="#000000" transform="matrix(1.00, 0.00, -0.00, -1.00, 765.1, 285.3)">e</text><text xml:space="preserve" font-family="MyriadSetPro-Thin,Myriad Set Pro" font-size="38.0" fill="#000000" transform="matrix(1.00, 0.00, -0.00, -1.00, 783.1, 285.3)">h</text><text xml:space="preserve" font-family="MyriadSetPro-Thin,Myriad Set Pro" font-size="38.0" fill="#000000" transform="matrix(1.00, 0.00, -0.00, -1.00, 803.1, 285.3)">a</text><text xml:space="preserve" font-family="MyriadSetPro-Thin,Myriad Set Pro" font-size="38.0" fill="#000000" transform="matrix(1.00, 0.00, -0.00, -1.00, 819.6, 285.3)">v</text><text xml:space="preserve" font-family="MyriadSetPro-Thin,Myriad Set Pro" font-size="38.0" fill="#000000" transform="matrix(1.00, 0.00, -0.00, -1.00, 836.5, 285.3)">i</text><text xml:space="preserve" font-family="MyriadSetPro-Thin,Myriad Set Pro" font-size="38.0" fill="#000000" transform="matrix(1.00, 0.00, -0.00, -1.00, 844.3, 285.3)">o</text><text xml:space="preserve" font-family="MyriadSetPro-Thin,Myriad Set Pro" font-size="38.0" fill="#000000" transform="matrix(1.00, 0.00, -0.00, -1.00, 864.1, 285.3)">r</text><text xml:space="preserve" font-family="MyriadSetPro-Thin,Myriad Set Pro" font-size="38.0" fill="#000000" transform="matrix(1.00, 0.00, -0.00, -1.00, 875.1, 285.3)">s</text><text xml:space="preserve" font-family="MyriadSetPro-Thin,Myriad Set Pro" font-size="38.0" fill="#000000" transform="matrix(1.00, 0.00, -0.00, -1.00, 889.0, 285.3)">?</text><g><clipPath id="clip0x6000020abc40"><path d="M 355.8 429.9 L 483.7 429.9 L 483.7 426.9 L 355.8 426.9 Z M 355.8 429.9 "></path></clipPath><g clip-path="url(#clip0x6000020abc40)"><path d="M 0.2 -0.1 L 126.2 -0.1 " fill="none" stroke="#000000" stroke-width="1.00" stroke-linejoin="bevel" transform="matrix(1.00, 0.00, 0.00, -1.00, 356.8, 428.4)"></path></g></g><g><clipPath id="clip0x6000020abe80"><path d="M 492.5 415.7 L 492.5 441.1 L 531.5 441.1 L 531.5 415.7 Z M 492.5 415.7 "></path></clipPath><g clip-path="url(#clip0x6000020abe80)"><text xml:space="preserve" font-family="MyriadSetPro-Thin,Myriad Set Pro" font-size="24.0" fill="#000000" transform="matrix(0.00, 1.00, 1.00, -0.00, 519.0, 422.6)">8</text></g></g><g><clipPath id="clip0x6000020ac0c0"><path d="M 540.3 429.9 L 668.2 429.9 L 668.2 426.9 L 540.3 426.9 Z M 540.3 429.9 "></path></clipPath><g clip-path="url(#clip0x6000020ac0c0)"><path d="M -0.3 -0.1 L 125.7 -0.1 " fill="none" stroke="#000000" stroke-width="1.00" stroke-linejoin="bevel" transform="matrix(1.00, 0.00, 0.00, -1.00, 541.3, 428.4)"></path></g></g></g></svg>