<?xml version="1.0" encoding="UTF-8" standalone="no"?><svg xmlns="http://www.w3.org/2000/svg" xmlns:xlink="http://www.w3.org/1999/xlink" clip-rule="evenodd" stroke-miterlimit="10" viewBox="0 0 1024 768"><desc>SVG generated by Keynote</desc><defs><linearGradient id="gradSh1.36" x1="0.0" y1="0.0" x2="100.0" y2="0.0" gradientUnits="userSpaceOnUse" gradientTransform="matrix(0.00, 7.70, 10.26, 0.00, 512.0, -1.0)"><stop offset="0.00000" stop-color="#FFFFFF"></stop><stop offset="0.01246" stop-color="#FEFEFE"></stop><stop offset="1.00000" stop-color="#D5D5D5"></stop></linearGradient></defs><g transform="matrix(1.00, 0.00, -0.00, -1.00, 0.0, 768.0)"><g><clipPath id="clip0x600007cac480"><path d="M 0.0 768.0 L 1024.0 768.0 L 1024.0 0.0 L 0.0 0.0 Z M 0.0 768.0 "></path></clipPath><g clip-path="url(#clip0x600007cac480)"><path d="M 0.0 768.0 L 1024.0 768.0 L 1024.0 0.0 L 0.0 0.0 Z M 0.0 768.0 " fill="url(#gradSh1.36)"></path></g></g><text xml:space="preserve" font-family="MyriadSetPro-ThinItalic,Myriad Set Pro" font-style="italic" font-size="34.0" fill="#000000" transform="matrix(1.00, 0.00, -0.00, -1.00, 215.5, 369.1)">“</text><text xml:space="preserve" font-family="MyriadSetPro-ThinItalic,Myriad Set Pro" font-style="italic" font-size="34.0" fill="#000000" transform="matrix(1.00, 0.00, -0.00, -1.00, 225.4, 369.1)">W</text><text xml:space="preserve" font-family="MyriadSetPro-ThinItalic,Myriad Set Pro" font-style="italic" font-size="34.0" fill="#000000" transform="matrix(1.00, 0.00, -0.00, -1.00, 252.9, 369.1)">h</text><text xml:space="preserve" font-family="MyriadSetPro-ThinItalic,Myriad Set Pro" font-style="italic" font-size="34.0" fill="#000000" transform="matrix(1.00, 0.00, -0.00, -1.00, 270.7, 369.1)">e</text><text xml:space="preserve" font-family="MyriadSetPro-ThinItalic,Myriad Set Pro" font-style="italic" font-size="34.0" fill="#000000" transform="matrix(1.00, 0.00, -0.00, -1.00, 286.8, 369.1)">t</text><text xml:space="preserve" font-family="MyriadSetPro-ThinItalic,Myriad Set Pro" font-style="italic" font-size="34.0" fill="#000000" transform="matrix(1.00, 0.00, -0.00, -1.00, 297.1, 369.1)">h</text><text xml:space="preserve" font-family="MyriadSetPro-ThinItalic,Myriad Set Pro" font-style="italic" font-size="34.0" fill="#000000" transform="matrix(1.00, 0.00, -0.00, -1.00, 315.0, 369.1)">e</text><text xml:space="preserve" font-family="MyriadSetPro-ThinItalic,Myriad Set Pro" font-style="italic" font-size="34.0" fill="#000000" transform="matrix(1.00, 0.00, -0.00, -1.00, 331.1, 369.1)">r</text><text xml:space="preserve" font-family="MyriadSetPro-ThinItalic,Myriad Set Pro" font-style="italic" font-size="34.0" fill="#000000" transform="matrix(1.00, 0.00, -0.00, -1.00, 341.0, 369.1)"> </text><text xml:space="preserve" font-family="MyriadSetPro-ThinItalic,Myriad Set Pro" font-style="italic" font-size="34.0" fill="#000000" transform="matrix(1.00, 0.00, -0.00, -1.00, 348.2, 369.1)">i</text><text xml:space="preserve" font-family="MyriadSetPro-ThinItalic,Myriad Set Pro" font-style="italic" font-size="34.0" fill="#000000" transform="matrix(1.00, 0.00, -0.00, -1.00, 355.2, 369.1)">t</text><text xml:space="preserve" font-family="MyriadSetPro-ThinItalic,Myriad Set Pro" font-style="italic" font-size="34.0" fill="#000000" transform="matrix(1.00, 0.00, -0.00, -1.00, 365.5, 369.1)"> </text><text xml:space="preserve" font-family="MyriadSetPro-ThinItalic,Myriad Set Pro" font-style="italic" font-size="34.0" fill="#000000" transform="matrix(1.00, 0.00, -0.00, -1.00, 372.8, 369.1)">i</text><text xml:space="preserve" font-family="MyriadSetPro-ThinItalic,Myriad Set Pro" font-style="italic" font-size="34.0" fill="#000000" transform="matrix(1.00, 0.00, -0.00, -1.00, 379.8, 369.1)">s</text><text xml:space="preserve" font-family="MyriadSetPro-ThinItalic,Myriad Set Pro" font-style="italic" font-size="34.0" fill="#000000" transform="matrix(1.00, 0.00, -0.00, -1.00, 392.3, 369.1)"> </text><text xml:space="preserve" font-family="MyriadSetPro-ThinItalic,Myriad Set Pro" font-style="italic" font-size="34.0" fill="#000000" transform="matrix(1.00, 0.00, -0.00, -1.00, 399.5, 369.1)">f</text><text xml:space="preserve" font-family="MyriadSetPro-ThinItalic,Myriad Set Pro" font-style="italic" font-size="34.0" fill="#000000" transform="matrix(1.00, 0.00, -0.00, -1.00, 408.3, 369.1)">o</text><text xml:space="preserve" font-family="MyriadSetPro-ThinItalic,Myriad Set Pro" font-style="italic" font-size="34.0" fill="#000000" transform="matrix(1.00, 0.00, -0.00, -1.00, 426.0, 369.1)">r</text><text xml:space="preserve" font-family="MyriadSetPro-ThinItalic,Myriad Set Pro" font-style="italic" font-size="34.0" fill="#000000" transform="matrix(1.00, 0.00, -0.00, -1.00, 435.8, 369.1)"> </text><text xml:space="preserve" font-family="MyriadSetPro-ThinItalic,Myriad Set Pro" font-style="italic" font-size="34.0" fill="#000000" transform="matrix(1.00, 0.00, -0.00, -1.00, 443.1, 369.1)">g</text><text xml:space="preserve" font-family="MyriadSetPro-ThinItalic,Myriad Set Pro" font-style="italic" font-size="34.0" fill="#000000" transform="matrix(1.00, 0.00, -0.00, -1.00, 461.2, 369.1)">e</text><text xml:space="preserve" font-family="MyriadSetPro-ThinItalic,Myriad Set Pro" font-style="italic" font-size="34.0" fill="#000000" transform="matrix(1.00, 0.00, -0.00, -1.00, 477.3, 369.1)">n</text><text xml:space="preserve" font-family="MyriadSetPro-ThinItalic,Myriad Set Pro" font-style="italic" font-size="34.0" fill="#000000" transform="matrix(1.00, 0.00, -0.00, -1.00, 495.2, 369.1)">e</text><text xml:space="preserve" font-family="MyriadSetPro-ThinItalic,Myriad Set Pro" font-style="italic" font-size="34.0" fill="#000000" transform="matrix(1.00, 0.00, -0.00, -1.00, 511.3, 369.1)">r</text><text xml:space="preserve" font-family="MyriadSetPro-ThinItalic,Myriad Set Pro" font-style="italic" font-size="34.0" fill="#000000" transform="matrix(1.00, 0.00, -0.00, -1.00, 521.1, 369.1)">a</text><text xml:space="preserve" font-family="MyriadSetPro-ThinItalic,Myriad Set Pro" font-style="italic" font-size="34.0" fill="#000000" transform="matrix(1.00, 0.00, -0.00, -1.00, 536.3, 369.1)">l</text><text xml:space="preserve" font-family="MyriadSetPro-ThinItalic,Myriad Set Pro" font-style="italic" font-size="34.0" fill="#000000" transform="matrix(1.00, 0.00, -0.00, -1.00, 543.3, 369.1)"> </text><text xml:space="preserve" font-family="MyriadSetPro-ThinItalic,Myriad Set Pro" font-style="italic" font-size="34.0" fill="#000000" transform="matrix(1.00, 0.00, -0.00, -1.00, 550.6, 369.1)">p</text><text xml:space="preserve" font-family="MyriadSetPro-ThinItalic,Myriad Set Pro" font-style="italic" font-size="34.0" fill="#000000" transform="matrix(1.00, 0.00, -0.00, -1.00, 568.9, 369.1)">u</text><text xml:space="preserve" font-family="MyriadSetPro-ThinItalic,Myriad Set Pro" font-style="italic" font-size="34.0" fill="#000000" transform="matrix(1.00, 0.00, -0.00, -1.00, 586.6, 369.1)">b</text><text xml:space="preserve" font-family="MyriadSetPro-ThinItalic,Myriad Set Pro" font-style="italic" font-size="34.0" fill="#000000" transform="matrix(1.00, 0.00, -0.00, -1.00, 604.9, 369.1)">l</text><text xml:space="preserve" font-family="MyriadSetPro-ThinItalic,Myriad Set Pro" font-style="italic" font-size="34.0" fill="#000000" transform="matrix(1.00, 0.00, -0.00, -1.00, 611.9, 369.1)">i</text><text xml:space="preserve" font-family="MyriadSetPro-ThinItalic,Myriad Set Pro" font-style="italic" font-size="34.0" fill="#000000" transform="matrix(1.00, 0.00, -0.00, -1.00, 618.9, 369.1)">c</text><text xml:space="preserve" font-family="MyriadSetPro-ThinItalic,Myriad Set Pro" font-style="italic" font-size="34.0" fill="#000000" transform="matrix(1.00, 0.00, -0.00, -1.00, 633.7, 369.1)"> </text><text xml:space="preserve" font-family="MyriadSetPro-ThinItalic,Myriad Set Pro" font-style="italic" font-size="34.0" fill="#000000" transform="matrix(1.00, 0.00, -0.00, -1.00, 641.0, 369.1)">o</text><text xml:space="preserve" font-family="MyriadSetPro-ThinItalic,Myriad Set Pro" font-style="italic" font-size="34.0" fill="#000000" transform="matrix(1.00, 0.00, -0.00, -1.00, 658.7, 369.1)">r</text><text xml:space="preserve" font-family="MyriadSetPro-ThinItalic,Myriad Set Pro" font-style="italic" font-size="34.0" fill="#000000" transform="matrix(1.00, 0.00, -0.00, -1.00, 668.6, 369.1)"> </text><text xml:space="preserve" font-family="MyriadSetPro-ThinItalic,Myriad Set Pro" font-style="italic" font-size="34.0" fill="#000000" transform="matrix(1.00, 0.00, -0.00, -1.00, 675.8, 369.1)">p</text><text xml:space="preserve" font-family="MyriadSetPro-ThinItalic,Myriad Set Pro" font-style="italic" font-size="34.0" fill="#000000" transform="matrix(1.00, 0.00, -0.00, -1.00, 694.2, 369.1)">r</text><text xml:space="preserve" font-family="MyriadSetPro-ThinItalic,Myriad Set Pro" font-style="italic" font-size="34.0" fill="#000000" transform="matrix(1.00, 0.00, -0.00, -1.00, 704.0, 369.1)">i</text><text xml:space="preserve" font-family="MyriadSetPro-ThinItalic,Myriad Set Pro" font-style="italic" font-size="34.0" fill="#000000" transform="matrix(1.00, 0.00, -0.00, -1.00, 711.1, 369.1)">v</text><text xml:space="preserve" font-family="MyriadSetPro-ThinItalic,Myriad Set Pro" font-style="italic" font-size="34.0" fill="#000000" transform="matrix(1.00, 0.00, -0.00, -1.00, 726.1, 369.1)">i</text><text xml:space="preserve" font-family="MyriadSetPro-ThinItalic,Myriad Set Pro" font-style="italic" font-size="34.0" fill="#000000" transform="matrix(1.00, 0.00, -0.00, -1.00, 733.1, 369.1)">l</text><text xml:space="preserve" font-family="MyriadSetPro-ThinItalic,Myriad Set Pro" font-style="italic" font-size="34.0" fill="#000000" transform="matrix(1.00, 0.00, -0.00, -1.00, 740.1, 369.1)">e</text><text xml:space="preserve" font-family="MyriadSetPro-ThinItalic,Myriad Set Pro" font-style="italic" font-size="34.0" fill="#000000" transform="matrix(1.00, 0.00, -0.00, -1.00, 756.2, 369.1)">g</text><text xml:space="preserve" font-family="MyriadSetPro-ThinItalic,Myriad Set Pro" font-style="italic" font-size="34.0" fill="#000000" transform="matrix(1.00, 0.00, -0.00, -1.00, 774.3, 369.1)">e</text><text xml:space="preserve" font-family="MyriadSetPro-ThinItalic,Myriad Set Pro" font-style="italic" font-size="34.0" fill="#000000" transform="matrix(1.00, 0.00, -0.00, -1.00, 790.4, 369.1)">d</text><text xml:space="preserve" font-family="MyriadSetPro-ThinItalic,Myriad Set Pro" font-style="italic" font-size="34.0" fill="#000000" transform="matrix(1.00, 0.00, -0.00, -1.00, 808.5, 369.1)"> </text><text xml:space="preserve" font-family="MyriadSetPro-ThinItalic,Myriad Set Pro" font-style="italic" font-size="34.0" fill="#000000" transform="matrix(1.00, 0.00, -0.00, -1.00, 187.2, 311.5)">i</text><text xml:space="preserve" font-family="MyriadSetPro-ThinItalic,Myriad Set Pro" font-style="italic" font-size="34.0" fill="#000000" transform="matrix(1.00, 0.00, -0.00, -1.00, 194.2, 311.5)">n</text><text xml:space="preserve" font-family="MyriadSetPro-ThinItalic,Myriad Set Pro" font-style="italic" font-size="34.0" fill="#000000" transform="matrix(1.00, 0.00, -0.00, -1.00, 212.1, 311.5)">d</text><text xml:space="preserve" font-family="MyriadSetPro-ThinItalic,Myriad Set Pro" font-style="italic" font-size="34.0" fill="#000000" transform="matrix(1.00, 0.00, -0.00, -1.00, 230.2, 311.5)">i</text><text xml:space="preserve" font-family="MyriadSetPro-ThinItalic,Myriad Set Pro" font-style="italic" font-size="34.0" fill="#000000" transform="matrix(1.00, 0.00, -0.00, -1.00, 237.2, 311.5)">v</text><text xml:space="preserve" font-family="MyriadSetPro-ThinItalic,Myriad Set Pro" font-style="italic" font-size="34.0" fill="#000000" transform="matrix(1.00, 0.00, -0.00, -1.00, 252.2, 311.5)">i</text><text xml:space="preserve" font-family="MyriadSetPro-ThinItalic,Myriad Set Pro" font-style="italic" font-size="34.0" fill="#000000" transform="matrix(1.00, 0.00, -0.00, -1.00, 259.2, 311.5)">d</text><text xml:space="preserve" font-family="MyriadSetPro-ThinItalic,Myriad Set Pro" font-style="italic" font-size="34.0" fill="#000000" transform="matrix(1.00, 0.00, -0.00, -1.00, 277.3, 311.5)">u</text><text xml:space="preserve" font-family="MyriadSetPro-ThinItalic,Myriad Set Pro" font-style="italic" font-size="34.0" fill="#000000" transform="matrix(1.00, 0.00, -0.00, -1.00, 295.0, 311.5)">a</text><text xml:space="preserve" font-family="MyriadSetPro-ThinItalic,Myriad Set Pro" font-style="italic" font-size="34.0" fill="#000000" transform="matrix(1.00, 0.00, -0.00, -1.00, 310.1, 311.5)">l</text><text xml:space="preserve" font-family="MyriadSetPro-ThinItalic,Myriad Set Pro" font-style="italic" font-size="34.0" fill="#000000" transform="matrix(1.00, 0.00, -0.00, -1.00, 317.1, 311.5)">s</text><text xml:space="preserve" font-family="MyriadSetPro-ThinItalic,Myriad Set Pro" font-style="italic" font-size="34.0" fill="#000000" transform="matrix(1.00, 0.00, -0.00, -1.00, 329.6, 311.5)"> </text><text xml:space="preserve" font-family="MyriadSetPro-ThinItalic,Myriad Set Pro" font-style="italic" font-size="34.0" fill="#000000" transform="matrix(1.00, 0.00, -0.00, -1.00, 336.8, 311.5)">o</text><text xml:space="preserve" font-family="MyriadSetPro-ThinItalic,Myriad Set Pro" font-style="italic" font-size="34.0" fill="#000000" transform="matrix(1.00, 0.00, -0.00, -1.00, 354.5, 311.5)">r</text><text xml:space="preserve" font-family="MyriadSetPro-ThinItalic,Myriad Set Pro" font-style="italic" font-size="34.0" fill="#000000" transform="matrix(1.00, 0.00, -0.00, -1.00, 364.4, 311.5)"> </text><text xml:space="preserve" font-family="MyriadSetPro-ThinItalic,Myriad Set Pro" font-style="italic" font-size="34.0" fill="#000000" transform="matrix(1.00, 0.00, -0.00, -1.00, 371.7, 311.5)">o</text><text xml:space="preserve" font-family="MyriadSetPro-ThinItalic,Myriad Set Pro" font-style="italic" font-size="34.0" fill="#000000" transform="matrix(1.00, 0.00, -0.00, -1.00, 389.3, 311.5)">r</text><text xml:space="preserve" font-family="MyriadSetPro-ThinItalic,Myriad Set Pro" font-style="italic" font-size="34.0" fill="#000000" transform="matrix(1.00, 0.00, -0.00, -1.00, 399.2, 311.5)">g</text><text xml:space="preserve" font-family="MyriadSetPro-ThinItalic,Myriad Set Pro" font-style="italic" font-size="34.0" fill="#000000" transform="matrix(1.00, 0.00, -0.00, -1.00, 417.3, 311.5)">a</text><text xml:space="preserve" font-family="MyriadSetPro-ThinItalic,Myriad Set Pro" font-style="italic" font-size="34.0" fill="#000000" transform="matrix(1.00, 0.00, -0.00, -1.00, 432.5, 311.5)">n</text><text xml:space="preserve" font-family="MyriadSetPro-ThinItalic,Myriad Set Pro" font-style="italic" font-size="34.0" fill="#000000" transform="matrix(1.00, 0.00, -0.00, -1.00, 450.3, 311.5)">i</text><text xml:space="preserve" font-family="MyriadSetPro-ThinItalic,Myriad Set Pro" font-style="italic" font-size="34.0" fill="#000000" transform="matrix(1.00, 0.00, -0.00, -1.00, 457.3, 311.5)">z</text><text xml:space="preserve" font-family="MyriadSetPro-ThinItalic,Myriad Set Pro" font-style="italic" font-size="34.0" fill="#000000" transform="matrix(1.00, 0.00, -0.00, -1.00, 470.7, 311.5)">a</text><text xml:space="preserve" font-family="MyriadSetPro-ThinItalic,Myriad Set Pro" font-style="italic" font-size="34.0" fill="#000000" transform="matrix(1.00, 0.00, -0.00, -1.00, 485.9, 311.5)">t</text><text xml:space="preserve" font-family="MyriadSetPro-ThinItalic,Myriad Set Pro" font-style="italic" font-size="34.0" fill="#000000" transform="matrix(1.00, 0.00, -0.00, -1.00, 496.2, 311.5)">i</text><text xml:space="preserve" font-family="MyriadSetPro-ThinItalic,Myriad Set Pro" font-style="italic" font-size="34.0" fill="#000000" transform="matrix(1.00, 0.00, -0.00, -1.00, 503.2, 311.5)">o</text><text xml:space="preserve" font-family="MyriadSetPro-ThinItalic,Myriad Set Pro" font-style="italic" font-size="34.0" fill="#000000" transform="matrix(1.00, 0.00, -0.00, -1.00, 520.9, 311.5)">n</text><text xml:space="preserve" font-family="MyriadSetPro-ThinItalic,Myriad Set Pro" font-style="italic" font-size="34.0" fill="#000000" transform="matrix(1.00, 0.00, -0.00, -1.00, 538.7, 311.5)">s</text><text xml:space="preserve" font-family="MyriadSetPro-ThinItalic,Myriad Set Pro" font-style="italic" font-size="34.0" fill="#000000" transform="matrix(1.00, 0.00, -0.00, -1.00, 551.2, 311.5)">,</text><text xml:space="preserve" font-family="MyriadSetPro-ThinItalic,Myriad Set Pro" font-style="italic" font-size="34.0" fill="#000000" transform="matrix(1.00, 0.00, -0.00, -1.00, 557.1, 311.5)"> </text><text xml:space="preserve" font-family="MyriadSetPro-ThinItalic,Myriad Set Pro" font-style="italic" font-size="34.0" fill="#000000" transform="matrix(1.00, 0.00, -0.00, -1.00, 564.3, 311.5)">p</text><text xml:space="preserve" font-family="MyriadSetPro-ThinItalic,Myriad Set Pro" font-style="italic" font-size="34.0" fill="#000000" transform="matrix(1.00, 0.00, -0.00, -1.00, 582.7, 311.5)">o</text><text xml:space="preserve" font-family="MyriadSetPro-ThinItalic,Myriad Set Pro" font-style="italic" font-size="34.0" fill="#000000" transform="matrix(1.00, 0.00, -0.00, -1.00, 600.4, 311.5)">t</text><text xml:space="preserve" font-family="MyriadSetPro-ThinItalic,Myriad Set Pro" font-style="italic" font-size="34.0" fill="#000000" transform="matrix(1.00, 0.00, -0.00, -1.00, 610.7, 311.5)">e</text><text xml:space="preserve" font-family="MyriadSetPro-ThinItalic,Myriad Set Pro" font-style="italic" font-size="34.0" fill="#000000" transform="matrix(1.00, 0.00, -0.00, -1.00, 626.8, 311.5)">n</text><text xml:space="preserve" font-family="MyriadSetPro-ThinItalic,Myriad Set Pro" font-style="italic" font-size="34.0" fill="#000000" transform="matrix(1.00, 0.00, -0.00, -1.00, 644.7, 311.5)">t</text><text xml:space="preserve" font-family="MyriadSetPro-ThinItalic,Myriad Set Pro" font-style="italic" font-size="34.0" fill="#000000" transform="matrix(1.00, 0.00, -0.00, -1.00, 655.0, 311.5)">i</text><text xml:space="preserve" font-family="MyriadSetPro-ThinItalic,Myriad Set Pro" font-style="italic" font-size="34.0" fill="#000000" transform="matrix(1.00, 0.00, -0.00, -1.00, 662.0, 311.5)">a</text><text xml:space="preserve" font-family="MyriadSetPro-ThinItalic,Myriad Set Pro" font-style="italic" font-size="34.0" fill="#000000" transform="matrix(1.00, 0.00, -0.00, -1.00, 677.1, 311.5)">l</text><text xml:space="preserve" font-family="MyriadSetPro-ThinItalic,Myriad Set Pro" font-style="italic" font-size="34.0" fill="#000000" transform="matrix(1.00, 0.00, -0.00, -1.00, 684.1, 311.5)">l</text><text xml:space="preserve" font-family="MyriadSetPro-ThinItalic,Myriad Set Pro" font-style="italic" font-size="34.0" fill="#000000" transform="matrix(1.00, 0.00, -0.00, -1.00, 691.1, 311.5)">y</text><text xml:space="preserve" font-family="MyriadSetPro-ThinItalic,Myriad Set Pro" font-style="italic" font-size="34.0" fill="#000000" transform="matrix(1.00, 0.00, -0.00, -1.00, 705.8, 311.5)"> </text><text xml:space="preserve" font-family="MyriadSetPro-ThinItalic,Myriad Set Pro" font-style="italic" font-size="34.0" fill="#000000" transform="matrix(1.00, 0.00, -0.00, -1.00, 713.1, 311.5)">u</text><text xml:space="preserve" font-family="MyriadSetPro-ThinItalic,Myriad Set Pro" font-style="italic" font-size="34.0" fill="#000000" transform="matrix(1.00, 0.00, -0.00, -1.00, 730.7, 311.5)">n</text><text xml:space="preserve" font-family="MyriadSetPro-ThinItalic,Myriad Set Pro" font-style="italic" font-size="34.0" fill="#000000" transform="matrix(1.00, 0.00, -0.00, -1.00, 748.6, 311.5)">e</text><text xml:space="preserve" font-family="MyriadSetPro-ThinItalic,Myriad Set Pro" font-style="italic" font-size="34.0" fill="#000000" transform="matrix(1.00, 0.00, -0.00, -1.00, 764.7, 311.5)">t</text><text xml:space="preserve" font-family="MyriadSetPro-ThinItalic,Myriad Set Pro" font-style="italic" font-size="34.0" fill="#000000" transform="matrix(1.00, 0.00, -0.00, -1.00, 775.0, 311.5)">h</text><text xml:space="preserve" font-family="MyriadSetPro-ThinItalic,Myriad Set Pro" font-style="italic" font-size="34.0" fill="#000000" transform="matrix(1.00, 0.00, -0.00, -1.00, 792.8, 311.5)">i</text><text xml:space="preserve" font-family="MyriadSetPro-ThinItalic,Myriad Set Pro" font-style="italic" font-size="34.0" fill="#000000" transform="matrix(1.00, 0.00, -0.00, -1.00, 799.8, 311.5)">c</text><text xml:space="preserve" font-family="MyriadSetPro-ThinItalic,Myriad Set Pro" font-style="italic" font-size="34.0" fill="#000000" transform="matrix(1.00, 0.00, -0.00, -1.00, 814.6, 311.5)">a</text><text xml:space="preserve" font-family="MyriadSetPro-ThinItalic,Myriad Set Pro" font-style="italic" font-size="34.0" fill="#000000" transform="matrix(1.00, 0.00, -0.00, -1.00, 829.8, 311.5)">l</text><text xml:space="preserve" font-family="MyriadSetPro-ThinItalic,Myriad Set Pro" font-style="italic" font-size="34.0" fill="#000000" transform="matrix(1.00, 0.00, -0.00, -1.00, 836.8, 311.5)"> </text><text xml:space="preserve" font-family="MyriadSetPro-ThinItalic,Myriad Set Pro" font-style="italic" font-size="34.0" fill="#000000" transform="matrix(1.00, 0.00, -0.00, -1.00, 209.3, 253.9)">d</text><text xml:space="preserve" font-family="MyriadSetPro-ThinItalic,Myriad Set Pro" font-style="italic" font-size="34.0" fill="#000000" transform="matrix(1.00, 0.00, -0.00, -1.00, 227.4, 253.9)">e</text><text xml:space="preserve" font-family="MyriadSetPro-ThinItalic,Myriad Set Pro" font-style="italic" font-size="34.0" fill="#000000" transform="matrix(1.00, 0.00, -0.00, -1.00, 243.5, 253.9)">c</text><text xml:space="preserve" font-family="MyriadSetPro-ThinItalic,Myriad Set Pro" font-style="italic" font-size="34.0" fill="#000000" transform="matrix(1.00, 0.00, -0.00, -1.00, 258.3, 253.9)">i</text><text xml:space="preserve" font-family="MyriadSetPro-ThinItalic,Myriad Set Pro" font-style="italic" font-size="34.0" fill="#000000" transform="matrix(1.00, 0.00, -0.00, -1.00, 265.3, 253.9)">s</text><text xml:space="preserve" font-family="MyriadSetPro-ThinItalic,Myriad Set Pro" font-style="italic" font-size="34.0" fill="#000000" transform="matrix(1.00, 0.00, -0.00, -1.00, 277.7, 253.9)">i</text><text xml:space="preserve" font-family="MyriadSetPro-ThinItalic,Myriad Set Pro" font-style="italic" font-size="34.0" fill="#000000" transform="matrix(1.00, 0.00, -0.00, -1.00, 284.7, 253.9)">o</text><text xml:space="preserve" font-family="MyriadSetPro-ThinItalic,Myriad Set Pro" font-style="italic" font-size="34.0" fill="#000000" transform="matrix(1.00, 0.00, -0.00, -1.00, 302.4, 253.9)">n</text><text xml:space="preserve" font-family="MyriadSetPro-ThinItalic,Myriad Set Pro" font-style="italic" font-size="34.0" fill="#000000" transform="matrix(1.00, 0.00, -0.00, -1.00, 320.3, 253.9)">s</text><text xml:space="preserve" font-family="MyriadSetPro-ThinItalic,Myriad Set Pro" font-style="italic" font-size="34.0" fill="#000000" transform="matrix(1.00, 0.00, -0.00, -1.00, 332.7, 253.9)"> </text><text xml:space="preserve" font-family="MyriadSetPro-ThinItalic,Myriad Set Pro" font-style="italic" font-size="34.0" fill="#000000" transform="matrix(1.00, 0.00, -0.00, -1.00, 340.0, 253.9)">a</text><text xml:space="preserve" font-family="MyriadSetPro-ThinItalic,Myriad Set Pro" font-style="italic" font-size="34.0" fill="#000000" transform="matrix(1.00, 0.00, -0.00, -1.00, 355.1, 253.9)">r</text><text xml:space="preserve" font-family="MyriadSetPro-ThinItalic,Myriad Set Pro" font-style="italic" font-size="34.0" fill="#000000" transform="matrix(1.00, 0.00, -0.00, -1.00, 365.0, 253.9)">e</text><text xml:space="preserve" font-family="MyriadSetPro-ThinItalic,Myriad Set Pro" font-style="italic" font-size="34.0" fill="#000000" transform="matrix(1.00, 0.00, -0.00, -1.00, 381.1, 253.9)"> </text><text xml:space="preserve" font-family="MyriadSetPro-ThinItalic,Myriad Set Pro" font-style="italic" font-size="34.0" fill="#000000" transform="matrix(1.00, 0.00, -0.00, -1.00, 388.4, 253.9)">o</text><text xml:space="preserve" font-family="MyriadSetPro-ThinItalic,Myriad Set Pro" font-style="italic" font-size="34.0" fill="#000000" transform="matrix(1.00, 0.00, -0.00, -1.00, 406.1, 253.9)">f</text><text xml:space="preserve" font-family="MyriadSetPro-ThinItalic,Myriad Set Pro" font-style="italic" font-size="34.0" fill="#000000" transform="matrix(1.00, 0.00, -0.00, -1.00, 414.8, 253.9)">t</text><text xml:space="preserve" font-family="MyriadSetPro-ThinItalic,Myriad Set Pro" font-style="italic" font-size="34.0" fill="#000000" transform="matrix(1.00, 0.00, -0.00, -1.00, 425.1, 253.9)">e</text><text xml:space="preserve" font-family="MyriadSetPro-ThinItalic,Myriad Set Pro" font-style="italic" font-size="34.0" fill="#000000" transform="matrix(1.00, 0.00, -0.00, -1.00, 441.2, 253.9)">n</text><text xml:space="preserve" font-family="MyriadSetPro-ThinItalic,Myriad Set Pro" font-style="italic" font-size="34.0" fill="#000000" transform="matrix(1.00, 0.00, -0.00, -1.00, 459.1, 253.9)"> </text><text xml:space="preserve" font-family="MyriadSetPro-ThinItalic,Myriad Set Pro" font-style="italic" font-size="34.0" fill="#000000" transform="matrix(1.00, 0.00, -0.00, -1.00, 466.4, 253.9)">m</text><text xml:space="preserve" font-family="MyriadSetPro-ThinItalic,Myriad Set Pro" font-style="italic" font-size="34.0" fill="#000000" transform="matrix(1.00, 0.00, -0.00, -1.00, 493.7, 253.9)">a</text><text xml:space="preserve" font-family="MyriadSetPro-ThinItalic,Myriad Set Pro" font-style="italic" font-size="34.0" fill="#000000" transform="matrix(1.00, 0.00, -0.00, -1.00, 508.8, 253.9)">d</text><text xml:space="preserve" font-family="MyriadSetPro-ThinItalic,Myriad Set Pro" font-style="italic" font-size="34.0" fill="#000000" transform="matrix(1.00, 0.00, -0.00, -1.00, 526.9, 253.9)">e</text><text xml:space="preserve" font-family="MyriadSetPro-ThinItalic,Myriad Set Pro" font-style="italic" font-size="34.0" fill="#000000" transform="matrix(1.00, 0.00, -0.00, -1.00, 543.0, 253.9)"> </text><text xml:space="preserve" font-family="MyriadSetPro-ThinItalic,Myriad Set Pro" font-style="italic" font-size="34.0" fill="#000000" transform="matrix(1.00, 0.00, -0.00, -1.00, 550.3, 253.9)">t</text><text xml:space="preserve" font-family="MyriadSetPro-ThinItalic,Myriad Set Pro" font-style="italic" font-size="34.0" fill="#000000" transform="matrix(1.00, 0.00, -0.00, -1.00, 560.6, 253.9)">h</text><text xml:space="preserve" font-family="MyriadSetPro-ThinItalic,Myriad Set Pro" font-style="italic" font-size="34.0" fill="#000000" transform="matrix(1.00, 0.00, -0.00, -1.00, 578.5, 253.9)">r</text><text xml:space="preserve" font-family="MyriadSetPro-ThinItalic,Myriad Set Pro" font-style="italic" font-size="34.0" fill="#000000" transform="matrix(1.00, 0.00, -0.00, -1.00, 588.3, 253.9)">o</text><text xml:space="preserve" font-family="MyriadSetPro-ThinItalic,Myriad Set Pro" font-style="italic" font-size="34.0" fill="#000000" transform="matrix(1.00, 0.00, -0.00, -1.00, 606.0, 253.9)">u</text><text xml:space="preserve" font-family="MyriadSetPro-ThinItalic,Myriad Set Pro" font-style="italic" font-size="34.0" fill="#000000" transform="matrix(1.00, 0.00, -0.00, -1.00, 623.6, 253.9)">g</text><text xml:space="preserve" font-family="MyriadSetPro-ThinItalic,Myriad Set Pro" font-style="italic" font-size="34.0" fill="#000000" transform="matrix(1.00, 0.00, -0.00, -1.00, 641.7, 253.9)">h</text><text xml:space="preserve" font-family="MyriadSetPro-ThinItalic,Myriad Set Pro" font-style="italic" font-size="34.0" fill="#000000" transform="matrix(1.00, 0.00, -0.00, -1.00, 659.6, 253.9)"> </text><text xml:space="preserve" font-family="MyriadSetPro-ThinItalic,Myriad Set Pro" font-style="italic" font-size="34.0" fill="#000000" transform="matrix(1.00, 0.00, -0.00, -1.00, 666.9, 253.9)">r</text><text xml:space="preserve" font-family="MyriadSetPro-ThinItalic,Myriad Set Pro" font-style="italic" font-size="34.0" fill="#000000" transform="matrix(1.00, 0.00, -0.00, -1.00, 676.7, 253.9)">e</text><text xml:space="preserve" font-family="MyriadSetPro-ThinItalic,Myriad Set Pro" font-style="italic" font-size="34.0" fill="#000000" transform="matrix(1.00, 0.00, -0.00, -1.00, 692.8, 253.9)">a</text><text xml:space="preserve" font-family="MyriadSetPro-ThinItalic,Myriad Set Pro" font-style="italic" font-size="34.0" fill="#000000" transform="matrix(1.00, 0.00, -0.00, -1.00, 708.0, 253.9)">s</text><text xml:space="preserve" font-family="MyriadSetPro-ThinItalic,Myriad Set Pro" font-style="italic" font-size="34.0" fill="#000000" transform="matrix(1.00, 0.00, -0.00, -1.00, 720.4, 253.9)">o</text><text xml:space="preserve" font-family="MyriadSetPro-ThinItalic,Myriad Set Pro" font-style="italic" font-size="34.0" fill="#000000" transform="matrix(1.00, 0.00, -0.00, -1.00, 738.1, 253.9)">n</text><text xml:space="preserve" font-family="MyriadSetPro-ThinItalic,Myriad Set Pro" font-style="italic" font-size="34.0" fill="#000000" transform="matrix(1.00, 0.00, -0.00, -1.00, 756.0, 253.9)">i</text><text xml:space="preserve" font-family="MyriadSetPro-ThinItalic,Myriad Set Pro" font-style="italic" font-size="34.0" fill="#000000" transform="matrix(1.00, 0.00, -0.00, -1.00, 763.0, 253.9)">n</text><text xml:space="preserve" font-family="MyriadSetPro-ThinItalic,Myriad Set Pro" font-style="italic" font-size="34.0" fill="#000000" transform="matrix(1.00, 0.00, -0.00, -1.00, 780.8, 253.9)">g</text><text xml:space="preserve" font-family="MyriadSetPro-ThinItalic,Myriad Set Pro" font-style="italic" font-size="34.0" fill="#000000" transform="matrix(1.00, 0.00, -0.00, -1.00, 798.9, 253.9)">.</text><text xml:space="preserve" font-family="MyriadSetPro-ThinItalic,Myriad Set Pro" font-style="italic" font-size="34.0" fill="#000000" transform="matrix(1.00, 0.00, -0.00, -1.00, 804.8, 253.9)">”</text><text xml:space="preserve" font-family="MyriadSetPro-ThinItalic,Myriad Set Pro" font-style="italic" font-size="34.0" fill="#000000" transform="matrix(1.00, 0.00, -0.00, -1.00, 814.7, 253.9)"> </text><text xml:space="preserve" font-family="MyriadSetPro-Thin,Myriad Set Pro" font-size="77.0" fill="#000000" transform="matrix(1.00, 0.00, -0.00, -1.00, 267.0, 542.8)">C</text><text xml:space="preserve" font-family="MyriadSetPro-Thin,Myriad Set Pro" font-size="77.0" fill="#000000" transform="matrix(1.00, 0.00, -0.00, -1.00, 308.8, 542.8)">o</text><text xml:space="preserve" font-family="MyriadSetPro-Thin,Myriad Set Pro" font-size="77.0" fill="#000000" transform="matrix(1.00, 0.00, -0.00, -1.00, 348.8, 542.8)">u</text><text xml:space="preserve" font-family="MyriadSetPro-Thin,Myriad Set Pro" font-size="77.0" fill="#000000" transform="matrix(1.00, 0.00, -0.00, -1.00, 388.8, 542.8)">n</text><text xml:space="preserve" font-family="MyriadSetPro-Thin,Myriad Set Pro" font-size="77.0" fill="#000000" transform="matrix(1.00, 0.00, -0.00, -1.00, 428.6, 542.8)">t</text><text xml:space="preserve" font-family="MyriadSetPro-Thin,Myriad Set Pro" font-size="77.0" fill="#000000" transform="matrix(1.00, 0.00, -0.00, -1.00, 451.5, 542.8)">e</text><text xml:space="preserve" font-family="MyriadSetPro-Thin,Myriad Set Pro" font-size="77.0" fill="#000000" transform="matrix(1.00, 0.00, -0.00, -1.00, 488.0, 542.8)">r</text><text xml:space="preserve" font-family="MyriadSetPro-Thin,Myriad Set Pro" font-size="77.0" fill="#000000" transform="matrix(1.00, 0.00, -0.00, -1.00, 510.3, 542.8)">-</text><text xml:space="preserve" font-family="MyriadSetPro-Thin,Myriad Set Pro" font-size="77.0" fill="#000000" transform="matrix(1.00, 0.00, -0.00, -1.00, 533.2, 542.8)">C</text><text xml:space="preserve" font-family="MyriadSetPro-Thin,Myriad Set Pro" font-size="77.0" fill="#000000" transform="matrix(1.00, 0.00, -0.00, -1.00, 575.8, 542.8)">l</text><text xml:space="preserve" font-family="MyriadSetPro-Thin,Myriad Set Pro" font-size="77.0" fill="#000000" transform="matrix(1.00, 0.00, -0.00, -1.00, 591.6, 542.8)">a</text><text xml:space="preserve" font-family="MyriadSetPro-Thin,Myriad Set Pro" font-size="77.0" fill="#000000" transform="matrix(1.00, 0.00, -0.00, -1.00, 626.0, 542.8)">i</text><text xml:space="preserve" font-family="MyriadSetPro-Thin,Myriad Set Pro" font-size="77.0" fill="#000000" transform="matrix(1.00, 0.00, -0.00, -1.00, 641.8, 542.8)">m</text><text xml:space="preserve" font-family="MyriadSetPro-Thin,Myriad Set Pro" font-size="77.0" fill="#000000" transform="matrix(1.00, 0.00, -0.00, -1.00, 703.7, 542.8)"> </text><text xml:space="preserve" font-family="MyriadSetPro-Thin,Myriad Set Pro" font-size="77.0" fill="#000000" transform="matrix(1.00, 0.00, -0.00, -1.00, 720.1, 542.8)">2</text><g><clipPath id="clip0x6000082b88a0"><path d="M 355.8 470.6 L 483.7 470.6 L 483.7 467.6 L 355.8 467.6 Z M 355.8 470.6 "></path></clipPath><g clip-path="url(#clip0x6000082b88a0)"><path d="M 0.2 -0.4 L 126.2 -0.4 " fill="none" stroke="#000000" stroke-width="1.00" stroke-linejoin="bevel" transform="matrix(1.00, 0.00, 0.00, -1.00, 356.8, 469.1)"></path></g></g><g><clipPath id="clip0x6000082b8ae0"><path d="M 492.5 456.4 L 492.5 481.8 L 531.5 481.8 L 531.5 456.4 Z M 492.5 456.4 "></path></clipPath><g clip-path="url(#clip0x6000082b8ae0)"><text xml:space="preserve" font-family="MyriadSetPro-Thin,Myriad Set Pro" font-size="24.0" fill="#000000" transform="matrix(0.00, 1.00, 1.00, -0.00, 519.0, 463.4)">8</text></g></g><g><clipPath id="clip0x6000082b8d20"><path d="M 540.3 470.6 L 668.2 470.6 L 668.2 467.6 L 540.3 467.6 Z M 540.3 470.6 "></path></clipPath><g clip-path="url(#clip0x6000082b8d20)"><path d="M -0.3 -0.4 L 125.7 -0.4 " fill="none" stroke="#000000" stroke-width="1.00" stroke-linejoin="bevel" transform="matrix(1.00, 0.00, 0.00, -1.00, 541.3, 469.1)"></path></g></g></g></svg>