<?xml version="1.0" encoding="UTF-8" standalone="no"?><svg xmlns="http://www.w3.org/2000/svg" xmlns:xlink="http://www.w3.org/1999/xlink" clip-rule="evenodd" stroke-miterlimit="10" viewBox="0 0 1024 768"><desc>SVG generated by Keynote</desc><defs><linearGradient id="gradSh1.20" x1="0.0" y1="0.0" x2="100.0" y2="0.0" gradientUnits="userSpaceOnUse" gradientTransform="matrix(0.00, 7.70, 10.26, 0.00, 512.0, -1.0)"><stop offset="0.00000" stop-color="#FFFFFF"></stop><stop offset="0.01246" stop-color="#FEFEFE"></stop><stop offset="1.00000" stop-color="#D5D5D5"></stop></linearGradient></defs><g transform="matrix(1.00, 0.00, -0.00, -1.00, 0.0, 768.0)"><g><clipPath id="clip0x608004eb2f00"><path d="M 0.0 768.0 L 1024.0 768.0 L 1024.0 0.0 L 0.0 0.0 Z M 0.0 768.0 "></path></clipPath><g clip-path="url(#clip0x608004eb2f00)"><path d="M 0.0 768.0 L 1024.0 768.0 L 1024.0 0.0 L 0.0 0.0 Z M 0.0 768.0 " fill="url(#gradSh1.20)"></path></g></g><text xml:space="preserve" font-family="MyriadSetPro-ThinItalic,Myriad Set Pro" font-style="italic" font-size="34.0" fill="#000000" transform="matrix(1.00, 0.00, -0.00, -1.00, 64.5, 361.2)">“</text><text xml:space="preserve" font-family="MyriadSetPro-ThinItalic,Myriad Set Pro" font-style="italic" font-size="34.0" fill="#000000" transform="matrix(1.00, 0.00, -0.00, -1.00, 74.4, 361.2)">R</text><text xml:space="preserve" font-family="MyriadSetPro-ThinItalic,Myriad Set Pro" font-style="italic" font-size="34.0" fill="#000000" transform="matrix(1.00, 0.00, -0.00, -1.00, 91.3, 361.2)">e</text><text xml:space="preserve" font-family="MyriadSetPro-ThinItalic,Myriad Set Pro" font-style="italic" font-size="34.0" fill="#000000" transform="matrix(1.00, 0.00, -0.00, -1.00, 107.4, 361.2)">a</text><text xml:space="preserve" font-family="MyriadSetPro-ThinItalic,Myriad Set Pro" font-style="italic" font-size="34.0" fill="#000000" transform="matrix(1.00, 0.00, -0.00, -1.00, 122.5, 361.2)">s</text><text xml:space="preserve" font-family="MyriadSetPro-ThinItalic,Myriad Set Pro" font-style="italic" font-size="34.0" fill="#000000" transform="matrix(1.00, 0.00, -0.00, -1.00, 135.0, 361.2)">o</text><text xml:space="preserve" font-family="MyriadSetPro-ThinItalic,Myriad Set Pro" font-style="italic" font-size="34.0" fill="#000000" transform="matrix(1.00, 0.00, -0.00, -1.00, 152.7, 361.2)">n</text><text xml:space="preserve" font-family="MyriadSetPro-ThinItalic,Myriad Set Pro" font-style="italic" font-size="34.0" fill="#000000" transform="matrix(1.00, 0.00, -0.00, -1.00, 170.5, 361.2)"> </text><text xml:space="preserve" font-family="MyriadSetPro-ThinItalic,Myriad Set Pro" font-style="italic" font-size="34.0" fill="#000000" transform="matrix(1.00, 0.00, -0.00, -1.00, 177.8, 361.2)">i</text><text xml:space="preserve" font-family="MyriadSetPro-ThinItalic,Myriad Set Pro" font-style="italic" font-size="34.0" fill="#000000" transform="matrix(1.00, 0.00, -0.00, -1.00, 184.8, 361.2)">s</text><text xml:space="preserve" font-family="MyriadSetPro-ThinItalic,Myriad Set Pro" font-style="italic" font-size="34.0" fill="#000000" transform="matrix(1.00, 0.00, -0.00, -1.00, 197.2, 361.2)"> </text><text xml:space="preserve" font-family="MyriadSetPro-ThinItalic,Myriad Set Pro" font-style="italic" font-size="34.0" fill="#000000" transform="matrix(1.00, 0.00, -0.00, -1.00, 204.5, 361.2)">m</text><text xml:space="preserve" font-family="MyriadSetPro-ThinItalic,Myriad Set Pro" font-style="italic" font-size="34.0" fill="#000000" transform="matrix(1.00, 0.00, -0.00, -1.00, 231.8, 361.2)">e</text><text xml:space="preserve" font-family="MyriadSetPro-ThinItalic,Myriad Set Pro" font-style="italic" font-size="34.0" fill="#000000" transform="matrix(1.00, 0.00, -0.00, -1.00, 247.9, 361.2)">r</text><text xml:space="preserve" font-family="MyriadSetPro-ThinItalic,Myriad Set Pro" font-style="italic" font-size="34.0" fill="#000000" transform="matrix(1.00, 0.00, -0.00, -1.00, 257.8, 361.2)">e</text><text xml:space="preserve" font-family="MyriadSetPro-ThinItalic,Myriad Set Pro" font-style="italic" font-size="34.0" fill="#000000" transform="matrix(1.00, 0.00, -0.00, -1.00, 273.9, 361.2)">l</text><text xml:space="preserve" font-family="MyriadSetPro-ThinItalic,Myriad Set Pro" font-style="italic" font-size="34.0" fill="#000000" transform="matrix(1.00, 0.00, -0.00, -1.00, 280.9, 361.2)">y</text><text xml:space="preserve" font-family="MyriadSetPro-ThinItalic,Myriad Set Pro" font-style="italic" font-size="34.0" fill="#000000" transform="matrix(1.00, 0.00, -0.00, -1.00, 295.6, 361.2)"> </text><text xml:space="preserve" font-family="MyriadSetPro-ThinItalic,Myriad Set Pro" font-style="italic" font-size="34.0" fill="#000000" transform="matrix(1.00, 0.00, -0.00, -1.00, 302.8, 361.2)">a</text><text xml:space="preserve" font-family="MyriadSetPro-ThinItalic,Myriad Set Pro" font-style="italic" font-size="34.0" fill="#000000" transform="matrix(1.00, 0.00, -0.00, -1.00, 318.0, 361.2)"> </text><text xml:space="preserve" font-family="MyriadSetPro-ThinItalic,Myriad Set Pro" font-style="italic" font-size="34.0" fill="#000000" transform="matrix(1.00, 0.00, -0.00, -1.00, 325.3, 361.2)">p</text><text xml:space="preserve" font-family="MyriadSetPro-ThinItalic,Myriad Set Pro" font-style="italic" font-size="34.0" fill="#000000" transform="matrix(1.00, 0.00, -0.00, -1.00, 343.6, 361.2)">r</text><text xml:space="preserve" font-family="MyriadSetPro-ThinItalic,Myriad Set Pro" font-style="italic" font-size="34.0" fill="#000000" transform="matrix(1.00, 0.00, -0.00, -1.00, 353.5, 361.2)">o</text><text xml:space="preserve" font-family="MyriadSetPro-ThinItalic,Myriad Set Pro" font-style="italic" font-size="34.0" fill="#000000" transform="matrix(1.00, 0.00, -0.00, -1.00, 371.2, 361.2)">c</text><text xml:space="preserve" font-family="MyriadSetPro-ThinItalic,Myriad Set Pro" font-style="italic" font-size="34.0" fill="#000000" transform="matrix(1.00, 0.00, -0.00, -1.00, 386.0, 361.2)">e</text><text xml:space="preserve" font-family="MyriadSetPro-ThinItalic,Myriad Set Pro" font-style="italic" font-size="34.0" fill="#000000" transform="matrix(1.00, 0.00, -0.00, -1.00, 402.1, 361.2)">s</text><text xml:space="preserve" font-family="MyriadSetPro-ThinItalic,Myriad Set Pro" font-style="italic" font-size="34.0" fill="#000000" transform="matrix(1.00, 0.00, -0.00, -1.00, 414.5, 361.2)">s</text><text xml:space="preserve" font-family="MyriadSetPro-ThinItalic,Myriad Set Pro" font-style="italic" font-size="34.0" fill="#000000" transform="matrix(1.00, 0.00, -0.00, -1.00, 427.0, 361.2)"> </text><text xml:space="preserve" font-family="MyriadSetPro-ThinItalic,Myriad Set Pro" font-style="italic" font-size="34.0" fill="#000000" transform="matrix(1.00, 0.00, -0.00, -1.00, 434.3, 361.2)">o</text><text xml:space="preserve" font-family="MyriadSetPro-ThinItalic,Myriad Set Pro" font-style="italic" font-size="34.0" fill="#000000" transform="matrix(1.00, 0.00, -0.00, -1.00, 451.9, 361.2)">f</text><text xml:space="preserve" font-family="MyriadSetPro-ThinItalic,Myriad Set Pro" font-style="italic" font-size="34.0" fill="#000000" transform="matrix(1.00, 0.00, -0.00, -1.00, 460.7, 361.2)"> </text><text xml:space="preserve" font-family="MyriadSetPro-ThinItalic,Myriad Set Pro" font-style="italic" font-size="34.0" fill="#000000" transform="matrix(1.00, 0.00, -0.00, -1.00, 468.0, 361.2)">j</text><text xml:space="preserve" font-family="MyriadSetPro-ThinItalic,Myriad Set Pro" font-style="italic" font-size="34.0" fill="#000000" transform="matrix(1.00, 0.00, -0.00, -1.00, 475.1, 361.2)">u</text><text xml:space="preserve" font-family="MyriadSetPro-ThinItalic,Myriad Set Pro" font-style="italic" font-size="34.0" fill="#000000" transform="matrix(1.00, 0.00, -0.00, -1.00, 492.8, 361.2)">s</text><text xml:space="preserve" font-family="MyriadSetPro-ThinItalic,Myriad Set Pro" font-style="italic" font-size="34.0" fill="#000000" transform="matrix(1.00, 0.00, -0.00, -1.00, 505.2, 361.2)">t</text><text xml:space="preserve" font-family="MyriadSetPro-ThinItalic,Myriad Set Pro" font-style="italic" font-size="34.0" fill="#000000" transform="matrix(1.00, 0.00, -0.00, -1.00, 515.5, 361.2)">i</text><text xml:space="preserve" font-family="MyriadSetPro-ThinItalic,Myriad Set Pro" font-style="italic" font-size="34.0" fill="#000000" transform="matrix(1.00, 0.00, -0.00, -1.00, 522.5, 361.2)">f</text><text xml:space="preserve" font-family="MyriadSetPro-ThinItalic,Myriad Set Pro" font-style="italic" font-size="34.0" fill="#000000" transform="matrix(1.00, 0.00, -0.00, -1.00, 531.3, 361.2)">y</text><text xml:space="preserve" font-family="MyriadSetPro-ThinItalic,Myriad Set Pro" font-style="italic" font-size="34.0" fill="#000000" transform="matrix(1.00, 0.00, -0.00, -1.00, 545.9, 361.2)">i</text><text xml:space="preserve" font-family="MyriadSetPro-ThinItalic,Myriad Set Pro" font-style="italic" font-size="34.0" fill="#000000" transform="matrix(1.00, 0.00, -0.00, -1.00, 552.9, 361.2)">n</text><text xml:space="preserve" font-family="MyriadSetPro-ThinItalic,Myriad Set Pro" font-style="italic" font-size="34.0" fill="#000000" transform="matrix(1.00, 0.00, -0.00, -1.00, 570.8, 361.2)">g</text><text xml:space="preserve" font-family="MyriadSetPro-ThinItalic,Myriad Set Pro" font-style="italic" font-size="34.0" fill="#000000" transform="matrix(1.00, 0.00, -0.00, -1.00, 588.9, 361.2)"> </text><text xml:space="preserve" font-family="MyriadSetPro-ThinItalic,Myriad Set Pro" font-style="italic" font-size="34.0" fill="#000000" transform="matrix(1.00, 0.00, -0.00, -1.00, 596.1, 361.2)">s</text><text xml:space="preserve" font-family="MyriadSetPro-ThinItalic,Myriad Set Pro" font-style="italic" font-size="34.0" fill="#000000" transform="matrix(1.00, 0.00, -0.00, -1.00, 608.6, 361.2)">e</text><text xml:space="preserve" font-family="MyriadSetPro-ThinItalic,Myriad Set Pro" font-style="italic" font-size="34.0" fill="#000000" transform="matrix(1.00, 0.00, -0.00, -1.00, 624.7, 361.2)">l</text><text xml:space="preserve" font-family="MyriadSetPro-ThinItalic,Myriad Set Pro" font-style="italic" font-size="34.0" fill="#000000" transform="matrix(1.00, 0.00, -0.00, -1.00, 631.7, 361.2)">f</text><text xml:space="preserve" font-family="MyriadSetPro-ThinItalic,Myriad Set Pro" font-style="italic" font-size="34.0" fill="#000000" transform="matrix(1.00, 0.00, -0.00, -1.00, 640.4, 361.2)"> </text><text xml:space="preserve" font-family="MyriadSetPro-ThinItalic,Myriad Set Pro" font-style="italic" font-size="34.0" fill="#000000" transform="matrix(1.00, 0.00, -0.00, -1.00, 647.7, 361.2)">d</text><text xml:space="preserve" font-family="MyriadSetPro-ThinItalic,Myriad Set Pro" font-style="italic" font-size="34.0" fill="#000000" transform="matrix(1.00, 0.00, -0.00, -1.00, 665.8, 361.2)">e</text><text xml:space="preserve" font-family="MyriadSetPro-ThinItalic,Myriad Set Pro" font-style="italic" font-size="34.0" fill="#000000" transform="matrix(1.00, 0.00, -0.00, -1.00, 681.9, 361.2)">c</text><text xml:space="preserve" font-family="MyriadSetPro-ThinItalic,Myriad Set Pro" font-style="italic" font-size="34.0" fill="#000000" transform="matrix(1.00, 0.00, -0.00, -1.00, 696.7, 361.2)">i</text><text xml:space="preserve" font-family="MyriadSetPro-ThinItalic,Myriad Set Pro" font-style="italic" font-size="34.0" fill="#000000" transform="matrix(1.00, 0.00, -0.00, -1.00, 703.7, 361.2)">s</text><text xml:space="preserve" font-family="MyriadSetPro-ThinItalic,Myriad Set Pro" font-style="italic" font-size="34.0" fill="#000000" transform="matrix(1.00, 0.00, -0.00, -1.00, 716.2, 361.2)">i</text><text xml:space="preserve" font-family="MyriadSetPro-ThinItalic,Myriad Set Pro" font-style="italic" font-size="34.0" fill="#000000" transform="matrix(1.00, 0.00, -0.00, -1.00, 723.2, 361.2)">o</text><text xml:space="preserve" font-family="MyriadSetPro-ThinItalic,Myriad Set Pro" font-style="italic" font-size="34.0" fill="#000000" transform="matrix(1.00, 0.00, -0.00, -1.00, 740.8, 361.2)">n</text><text xml:space="preserve" font-family="MyriadSetPro-ThinItalic,Myriad Set Pro" font-style="italic" font-size="34.0" fill="#000000" transform="matrix(1.00, 0.00, -0.00, -1.00, 758.7, 361.2)">s</text><text xml:space="preserve" font-family="MyriadSetPro-ThinItalic,Myriad Set Pro" font-style="italic" font-size="34.0" fill="#000000" transform="matrix(1.00, 0.00, -0.00, -1.00, 771.1, 361.2)">.</text><text xml:space="preserve" font-family="MyriadSetPro-ThinItalic,Myriad Set Pro" font-style="italic" font-size="34.0" fill="#000000" transform="matrix(1.00, 0.00, -0.00, -1.00, 777.0, 361.2)"> </text><text xml:space="preserve" font-family="MyriadSetPro-ThinItalic,Myriad Set Pro" font-style="italic" font-size="34.0" fill="#000000" transform="matrix(1.00, 0.00, -0.00, -1.00, 784.3, 361.2)">D</text><text xml:space="preserve" font-family="MyriadSetPro-ThinItalic,Myriad Set Pro" font-style="italic" font-size="34.0" fill="#000000" transform="matrix(1.00, 0.00, -0.00, -1.00, 805.8, 361.2)">e</text><text xml:space="preserve" font-family="MyriadSetPro-ThinItalic,Myriad Set Pro" font-style="italic" font-size="34.0" fill="#000000" transform="matrix(1.00, 0.00, -0.00, -1.00, 821.9, 361.2)">c</text><text xml:space="preserve" font-family="MyriadSetPro-ThinItalic,Myriad Set Pro" font-style="italic" font-size="34.0" fill="#000000" transform="matrix(1.00, 0.00, -0.00, -1.00, 836.7, 361.2)">i</text><text xml:space="preserve" font-family="MyriadSetPro-ThinItalic,Myriad Set Pro" font-style="italic" font-size="34.0" fill="#000000" transform="matrix(1.00, 0.00, -0.00, -1.00, 843.7, 361.2)">s</text><text xml:space="preserve" font-family="MyriadSetPro-ThinItalic,Myriad Set Pro" font-style="italic" font-size="34.0" fill="#000000" transform="matrix(1.00, 0.00, -0.00, -1.00, 856.1, 361.2)">i</text><text xml:space="preserve" font-family="MyriadSetPro-ThinItalic,Myriad Set Pro" font-style="italic" font-size="34.0" fill="#000000" transform="matrix(1.00, 0.00, -0.00, -1.00, 863.1, 361.2)">o</text><text xml:space="preserve" font-family="MyriadSetPro-ThinItalic,Myriad Set Pro" font-style="italic" font-size="34.0" fill="#000000" transform="matrix(1.00, 0.00, -0.00, -1.00, 880.8, 361.2)">n</text><text xml:space="preserve" font-family="MyriadSetPro-ThinItalic,Myriad Set Pro" font-style="italic" font-size="34.0" fill="#000000" transform="matrix(1.00, 0.00, -0.00, -1.00, 898.7, 361.2)">s</text><text xml:space="preserve" font-family="MyriadSetPro-ThinItalic,Myriad Set Pro" font-style="italic" font-size="34.0" fill="#000000" transform="matrix(1.00, 0.00, -0.00, -1.00, 911.1, 361.2)"> </text><text xml:space="preserve" font-family="MyriadSetPro-ThinItalic,Myriad Set Pro" font-style="italic" font-size="34.0" fill="#000000" transform="matrix(1.00, 0.00, -0.00, -1.00, 918.4, 361.2)">a</text><text xml:space="preserve" font-family="MyriadSetPro-ThinItalic,Myriad Set Pro" font-style="italic" font-size="34.0" fill="#000000" transform="matrix(1.00, 0.00, -0.00, -1.00, 933.5, 361.2)">r</text><text xml:space="preserve" font-family="MyriadSetPro-ThinItalic,Myriad Set Pro" font-style="italic" font-size="34.0" fill="#000000" transform="matrix(1.00, 0.00, -0.00, -1.00, 943.4, 361.2)">e</text><text xml:space="preserve" font-family="MyriadSetPro-ThinItalic,Myriad Set Pro" font-style="italic" font-size="34.0" fill="#000000" transform="matrix(1.00, 0.00, -0.00, -1.00, 959.5, 361.2)"> </text><text xml:space="preserve" font-family="MyriadSetPro-ThinItalic,Myriad Set Pro" font-style="italic" font-size="34.0" fill="#000000" transform="matrix(1.00, 0.00, -0.00, -1.00, 109.0, 303.6)">a</text><text xml:space="preserve" font-family="MyriadSetPro-ThinItalic,Myriad Set Pro" font-style="italic" font-size="34.0" fill="#000000" transform="matrix(1.00, 0.00, -0.00, -1.00, 124.2, 303.6)">l</text><text xml:space="preserve" font-family="MyriadSetPro-ThinItalic,Myriad Set Pro" font-style="italic" font-size="34.0" fill="#000000" transform="matrix(1.00, 0.00, -0.00, -1.00, 131.2, 303.6)">r</text><text xml:space="preserve" font-family="MyriadSetPro-ThinItalic,Myriad Set Pro" font-style="italic" font-size="34.0" fill="#000000" transform="matrix(1.00, 0.00, -0.00, -1.00, 141.1, 303.6)">e</text><text xml:space="preserve" font-family="MyriadSetPro-ThinItalic,Myriad Set Pro" font-style="italic" font-size="34.0" fill="#000000" transform="matrix(1.00, 0.00, -0.00, -1.00, 157.2, 303.6)">a</text><text xml:space="preserve" font-family="MyriadSetPro-ThinItalic,Myriad Set Pro" font-style="italic" font-size="34.0" fill="#000000" transform="matrix(1.00, 0.00, -0.00, -1.00, 172.4, 303.6)">d</text><text xml:space="preserve" font-family="MyriadSetPro-ThinItalic,Myriad Set Pro" font-style="italic" font-size="34.0" fill="#000000" transform="matrix(1.00, 0.00, -0.00, -1.00, 190.4, 303.6)">y</text><text xml:space="preserve" font-family="MyriadSetPro-ThinItalic,Myriad Set Pro" font-style="italic" font-size="34.0" fill="#000000" transform="matrix(1.00, 0.00, -0.00, -1.00, 205.1, 303.6)"> </text><text xml:space="preserve" font-family="MyriadSetPro-ThinItalic,Myriad Set Pro" font-style="italic" font-size="34.0" fill="#000000" transform="matrix(1.00, 0.00, -0.00, -1.00, 212.4, 303.6)">s</text><text xml:space="preserve" font-family="MyriadSetPro-ThinItalic,Myriad Set Pro" font-style="italic" font-size="34.0" fill="#000000" transform="matrix(1.00, 0.00, -0.00, -1.00, 224.8, 303.6)">u</text><text xml:space="preserve" font-family="MyriadSetPro-ThinItalic,Myriad Set Pro" font-style="italic" font-size="34.0" fill="#000000" transform="matrix(1.00, 0.00, -0.00, -1.00, 242.5, 303.6)">b</text><text xml:space="preserve" font-family="MyriadSetPro-ThinItalic,Myriad Set Pro" font-style="italic" font-size="34.0" fill="#000000" transform="matrix(1.00, 0.00, -0.00, -1.00, 260.8, 303.6)">c</text><text xml:space="preserve" font-family="MyriadSetPro-ThinItalic,Myriad Set Pro" font-style="italic" font-size="34.0" fill="#000000" transform="matrix(1.00, 0.00, -0.00, -1.00, 275.6, 303.6)">o</text><text xml:space="preserve" font-family="MyriadSetPro-ThinItalic,Myriad Set Pro" font-style="italic" font-size="34.0" fill="#000000" transform="matrix(1.00, 0.00, -0.00, -1.00, 293.3, 303.6)">n</text><text xml:space="preserve" font-family="MyriadSetPro-ThinItalic,Myriad Set Pro" font-style="italic" font-size="34.0" fill="#000000" transform="matrix(1.00, 0.00, -0.00, -1.00, 311.1, 303.6)">s</text><text xml:space="preserve" font-family="MyriadSetPro-ThinItalic,Myriad Set Pro" font-style="italic" font-size="34.0" fill="#000000" transform="matrix(1.00, 0.00, -0.00, -1.00, 323.6, 303.6)">c</text><text xml:space="preserve" font-family="MyriadSetPro-ThinItalic,Myriad Set Pro" font-style="italic" font-size="34.0" fill="#000000" transform="matrix(1.00, 0.00, -0.00, -1.00, 338.4, 303.6)">i</text><text xml:space="preserve" font-family="MyriadSetPro-ThinItalic,Myriad Set Pro" font-style="italic" font-size="34.0" fill="#000000" transform="matrix(1.00, 0.00, -0.00, -1.00, 345.4, 303.6)">o</text><text xml:space="preserve" font-family="MyriadSetPro-ThinItalic,Myriad Set Pro" font-style="italic" font-size="34.0" fill="#000000" transform="matrix(1.00, 0.00, -0.00, -1.00, 363.1, 303.6)">u</text><text xml:space="preserve" font-family="MyriadSetPro-ThinItalic,Myriad Set Pro" font-style="italic" font-size="34.0" fill="#000000" transform="matrix(1.00, 0.00, -0.00, -1.00, 380.7, 303.6)">s</text><text xml:space="preserve" font-family="MyriadSetPro-ThinItalic,Myriad Set Pro" font-style="italic" font-size="34.0" fill="#000000" transform="matrix(1.00, 0.00, -0.00, -1.00, 393.2, 303.6)">l</text><text xml:space="preserve" font-family="MyriadSetPro-ThinItalic,Myriad Set Pro" font-style="italic" font-size="34.0" fill="#000000" transform="matrix(1.00, 0.00, -0.00, -1.00, 400.2, 303.6)">y</text><text xml:space="preserve" font-family="MyriadSetPro-ThinItalic,Myriad Set Pro" font-style="italic" font-size="34.0" fill="#000000" transform="matrix(1.00, 0.00, -0.00, -1.00, 414.8, 303.6)"> </text><text xml:space="preserve" font-family="MyriadSetPro-ThinItalic,Myriad Set Pro" font-style="italic" font-size="34.0" fill="#000000" transform="matrix(1.00, 0.00, -0.00, -1.00, 422.1, 303.6)">m</text><text xml:space="preserve" font-family="MyriadSetPro-ThinItalic,Myriad Set Pro" font-style="italic" font-size="34.0" fill="#000000" transform="matrix(1.00, 0.00, -0.00, -1.00, 449.4, 303.6)">a</text><text xml:space="preserve" font-family="MyriadSetPro-ThinItalic,Myriad Set Pro" font-style="italic" font-size="34.0" fill="#000000" transform="matrix(1.00, 0.00, -0.00, -1.00, 464.6, 303.6)">d</text><text xml:space="preserve" font-family="MyriadSetPro-ThinItalic,Myriad Set Pro" font-style="italic" font-size="34.0" fill="#000000" transform="matrix(1.00, 0.00, -0.00, -1.00, 482.6, 303.6)">e</text><text xml:space="preserve" font-family="MyriadSetPro-ThinItalic,Myriad Set Pro" font-style="italic" font-size="34.0" fill="#000000" transform="matrix(1.00, 0.00, -0.00, -1.00, 498.8, 303.6)"> </text><text xml:space="preserve" font-family="MyriadSetPro-ThinItalic,Myriad Set Pro" font-style="italic" font-size="34.0" fill="#000000" transform="matrix(1.00, 0.00, -0.00, -1.00, 506.0, 303.6)">b</text><text xml:space="preserve" font-family="MyriadSetPro-ThinItalic,Myriad Set Pro" font-style="italic" font-size="34.0" fill="#000000" transform="matrix(1.00, 0.00, -0.00, -1.00, 524.4, 303.6)">e</text><text xml:space="preserve" font-family="MyriadSetPro-ThinItalic,Myriad Set Pro" font-style="italic" font-size="34.0" fill="#000000" transform="matrix(1.00, 0.00, -0.00, -1.00, 540.5, 303.6)">f</text><text xml:space="preserve" font-family="MyriadSetPro-ThinItalic,Myriad Set Pro" font-style="italic" font-size="34.0" fill="#000000" transform="matrix(1.00, 0.00, -0.00, -1.00, 549.2, 303.6)">o</text><text xml:space="preserve" font-family="MyriadSetPro-ThinItalic,Myriad Set Pro" font-style="italic" font-size="34.0" fill="#000000" transform="matrix(1.00, 0.00, -0.00, -1.00, 566.9, 303.6)">r</text><text xml:space="preserve" font-family="MyriadSetPro-ThinItalic,Myriad Set Pro" font-style="italic" font-size="34.0" fill="#000000" transform="matrix(1.00, 0.00, -0.00, -1.00, 576.8, 303.6)">e</text><text xml:space="preserve" font-family="MyriadSetPro-ThinItalic,Myriad Set Pro" font-style="italic" font-size="34.0" fill="#000000" transform="matrix(1.00, 0.00, -0.00, -1.00, 592.9, 303.6)"> </text><text xml:space="preserve" font-family="MyriadSetPro-ThinItalic,Myriad Set Pro" font-style="italic" font-size="34.0" fill="#000000" transform="matrix(1.00, 0.00, -0.00, -1.00, 600.2, 303.6)">r</text><text xml:space="preserve" font-family="MyriadSetPro-ThinItalic,Myriad Set Pro" font-style="italic" font-size="34.0" fill="#000000" transform="matrix(1.00, 0.00, -0.00, -1.00, 610.0, 303.6)">e</text><text xml:space="preserve" font-family="MyriadSetPro-ThinItalic,Myriad Set Pro" font-style="italic" font-size="34.0" fill="#000000" transform="matrix(1.00, 0.00, -0.00, -1.00, 626.2, 303.6)">a</text><text xml:space="preserve" font-family="MyriadSetPro-ThinItalic,Myriad Set Pro" font-style="italic" font-size="34.0" fill="#000000" transform="matrix(1.00, 0.00, -0.00, -1.00, 641.3, 303.6)">s</text><text xml:space="preserve" font-family="MyriadSetPro-ThinItalic,Myriad Set Pro" font-style="italic" font-size="34.0" fill="#000000" transform="matrix(1.00, 0.00, -0.00, -1.00, 653.8, 303.6)">o</text><text xml:space="preserve" font-family="MyriadSetPro-ThinItalic,Myriad Set Pro" font-style="italic" font-size="34.0" fill="#000000" transform="matrix(1.00, 0.00, -0.00, -1.00, 671.4, 303.6)">n</text><text xml:space="preserve" font-family="MyriadSetPro-ThinItalic,Myriad Set Pro" font-style="italic" font-size="34.0" fill="#000000" transform="matrix(1.00, 0.00, -0.00, -1.00, 689.3, 303.6)">i</text><text xml:space="preserve" font-family="MyriadSetPro-ThinItalic,Myriad Set Pro" font-style="italic" font-size="34.0" fill="#000000" transform="matrix(1.00, 0.00, -0.00, -1.00, 696.3, 303.6)">n</text><text xml:space="preserve" font-family="MyriadSetPro-ThinItalic,Myriad Set Pro" font-style="italic" font-size="34.0" fill="#000000" transform="matrix(1.00, 0.00, -0.00, -1.00, 714.1, 303.6)">g</text><text xml:space="preserve" font-family="MyriadSetPro-ThinItalic,Myriad Set Pro" font-style="italic" font-size="34.0" fill="#000000" transform="matrix(1.00, 0.00, -0.00, -1.00, 732.2, 303.6)"> </text><text xml:space="preserve" font-family="MyriadSetPro-ThinItalic,Myriad Set Pro" font-style="italic" font-size="34.0" fill="#000000" transform="matrix(1.00, 0.00, -0.00, -1.00, 739.5, 303.6)">e</text><text xml:space="preserve" font-family="MyriadSetPro-ThinItalic,Myriad Set Pro" font-style="italic" font-size="34.0" fill="#000000" transform="matrix(1.00, 0.00, -0.00, -1.00, 755.6, 303.6)">v</text><text xml:space="preserve" font-family="MyriadSetPro-ThinItalic,Myriad Set Pro" font-style="italic" font-size="34.0" fill="#000000" transform="matrix(1.00, 0.00, -0.00, -1.00, 770.7, 303.6)">e</text><text xml:space="preserve" font-family="MyriadSetPro-ThinItalic,Myriad Set Pro" font-style="italic" font-size="34.0" fill="#000000" transform="matrix(1.00, 0.00, -0.00, -1.00, 786.8, 303.6)">n</text><text xml:space="preserve" font-family="MyriadSetPro-ThinItalic,Myriad Set Pro" font-style="italic" font-size="34.0" fill="#000000" transform="matrix(1.00, 0.00, -0.00, -1.00, 804.7, 303.6)"> </text><text xml:space="preserve" font-family="MyriadSetPro-ThinItalic,Myriad Set Pro" font-style="italic" font-size="34.0" fill="#000000" transform="matrix(1.00, 0.00, -0.00, -1.00, 811.9, 303.6)">o</text><text xml:space="preserve" font-family="MyriadSetPro-ThinItalic,Myriad Set Pro" font-style="italic" font-size="34.0" fill="#000000" transform="matrix(1.00, 0.00, -0.00, -1.00, 829.6, 303.6)">c</text><text xml:space="preserve" font-family="MyriadSetPro-ThinItalic,Myriad Set Pro" font-style="italic" font-size="34.0" fill="#000000" transform="matrix(1.00, 0.00, -0.00, -1.00, 844.4, 303.6)">c</text><text xml:space="preserve" font-family="MyriadSetPro-ThinItalic,Myriad Set Pro" font-style="italic" font-size="34.0" fill="#000000" transform="matrix(1.00, 0.00, -0.00, -1.00, 859.2, 303.6)">u</text><text xml:space="preserve" font-family="MyriadSetPro-ThinItalic,Myriad Set Pro" font-style="italic" font-size="34.0" fill="#000000" transform="matrix(1.00, 0.00, -0.00, -1.00, 876.8, 303.6)">r</text><text xml:space="preserve" font-family="MyriadSetPro-ThinItalic,Myriad Set Pro" font-style="italic" font-size="34.0" fill="#000000" transform="matrix(1.00, 0.00, -0.00, -1.00, 886.7, 303.6)">s</text><text xml:space="preserve" font-family="MyriadSetPro-ThinItalic,Myriad Set Pro" font-style="italic" font-size="34.0" fill="#000000" transform="matrix(1.00, 0.00, -0.00, -1.00, 899.1, 303.6)">.</text><text xml:space="preserve" font-family="MyriadSetPro-ThinItalic,Myriad Set Pro" font-style="italic" font-size="34.0" fill="#000000" transform="matrix(1.00, 0.00, -0.00, -1.00, 905.0, 303.6)">”</text><text xml:space="preserve" font-family="MyriadSetPro-ThinItalic,Myriad Set Pro" font-style="italic" font-size="34.0" fill="#000000" transform="matrix(1.00, 0.00, -0.00, -1.00, 915.0, 303.6)"> </text><text xml:space="preserve" font-family="MyriadSetPro-Thin,Myriad Set Pro" font-size="77.0" fill="#000000" transform="matrix(1.00, 0.00, -0.00, -1.00, 270.2, 542.8)">C</text><text xml:space="preserve" font-family="MyriadSetPro-Thin,Myriad Set Pro" font-size="77.0" fill="#000000" transform="matrix(1.00, 0.00, -0.00, -1.00, 312.0, 542.8)">o</text><text xml:space="preserve" font-family="MyriadSetPro-Thin,Myriad Set Pro" font-size="77.0" fill="#000000" transform="matrix(1.00, 0.00, -0.00, -1.00, 352.0, 542.8)">u</text><text xml:space="preserve" font-family="MyriadSetPro-Thin,Myriad Set Pro" font-size="77.0" fill="#000000" transform="matrix(1.00, 0.00, -0.00, -1.00, 392.0, 542.8)">n</text><text xml:space="preserve" font-family="MyriadSetPro-Thin,Myriad Set Pro" font-size="77.0" fill="#000000" transform="matrix(1.00, 0.00, -0.00, -1.00, 431.8, 542.8)">t</text><text xml:space="preserve" font-family="MyriadSetPro-Thin,Myriad Set Pro" font-size="77.0" fill="#000000" transform="matrix(1.00, 0.00, -0.00, -1.00, 454.7, 542.8)">e</text><text xml:space="preserve" font-family="MyriadSetPro-Thin,Myriad Set Pro" font-size="77.0" fill="#000000" transform="matrix(1.00, 0.00, -0.00, -1.00, 491.2, 542.8)">r</text><text xml:space="preserve" font-family="MyriadSetPro-Thin,Myriad Set Pro" font-size="77.0" fill="#000000" transform="matrix(1.00, 0.00, -0.00, -1.00, 513.5, 542.8)"> </text><text xml:space="preserve" font-family="MyriadSetPro-Thin,Myriad Set Pro" font-size="77.0" fill="#000000" transform="matrix(1.00, 0.00, -0.00, -1.00, 530.0, 542.8)">C</text><text xml:space="preserve" font-family="MyriadSetPro-Thin,Myriad Set Pro" font-size="77.0" fill="#000000" transform="matrix(1.00, 0.00, -0.00, -1.00, 572.6, 542.8)">l</text><text xml:space="preserve" font-family="MyriadSetPro-Thin,Myriad Set Pro" font-size="77.0" fill="#000000" transform="matrix(1.00, 0.00, -0.00, -1.00, 588.4, 542.8)">a</text><text xml:space="preserve" font-family="MyriadSetPro-Thin,Myriad Set Pro" font-size="77.0" fill="#000000" transform="matrix(1.00, 0.00, -0.00, -1.00, 622.8, 542.8)">i</text><text xml:space="preserve" font-family="MyriadSetPro-Thin,Myriad Set Pro" font-size="77.0" fill="#000000" transform="matrix(1.00, 0.00, -0.00, -1.00, 638.6, 542.8)">m</text><text xml:space="preserve" font-family="MyriadSetPro-Thin,Myriad Set Pro" font-size="77.0" fill="#000000" transform="matrix(1.00, 0.00, -0.00, -1.00, 700.5, 542.8)"> </text><text xml:space="preserve" font-family="MyriadSetPro-Thin,Myriad Set Pro" font-size="77.0" fill="#000000" transform="matrix(1.00, 0.00, -0.00, -1.00, 716.9, 542.8)">1</text><g><clipPath id="clip0x6080052b5ba0"><path d="M 355.8 470.6 L 483.7 470.6 L 483.7 467.6 L 355.8 467.6 Z M 355.8 470.6 "></path></clipPath><g clip-path="url(#clip0x6080052b5ba0)"><path d="M 0.2 -0.4 L 126.2 -0.4 " fill="none" stroke="#000000" stroke-width="1.00" stroke-linejoin="bevel" transform="matrix(1.00, 0.00, 0.00, -1.00, 356.8, 469.1)"></path></g></g><g><clipPath id="clip0x6080052b5de0"><path d="M 492.5 456.4 L 492.5 481.8 L 531.5 481.8 L 531.5 456.4 Z M 492.5 456.4 "></path></clipPath><g clip-path="url(#clip0x6080052b5de0)"><text xml:space="preserve" font-family="MyriadSetPro-Thin,Myriad Set Pro" font-size="24.0" fill="#000000" transform="matrix(0.00, 1.00, 1.00, -0.00, 519.0, 463.4)">8</text></g></g><g><clipPath id="clip0x6080052b6020"><path d="M 540.3 470.6 L 668.2 470.6 L 668.2 467.6 L 540.3 467.6 Z M 540.3 470.6 "></path></clipPath><g clip-path="url(#clip0x6080052b6020)"><path d="M -0.3 -0.4 L 125.7 -0.4 " fill="none" stroke="#000000" stroke-width="1.00" stroke-linejoin="bevel" transform="matrix(1.00, 0.00, 0.00, -1.00, 541.3, 469.1)"></path></g></g></g></svg>