<?xml version="1.0" encoding="UTF-8" standalone="no"?><svg xmlns="http://www.w3.org/2000/svg" xmlns:xlink="http://www.w3.org/1999/xlink" clip-rule="evenodd" stroke-miterlimit="10" viewBox="0 0 1024 768"><desc>SVG generated by Keynote</desc><defs><linearGradient id="gradSh1.26" x1="0.0" y1="0.0" x2="100.0" y2="0.0" gradientUnits="userSpaceOnUse" gradientTransform="matrix(0.00, 7.70, 10.26, 0.00, 512.0, -1.0)"><stop offset="0.00000" stop-color="#FFFFFF"></stop><stop offset="0.01246" stop-color="#FEFEFE"></stop><stop offset="1.00000" stop-color="#D5D5D5"></stop></linearGradient></defs><g transform="matrix(1.00, 0.00, -0.00, -1.00, 0.0, 768.0)"><g><clipPath id="clip0x6000052b0a40"><path d="M 0.0 768.0 L 1024.0 768.0 L 1024.0 0.0 L 0.0 0.0 Z M 0.0 768.0 "></path></clipPath><g clip-path="url(#clip0x6000052b0a40)"><path d="M 0.0 768.0 L 1024.0 768.0 L 1024.0 0.0 L 0.0 0.0 Z M 0.0 768.0 " fill="url(#gradSh1.26)"></path></g></g><text xml:space="preserve" font-family="MyriadSetPro-ThinItalic,Myriad Set Pro" font-style="italic" font-size="32.0" fill="#000000" transform="matrix(1.00, 0.00, -0.00, -1.00, 358.6, 570.3)">E</text><text xml:space="preserve" font-family="MyriadSetPro-ThinItalic,Myriad Set Pro" font-style="italic" font-size="32.0" fill="#000000" transform="matrix(1.00, 0.00, -0.00, -1.00, 373.2, 570.3)">v</text><text xml:space="preserve" font-family="MyriadSetPro-ThinItalic,Myriad Set Pro" font-style="italic" font-size="32.0" fill="#000000" transform="matrix(1.00, 0.00, -0.00, -1.00, 387.4, 570.3)">e</text><text xml:space="preserve" font-family="MyriadSetPro-ThinItalic,Myriad Set Pro" font-style="italic" font-size="32.0" fill="#000000" transform="matrix(1.00, 0.00, -0.00, -1.00, 402.5, 570.3)">n</text><text xml:space="preserve" font-family="MyriadSetPro-ThinItalic,Myriad Set Pro" font-style="italic" font-size="32.0" fill="#000000" transform="matrix(1.00, 0.00, -0.00, -1.00, 419.3, 570.3)"> </text><text xml:space="preserve" font-family="MyriadSetPro-ThinItalic,Myriad Set Pro" font-style="italic" font-size="32.0" fill="#000000" transform="matrix(1.00, 0.00, -0.00, -1.00, 426.2, 570.3)">u</text><text xml:space="preserve" font-family="MyriadSetPro-ThinItalic,Myriad Set Pro" font-style="italic" font-size="32.0" fill="#000000" transform="matrix(1.00, 0.00, -0.00, -1.00, 442.8, 570.3)">p</text><text xml:space="preserve" font-family="MyriadSetPro-ThinItalic,Myriad Set Pro" font-style="italic" font-size="32.0" fill="#000000" transform="matrix(1.00, 0.00, -0.00, -1.00, 460.1, 570.3)">o</text><text xml:space="preserve" font-family="MyriadSetPro-ThinItalic,Myriad Set Pro" font-style="italic" font-size="32.0" fill="#000000" transform="matrix(1.00, 0.00, -0.00, -1.00, 476.7, 570.3)">n</text><text xml:space="preserve" font-family="MyriadSetPro-ThinItalic,Myriad Set Pro" font-style="italic" font-size="32.0" fill="#000000" transform="matrix(1.00, 0.00, -0.00, -1.00, 493.5, 570.3)"> </text><text xml:space="preserve" font-family="MyriadSetPro-ThinItalic,Myriad Set Pro" font-style="italic" font-size="32.0" fill="#000000" transform="matrix(1.00, 0.00, -0.00, -1.00, 500.4, 570.3)">l</text><text xml:space="preserve" font-family="MyriadSetPro-ThinItalic,Myriad Set Pro" font-style="italic" font-size="32.0" fill="#000000" transform="matrix(1.00, 0.00, -0.00, -1.00, 507.0, 570.3)">o</text><text xml:space="preserve" font-family="MyriadSetPro-ThinItalic,Myriad Set Pro" font-style="italic" font-size="32.0" fill="#000000" transform="matrix(1.00, 0.00, -0.00, -1.00, 523.6, 570.3)">o</text><text xml:space="preserve" font-family="MyriadSetPro-ThinItalic,Myriad Set Pro" font-style="italic" font-size="32.0" fill="#000000" transform="matrix(1.00, 0.00, -0.00, -1.00, 540.2, 570.3)">k</text><text xml:space="preserve" font-family="MyriadSetPro-ThinItalic,Myriad Set Pro" font-style="italic" font-size="32.0" fill="#000000" transform="matrix(1.00, 0.00, -0.00, -1.00, 553.6, 570.3)">i</text><text xml:space="preserve" font-family="MyriadSetPro-ThinItalic,Myriad Set Pro" font-style="italic" font-size="32.0" fill="#000000" transform="matrix(1.00, 0.00, -0.00, -1.00, 560.1, 570.3)">n</text><text xml:space="preserve" font-family="MyriadSetPro-ThinItalic,Myriad Set Pro" font-style="italic" font-size="32.0" fill="#000000" transform="matrix(1.00, 0.00, -0.00, -1.00, 576.9, 570.3)">g</text><text xml:space="preserve" font-family="MyriadSetPro-ThinItalic,Myriad Set Pro" font-style="italic" font-size="32.0" fill="#000000" transform="matrix(1.00, 0.00, -0.00, -1.00, 594.0, 570.3)"> </text><text xml:space="preserve" font-family="MyriadSetPro-ThinItalic,Myriad Set Pro" font-style="italic" font-size="32.0" fill="#000000" transform="matrix(1.00, 0.00, -0.00, -1.00, 600.8, 570.3)">f</text><text xml:space="preserve" font-family="MyriadSetPro-ThinItalic,Myriad Set Pro" font-style="italic" font-size="32.0" fill="#000000" transform="matrix(1.00, 0.00, -0.00, -1.00, 609.0, 570.3)">r</text><text xml:space="preserve" font-family="MyriadSetPro-ThinItalic,Myriad Set Pro" font-style="italic" font-size="32.0" fill="#000000" transform="matrix(1.00, 0.00, -0.00, -1.00, 618.3, 570.3)">o</text><text xml:space="preserve" font-family="MyriadSetPro-ThinItalic,Myriad Set Pro" font-style="italic" font-size="32.0" fill="#000000" transform="matrix(1.00, 0.00, -0.00, -1.00, 635.0, 570.3)">m</text><text xml:space="preserve" font-family="MyriadSetPro-ThinItalic,Myriad Set Pro" font-style="italic" font-size="32.0" fill="#000000" transform="matrix(1.00, 0.00, -0.00, -1.00, 660.7, 570.3)"> </text><text xml:space="preserve" font-family="MyriadSetPro-ThinItalic,Myriad Set Pro" font-style="italic" font-size="32.0" fill="#000000" transform="matrix(1.00, 0.00, -0.00, -1.00, 667.5, 570.3)">d</text><text xml:space="preserve" font-family="MyriadSetPro-ThinItalic,Myriad Set Pro" font-style="italic" font-size="32.0" fill="#000000" transform="matrix(1.00, 0.00, -0.00, -1.00, 684.5, 570.3)">i</text><text xml:space="preserve" font-family="MyriadSetPro-ThinItalic,Myriad Set Pro" font-style="italic" font-size="32.0" fill="#000000" transform="matrix(1.00, 0.00, -0.00, -1.00, 691.1, 570.3)">f</text><text xml:space="preserve" font-family="MyriadSetPro-ThinItalic,Myriad Set Pro" font-style="italic" font-size="32.0" fill="#000000" transform="matrix(1.00, 0.00, -0.00, -1.00, 699.3, 570.3)">f</text><text xml:space="preserve" font-family="MyriadSetPro-ThinItalic,Myriad Set Pro" font-style="italic" font-size="32.0" fill="#000000" transform="matrix(1.00, 0.00, -0.00, -1.00, 707.6, 570.3)">e</text><text xml:space="preserve" font-family="MyriadSetPro-ThinItalic,Myriad Set Pro" font-style="italic" font-size="32.0" fill="#000000" transform="matrix(1.00, 0.00, -0.00, -1.00, 722.7, 570.3)">r</text><text xml:space="preserve" font-family="MyriadSetPro-ThinItalic,Myriad Set Pro" font-style="italic" font-size="32.0" fill="#000000" transform="matrix(1.00, 0.00, -0.00, -1.00, 732.0, 570.3)">e</text><text xml:space="preserve" font-family="MyriadSetPro-ThinItalic,Myriad Set Pro" font-style="italic" font-size="32.0" fill="#000000" transform="matrix(1.00, 0.00, -0.00, -1.00, 747.2, 570.3)">n</text><text xml:space="preserve" font-family="MyriadSetPro-ThinItalic,Myriad Set Pro" font-style="italic" font-size="32.0" fill="#000000" transform="matrix(1.00, 0.00, -0.00, -1.00, 764.0, 570.3)">t</text><text xml:space="preserve" font-family="MyriadSetPro-ThinItalic,Myriad Set Pro" font-style="italic" font-size="32.0" fill="#000000" transform="matrix(1.00, 0.00, -0.00, -1.00, 773.7, 570.3)"> </text><text xml:space="preserve" font-family="MyriadSetPro-ThinItalic,Myriad Set Pro" font-style="italic" font-size="32.0" fill="#000000" transform="matrix(1.00, 0.00, -0.00, -1.00, 780.5, 570.3)">p</text><text xml:space="preserve" font-family="MyriadSetPro-ThinItalic,Myriad Set Pro" font-style="italic" font-size="32.0" fill="#000000" transform="matrix(1.00, 0.00, -0.00, -1.00, 797.8, 570.3)">e</text><text xml:space="preserve" font-family="MyriadSetPro-ThinItalic,Myriad Set Pro" font-style="italic" font-size="32.0" fill="#000000" transform="matrix(1.00, 0.00, -0.00, -1.00, 813.0, 570.3)">r</text><text xml:space="preserve" font-family="MyriadSetPro-ThinItalic,Myriad Set Pro" font-style="italic" font-size="32.0" fill="#000000" transform="matrix(1.00, 0.00, -0.00, -1.00, 822.3, 570.3)">s</text><text xml:space="preserve" font-family="MyriadSetPro-ThinItalic,Myriad Set Pro" font-style="italic" font-size="32.0" fill="#000000" transform="matrix(1.00, 0.00, -0.00, -1.00, 834.0, 570.3)">p</text><text xml:space="preserve" font-family="MyriadSetPro-ThinItalic,Myriad Set Pro" font-style="italic" font-size="32.0" fill="#000000" transform="matrix(1.00, 0.00, -0.00, -1.00, 851.3, 570.3)">e</text><text xml:space="preserve" font-family="MyriadSetPro-ThinItalic,Myriad Set Pro" font-style="italic" font-size="32.0" fill="#000000" transform="matrix(1.00, 0.00, -0.00, -1.00, 866.4, 570.3)">c</text><text xml:space="preserve" font-family="MyriadSetPro-ThinItalic,Myriad Set Pro" font-style="italic" font-size="32.0" fill="#000000" transform="matrix(1.00, 0.00, -0.00, -1.00, 880.3, 570.3)">t</text><text xml:space="preserve" font-family="MyriadSetPro-ThinItalic,Myriad Set Pro" font-style="italic" font-size="32.0" fill="#000000" transform="matrix(1.00, 0.00, -0.00, -1.00, 890.0, 570.3)">i</text><text xml:space="preserve" font-family="MyriadSetPro-ThinItalic,Myriad Set Pro" font-style="italic" font-size="32.0" fill="#000000" transform="matrix(1.00, 0.00, -0.00, -1.00, 896.6, 570.3)">v</text><text xml:space="preserve" font-family="MyriadSetPro-ThinItalic,Myriad Set Pro" font-style="italic" font-size="32.0" fill="#000000" transform="matrix(1.00, 0.00, -0.00, -1.00, 910.8, 570.3)">e</text><text xml:space="preserve" font-family="MyriadSetPro-ThinItalic,Myriad Set Pro" font-style="italic" font-size="32.0" fill="#000000" transform="matrix(1.00, 0.00, -0.00, -1.00, 926.0, 570.3)">s</text><text xml:space="preserve" font-family="MyriadSetPro-ThinItalic,Myriad Set Pro" font-style="italic" font-size="32.0" fill="#000000" transform="matrix(1.00, 0.00, -0.00, -1.00, 937.7, 570.3)">,</text><text xml:space="preserve" font-family="MyriadSetPro-ThinItalic,Myriad Set Pro" font-style="italic" font-size="32.0" fill="#000000" transform="matrix(1.00, 0.00, -0.00, -1.00, 943.2, 570.3)"> </text><text xml:space="preserve" font-family="MyriadSetPro-ThinItalic,Myriad Set Pro" font-style="italic" font-size="32.0" fill="#000000" transform="matrix(1.00, 0.00, -0.00, -1.00, 358.6, 529.5)">r</text><text xml:space="preserve" font-family="MyriadSetPro-ThinItalic,Myriad Set Pro" font-style="italic" font-size="32.0" fill="#000000" transform="matrix(1.00, 0.00, -0.00, -1.00, 367.9, 529.5)">e</text><text xml:space="preserve" font-family="MyriadSetPro-ThinItalic,Myriad Set Pro" font-style="italic" font-size="32.0" fill="#000000" transform="matrix(1.00, 0.00, -0.00, -1.00, 383.1, 529.5)">a</text><text xml:space="preserve" font-family="MyriadSetPro-ThinItalic,Myriad Set Pro" font-style="italic" font-size="32.0" fill="#000000" transform="matrix(1.00, 0.00, -0.00, -1.00, 397.3, 529.5)">s</text><text xml:space="preserve" font-family="MyriadSetPro-ThinItalic,Myriad Set Pro" font-style="italic" font-size="32.0" fill="#000000" transform="matrix(1.00, 0.00, -0.00, -1.00, 409.0, 529.5)">o</text><text xml:space="preserve" font-family="MyriadSetPro-ThinItalic,Myriad Set Pro" font-style="italic" font-size="32.0" fill="#000000" transform="matrix(1.00, 0.00, -0.00, -1.00, 425.7, 529.5)">n</text><text xml:space="preserve" font-family="MyriadSetPro-ThinItalic,Myriad Set Pro" font-style="italic" font-size="32.0" fill="#000000" transform="matrix(1.00, 0.00, -0.00, -1.00, 442.5, 529.5)">i</text><text xml:space="preserve" font-family="MyriadSetPro-ThinItalic,Myriad Set Pro" font-style="italic" font-size="32.0" fill="#000000" transform="matrix(1.00, 0.00, -0.00, -1.00, 449.1, 529.5)">n</text><text xml:space="preserve" font-family="MyriadSetPro-ThinItalic,Myriad Set Pro" font-style="italic" font-size="32.0" fill="#000000" transform="matrix(1.00, 0.00, -0.00, -1.00, 465.9, 529.5)">g</text><text xml:space="preserve" font-family="MyriadSetPro-ThinItalic,Myriad Set Pro" font-style="italic" font-size="32.0" fill="#000000" transform="matrix(1.00, 0.00, -0.00, -1.00, 482.9, 529.5)"> </text><text xml:space="preserve" font-family="MyriadSetPro-ThinItalic,Myriad Set Pro" font-style="italic" font-size="32.0" fill="#000000" transform="matrix(1.00, 0.00, -0.00, -1.00, 489.7, 529.5)">u</text><text xml:space="preserve" font-family="MyriadSetPro-ThinItalic,Myriad Set Pro" font-style="italic" font-size="32.0" fill="#000000" transform="matrix(1.00, 0.00, -0.00, -1.00, 506.4, 529.5)">s</text><text xml:space="preserve" font-family="MyriadSetPro-ThinItalic,Myriad Set Pro" font-style="italic" font-size="32.0" fill="#000000" transform="matrix(1.00, 0.00, -0.00, -1.00, 518.1, 529.5)">u</text><text xml:space="preserve" font-family="MyriadSetPro-ThinItalic,Myriad Set Pro" font-style="italic" font-size="32.0" fill="#000000" transform="matrix(1.00, 0.00, -0.00, -1.00, 534.7, 529.5)">a</text><text xml:space="preserve" font-family="MyriadSetPro-ThinItalic,Myriad Set Pro" font-style="italic" font-size="32.0" fill="#000000" transform="matrix(1.00, 0.00, -0.00, -1.00, 548.9, 529.5)">l</text><text xml:space="preserve" font-family="MyriadSetPro-ThinItalic,Myriad Set Pro" font-style="italic" font-size="32.0" fill="#000000" transform="matrix(1.00, 0.00, -0.00, -1.00, 555.5, 529.5)">l</text><text xml:space="preserve" font-family="MyriadSetPro-ThinItalic,Myriad Set Pro" font-style="italic" font-size="32.0" fill="#000000" transform="matrix(1.00, 0.00, -0.00, -1.00, 562.1, 529.5)">y</text><text xml:space="preserve" font-family="MyriadSetPro-ThinItalic,Myriad Set Pro" font-style="italic" font-size="32.0" fill="#000000" transform="matrix(1.00, 0.00, -0.00, -1.00, 575.9, 529.5)"> </text><text xml:space="preserve" font-family="MyriadSetPro-ThinItalic,Myriad Set Pro" font-style="italic" font-size="32.0" fill="#000000" transform="matrix(1.00, 0.00, -0.00, -1.00, 582.8, 529.5)">p</text><text xml:space="preserve" font-family="MyriadSetPro-ThinItalic,Myriad Set Pro" font-style="italic" font-size="32.0" fill="#000000" transform="matrix(1.00, 0.00, -0.00, -1.00, 600.1, 529.5)">l</text><text xml:space="preserve" font-family="MyriadSetPro-ThinItalic,Myriad Set Pro" font-style="italic" font-size="32.0" fill="#000000" transform="matrix(1.00, 0.00, -0.00, -1.00, 606.6, 529.5)">a</text><text xml:space="preserve" font-family="MyriadSetPro-ThinItalic,Myriad Set Pro" font-style="italic" font-size="32.0" fill="#000000" transform="matrix(1.00, 0.00, -0.00, -1.00, 620.9, 529.5)">y</text><text xml:space="preserve" font-family="MyriadSetPro-ThinItalic,Myriad Set Pro" font-style="italic" font-size="32.0" fill="#000000" transform="matrix(1.00, 0.00, -0.00, -1.00, 634.7, 529.5)">s</text><text xml:space="preserve" font-family="MyriadSetPro-ThinItalic,Myriad Set Pro" font-style="italic" font-size="32.0" fill="#000000" transform="matrix(1.00, 0.00, -0.00, -1.00, 646.4, 529.5)"> </text><text xml:space="preserve" font-family="MyriadSetPro-ThinItalic,Myriad Set Pro" font-style="italic" font-size="32.0" fill="#000000" transform="matrix(1.00, 0.00, -0.00, -1.00, 653.3, 529.5)">a</text><text xml:space="preserve" font-family="MyriadSetPro-ThinItalic,Myriad Set Pro" font-style="italic" font-size="32.0" fill="#000000" transform="matrix(1.00, 0.00, -0.00, -1.00, 667.5, 529.5)"> </text><text xml:space="preserve" font-family="MyriadSetPro-ThinItalic,Myriad Set Pro" font-style="italic" font-size="32.0" fill="#000000" transform="matrix(1.00, 0.00, -0.00, -1.00, 674.4, 529.5)">r</text><text xml:space="preserve" font-family="MyriadSetPro-ThinItalic,Myriad Set Pro" font-style="italic" font-size="32.0" fill="#000000" transform="matrix(1.00, 0.00, -0.00, -1.00, 683.7, 529.5)">o</text><text xml:space="preserve" font-family="MyriadSetPro-ThinItalic,Myriad Set Pro" font-style="italic" font-size="32.0" fill="#000000" transform="matrix(1.00, 0.00, -0.00, -1.00, 700.3, 529.5)">l</text><text xml:space="preserve" font-family="MyriadSetPro-ThinItalic,Myriad Set Pro" font-style="italic" font-size="32.0" fill="#000000" transform="matrix(1.00, 0.00, -0.00, -1.00, 706.9, 529.5)">e</text><text xml:space="preserve" font-family="MyriadSetPro-ThinItalic,Myriad Set Pro" font-style="italic" font-size="32.0" fill="#000000" transform="matrix(1.00, 0.00, -0.00, -1.00, 722.1, 529.5)"> </text><text xml:space="preserve" font-family="MyriadSetPro-ThinItalic,Myriad Set Pro" font-style="italic" font-size="32.0" fill="#000000" transform="matrix(1.00, 0.00, -0.00, -1.00, 728.9, 529.5)">t</text><text xml:space="preserve" font-family="MyriadSetPro-ThinItalic,Myriad Set Pro" font-style="italic" font-size="32.0" fill="#000000" transform="matrix(1.00, 0.00, -0.00, -1.00, 738.6, 529.5)">o</text><text xml:space="preserve" font-family="MyriadSetPro-ThinItalic,Myriad Set Pro" font-style="italic" font-size="32.0" fill="#000000" transform="matrix(1.00, 0.00, -0.00, -1.00, 755.3, 529.5)"> </text><text xml:space="preserve" font-family="MyriadSetPro-ThinItalic,Myriad Set Pro" font-style="italic" font-size="32.0" fill="#000000" transform="matrix(1.00, 0.00, -0.00, -1.00, 762.1, 529.5)">s</text><text xml:space="preserve" font-family="MyriadSetPro-ThinItalic,Myriad Set Pro" font-style="italic" font-size="32.0" fill="#000000" transform="matrix(1.00, 0.00, -0.00, -1.00, 773.8, 529.5)">o</text><text xml:space="preserve" font-family="MyriadSetPro-ThinItalic,Myriad Set Pro" font-style="italic" font-size="32.0" fill="#000000" transform="matrix(1.00, 0.00, -0.00, -1.00, 790.5, 529.5)">m</text><text xml:space="preserve" font-family="MyriadSetPro-ThinItalic,Myriad Set Pro" font-style="italic" font-size="32.0" fill="#000000" transform="matrix(1.00, 0.00, -0.00, -1.00, 816.1, 529.5)">e</text><text xml:space="preserve" font-family="MyriadSetPro-ThinItalic,Myriad Set Pro" font-style="italic" font-size="32.0" fill="#000000" transform="matrix(1.00, 0.00, -0.00, -1.00, 831.3, 529.5)"> </text><text xml:space="preserve" font-family="MyriadSetPro-ThinItalic,Myriad Set Pro" font-style="italic" font-size="32.0" fill="#000000" transform="matrix(1.00, 0.00, -0.00, -1.00, 838.2, 529.5)">d</text><text xml:space="preserve" font-family="MyriadSetPro-ThinItalic,Myriad Set Pro" font-style="italic" font-size="32.0" fill="#000000" transform="matrix(1.00, 0.00, -0.00, -1.00, 855.2, 529.5)">e</text><text xml:space="preserve" font-family="MyriadSetPro-ThinItalic,Myriad Set Pro" font-style="italic" font-size="32.0" fill="#000000" transform="matrix(1.00, 0.00, -0.00, -1.00, 870.4, 529.5)">g</text><text xml:space="preserve" font-family="MyriadSetPro-ThinItalic,Myriad Set Pro" font-style="italic" font-size="32.0" fill="#000000" transform="matrix(1.00, 0.00, -0.00, -1.00, 887.4, 529.5)">r</text><text xml:space="preserve" font-family="MyriadSetPro-ThinItalic,Myriad Set Pro" font-style="italic" font-size="32.0" fill="#000000" transform="matrix(1.00, 0.00, -0.00, -1.00, 896.7, 529.5)">e</text><text xml:space="preserve" font-family="MyriadSetPro-ThinItalic,Myriad Set Pro" font-style="italic" font-size="32.0" fill="#000000" transform="matrix(1.00, 0.00, -0.00, -1.00, 911.8, 529.5)">e</text><text xml:space="preserve" font-family="MyriadSetPro-ThinItalic,Myriad Set Pro" font-style="italic" font-size="32.0" fill="#000000" transform="matrix(1.00, 0.00, -0.00, -1.00, 927.0, 529.5)">,</text><text xml:space="preserve" font-family="MyriadSetPro-ThinItalic,Myriad Set Pro" font-style="italic" font-size="32.0" fill="#000000" transform="matrix(1.00, 0.00, -0.00, -1.00, 932.5, 529.5)"> </text><text xml:space="preserve" font-family="MyriadSetPro-ThinItalic,Myriad Set Pro" font-style="italic" font-size="32.0" fill="#000000" transform="matrix(1.00, 0.00, -0.00, -1.00, 358.6, 488.7)">w</text><text xml:space="preserve" font-family="MyriadSetPro-ThinItalic,Myriad Set Pro" font-style="italic" font-size="32.0" fill="#000000" transform="matrix(1.00, 0.00, -0.00, -1.00, 381.3, 488.7)">h</text><text xml:space="preserve" font-family="MyriadSetPro-ThinItalic,Myriad Set Pro" font-style="italic" font-size="32.0" fill="#000000" transform="matrix(1.00, 0.00, -0.00, -1.00, 398.1, 488.7)">e</text><text xml:space="preserve" font-family="MyriadSetPro-ThinItalic,Myriad Set Pro" font-style="italic" font-size="32.0" fill="#000000" transform="matrix(1.00, 0.00, -0.00, -1.00, 413.3, 488.7)">t</text><text xml:space="preserve" font-family="MyriadSetPro-ThinItalic,Myriad Set Pro" font-style="italic" font-size="32.0" fill="#000000" transform="matrix(1.00, 0.00, -0.00, -1.00, 423.0, 488.7)">h</text><text xml:space="preserve" font-family="MyriadSetPro-ThinItalic,Myriad Set Pro" font-style="italic" font-size="32.0" fill="#000000" transform="matrix(1.00, 0.00, -0.00, -1.00, 439.8, 488.7)">e</text><text xml:space="preserve" font-family="MyriadSetPro-ThinItalic,Myriad Set Pro" font-style="italic" font-size="32.0" fill="#000000" transform="matrix(1.00, 0.00, -0.00, -1.00, 454.9, 488.7)">r</text><text xml:space="preserve" font-family="MyriadSetPro-ThinItalic,Myriad Set Pro" font-style="italic" font-size="32.0" fill="#000000" transform="matrix(1.00, 0.00, -0.00, -1.00, 464.2, 488.7)"> </text><text xml:space="preserve" font-family="MyriadSetPro-ThinItalic,Myriad Set Pro" font-style="italic" font-size="32.0" fill="#000000" transform="matrix(1.00, 0.00, -0.00, -1.00, 471.1, 488.7)">b</text><text xml:space="preserve" font-family="MyriadSetPro-ThinItalic,Myriad Set Pro" font-style="italic" font-size="32.0" fill="#000000" transform="matrix(1.00, 0.00, -0.00, -1.00, 488.3, 488.7)">e</text><text xml:space="preserve" font-family="MyriadSetPro-ThinItalic,Myriad Set Pro" font-style="italic" font-size="32.0" fill="#000000" transform="matrix(1.00, 0.00, -0.00, -1.00, 503.5, 488.7)">f</text><text xml:space="preserve" font-family="MyriadSetPro-ThinItalic,Myriad Set Pro" font-style="italic" font-size="32.0" fill="#000000" transform="matrix(1.00, 0.00, -0.00, -1.00, 511.7, 488.7)">o</text><text xml:space="preserve" font-family="MyriadSetPro-ThinItalic,Myriad Set Pro" font-style="italic" font-size="32.0" fill="#000000" transform="matrix(1.00, 0.00, -0.00, -1.00, 528.4, 488.7)">r</text><text xml:space="preserve" font-family="MyriadSetPro-ThinItalic,Myriad Set Pro" font-style="italic" font-size="32.0" fill="#000000" transform="matrix(1.00, 0.00, -0.00, -1.00, 537.7, 488.7)">e</text><text xml:space="preserve" font-family="MyriadSetPro-ThinItalic,Myriad Set Pro" font-style="italic" font-size="32.0" fill="#000000" transform="matrix(1.00, 0.00, -0.00, -1.00, 552.8, 488.7)"> </text><text xml:space="preserve" font-family="MyriadSetPro-ThinItalic,Myriad Set Pro" font-style="italic" font-size="32.0" fill="#000000" transform="matrix(1.00, 0.00, -0.00, -1.00, 559.7, 488.7)">o</text><text xml:space="preserve" font-family="MyriadSetPro-ThinItalic,Myriad Set Pro" font-style="italic" font-size="32.0" fill="#000000" transform="matrix(1.00, 0.00, -0.00, -1.00, 576.3, 488.7)">r</text><text xml:space="preserve" font-family="MyriadSetPro-ThinItalic,Myriad Set Pro" font-style="italic" font-size="32.0" fill="#000000" transform="matrix(1.00, 0.00, -0.00, -1.00, 585.6, 488.7)"> </text><text xml:space="preserve" font-family="MyriadSetPro-ThinItalic,Myriad Set Pro" font-style="italic" font-size="32.0" fill="#000000" transform="matrix(1.00, 0.00, -0.00, -1.00, 592.4, 488.7)">a</text><text xml:space="preserve" font-family="MyriadSetPro-ThinItalic,Myriad Set Pro" font-style="italic" font-size="32.0" fill="#000000" transform="matrix(1.00, 0.00, -0.00, -1.00, 606.7, 488.7)">f</text><text xml:space="preserve" font-family="MyriadSetPro-ThinItalic,Myriad Set Pro" font-style="italic" font-size="32.0" fill="#000000" transform="matrix(1.00, 0.00, -0.00, -1.00, 614.9, 488.7)">t</text><text xml:space="preserve" font-family="MyriadSetPro-ThinItalic,Myriad Set Pro" font-style="italic" font-size="32.0" fill="#000000" transform="matrix(1.00, 0.00, -0.00, -1.00, 624.6, 488.7)">e</text><text xml:space="preserve" font-family="MyriadSetPro-ThinItalic,Myriad Set Pro" font-style="italic" font-size="32.0" fill="#000000" transform="matrix(1.00, 0.00, -0.00, -1.00, 639.8, 488.7)">r</text><text xml:space="preserve" font-family="MyriadSetPro-ThinItalic,Myriad Set Pro" font-style="italic" font-size="32.0" fill="#000000" transform="matrix(1.00, 0.00, -0.00, -1.00, 649.1, 488.7)"> </text><text xml:space="preserve" font-family="MyriadSetPro-ThinItalic,Myriad Set Pro" font-style="italic" font-size="32.0" fill="#000000" transform="matrix(1.00, 0.00, -0.00, -1.00, 655.9, 488.7)">d</text><text xml:space="preserve" font-family="MyriadSetPro-ThinItalic,Myriad Set Pro" font-style="italic" font-size="32.0" fill="#000000" transform="matrix(1.00, 0.00, -0.00, -1.00, 672.9, 488.7)">e</text><text xml:space="preserve" font-family="MyriadSetPro-ThinItalic,Myriad Set Pro" font-style="italic" font-size="32.0" fill="#000000" transform="matrix(1.00, 0.00, -0.00, -1.00, 688.1, 488.7)">c</text><text xml:space="preserve" font-family="MyriadSetPro-ThinItalic,Myriad Set Pro" font-style="italic" font-size="32.0" fill="#000000" transform="matrix(1.00, 0.00, -0.00, -1.00, 702.0, 488.7)">i</text><text xml:space="preserve" font-family="MyriadSetPro-ThinItalic,Myriad Set Pro" font-style="italic" font-size="32.0" fill="#000000" transform="matrix(1.00, 0.00, -0.00, -1.00, 708.6, 488.7)">s</text><text xml:space="preserve" font-family="MyriadSetPro-ThinItalic,Myriad Set Pro" font-style="italic" font-size="32.0" fill="#000000" transform="matrix(1.00, 0.00, -0.00, -1.00, 720.3, 488.7)">i</text><text xml:space="preserve" font-family="MyriadSetPro-ThinItalic,Myriad Set Pro" font-style="italic" font-size="32.0" fill="#000000" transform="matrix(1.00, 0.00, -0.00, -1.00, 726.9, 488.7)">o</text><text xml:space="preserve" font-family="MyriadSetPro-ThinItalic,Myriad Set Pro" font-style="italic" font-size="32.0" fill="#000000" transform="matrix(1.00, 0.00, -0.00, -1.00, 743.6, 488.7)">n</text><text xml:space="preserve" font-family="MyriadSetPro-ThinItalic,Myriad Set Pro" font-style="italic" font-size="32.0" fill="#000000" transform="matrix(1.00, 0.00, -0.00, -1.00, 760.4, 488.7)"> </text><text xml:space="preserve" font-family="MyriadSetPro-ThinItalic,Myriad Set Pro" font-style="italic" font-size="32.0" fill="#000000" transform="matrix(1.00, 0.00, -0.00, -1.00, 767.2, 488.7)">i</text><text xml:space="preserve" font-family="MyriadSetPro-ThinItalic,Myriad Set Pro" font-style="italic" font-size="32.0" fill="#000000" transform="matrix(1.00, 0.00, -0.00, -1.00, 773.8, 488.7)">s</text><text xml:space="preserve" font-family="MyriadSetPro-ThinItalic,Myriad Set Pro" font-style="italic" font-size="32.0" fill="#000000" transform="matrix(1.00, 0.00, -0.00, -1.00, 785.5, 488.7)"> </text><text xml:space="preserve" font-family="MyriadSetPro-ThinItalic,Myriad Set Pro" font-style="italic" font-size="32.0" fill="#000000" transform="matrix(1.00, 0.00, -0.00, -1.00, 792.4, 488.7)">m</text><text xml:space="preserve" font-family="MyriadSetPro-ThinItalic,Myriad Set Pro" font-style="italic" font-size="32.0" fill="#000000" transform="matrix(1.00, 0.00, -0.00, -1.00, 818.1, 488.7)">a</text><text xml:space="preserve" font-family="MyriadSetPro-ThinItalic,Myriad Set Pro" font-style="italic" font-size="32.0" fill="#000000" transform="matrix(1.00, 0.00, -0.00, -1.00, 832.3, 488.7)">d</text><text xml:space="preserve" font-family="MyriadSetPro-ThinItalic,Myriad Set Pro" font-style="italic" font-size="32.0" fill="#000000" transform="matrix(1.00, 0.00, -0.00, -1.00, 849.4, 488.7)">e</text><text xml:space="preserve" font-family="MyriadSetPro-ThinItalic,Myriad Set Pro" font-style="italic" font-size="32.0" fill="#000000" transform="matrix(1.00, 0.00, -0.00, -1.00, 864.5, 488.7)">.</text><path d="M -0.1 0.0 L 179.9 0.0 " fill="none" stroke="#000000" stroke-width="1.00" stroke-linejoin="round" stroke-dasharray="1.0, 2.0" transform="matrix(0.00, -1.00, -1.00, 0.00, 321.5, 630.9)"></path><text xml:space="preserve" font-family="MyriadSetPro-Ultralight,Myriad Set Pro" font-size="38.0" fill="#000000" transform="matrix(1.00, 0.00, -0.00, -1.00, 108.7, 527.6)">C</text><text xml:space="preserve" font-family="MyriadSetPro-Ultralight,Myriad Set Pro" font-size="38.0" fill="#000000" transform="matrix(1.00, 0.00, -0.00, -1.00, 129.1, 527.6)">o</text><text xml:space="preserve" font-family="MyriadSetPro-Ultralight,Myriad Set Pro" font-size="38.0" fill="#000000" transform="matrix(1.00, 0.00, -0.00, -1.00, 148.4, 527.6)">n</text><text xml:space="preserve" font-family="MyriadSetPro-Ultralight,Myriad Set Pro" font-size="38.0" fill="#000000" transform="matrix(1.00, 0.00, -0.00, -1.00, 167.4, 527.6)">s</text><text xml:space="preserve" font-family="MyriadSetPro-Ultralight,Myriad Set Pro" font-size="38.0" fill="#000000" transform="matrix(1.00, 0.00, -0.00, -1.00, 180.1, 527.6)">e</text><text xml:space="preserve" font-family="MyriadSetPro-Ultralight,Myriad Set Pro" font-size="38.0" fill="#000000" transform="matrix(1.00, 0.00, -0.00, -1.00, 197.8, 527.6)">n</text><text xml:space="preserve" font-family="MyriadSetPro-Ultralight,Myriad Set Pro" font-size="38.0" fill="#000000" transform="matrix(1.00, 0.00, -0.00, -1.00, 216.8, 527.6)">s</text><text xml:space="preserve" font-family="MyriadSetPro-Ultralight,Myriad Set Pro" font-size="38.0" fill="#000000" transform="matrix(1.00, 0.00, -0.00, -1.00, 229.5, 527.6)">u</text><text xml:space="preserve" font-family="MyriadSetPro-Ultralight,Myriad Set Pro" font-size="38.0" fill="#000000" transform="matrix(1.00, 0.00, -0.00, -1.00, 248.4, 527.6)">s</text><text xml:space="preserve" font-family="MyriadSetPro-Ultralight,Myriad Set Pro" font-size="38.0" fill="#000000" transform="matrix(1.00, 0.00, -0.00, -1.00, 261.1, 527.6)"> </text><text xml:space="preserve" font-family="MyriadSetPro-Ultralight,Myriad Set Pro" font-size="38.0" fill="#000000" transform="matrix(1.00, 0.00, -0.00, -1.00, 269.5, 527.6)">1</text><path d="M 0.3 0.0 L 255.3 0.0 " fill="none" stroke="#000000" stroke-width="1.00" stroke-linejoin="round" stroke-dasharray="1.0, 2.0" transform="matrix(0.00, -1.00, -1.00, 0.00, 321.5, 388.3)"></path><text xml:space="preserve" font-family="MyriadSetPro-Ultralight,Myriad Set Pro" font-size="38.0" fill="#000000" transform="matrix(1.00, 0.00, -0.00, -1.00, 108.7, 250.1)">D</text><text xml:space="preserve" font-family="MyriadSetPro-Ultralight,Myriad Set Pro" font-size="38.0" fill="#000000" transform="matrix(1.00, 0.00, -0.00, -1.00, 132.4, 250.1)">i</text><text xml:space="preserve" font-family="MyriadSetPro-Ultralight,Myriad Set Pro" font-size="38.0" fill="#000000" transform="matrix(1.00, 0.00, -0.00, -1.00, 139.4, 250.1)">s</text><text xml:space="preserve" font-family="MyriadSetPro-Ultralight,Myriad Set Pro" font-size="38.0" fill="#000000" transform="matrix(1.00, 0.00, -0.00, -1.00, 152.2, 250.1)">c</text><text xml:space="preserve" font-family="MyriadSetPro-Ultralight,Myriad Set Pro" font-size="38.0" fill="#000000" transform="matrix(1.00, 0.00, -0.00, -1.00, 168.0, 250.1)">o</text><text xml:space="preserve" font-family="MyriadSetPro-Ultralight,Myriad Set Pro" font-size="38.0" fill="#000000" transform="matrix(1.00, 0.00, -0.00, -1.00, 187.3, 250.1)">r</text><text xml:space="preserve" font-family="MyriadSetPro-Ultralight,Myriad Set Pro" font-size="38.0" fill="#000000" transform="matrix(1.00, 0.00, -0.00, -1.00, 197.3, 250.1)">d</text><text xml:space="preserve" font-family="MyriadSetPro-ThinItalic,Myriad Set Pro" font-style="italic" font-size="32.0" fill="#000000" transform="matrix(1.00, 0.00, -0.00, -1.00, 358.6, 271.7)">N</text><text xml:space="preserve" font-family="MyriadSetPro-ThinItalic,Myriad Set Pro" font-style="italic" font-size="32.0" fill="#000000" transform="matrix(1.00, 0.00, -0.00, -1.00, 378.6, 271.7)">o</text><text xml:space="preserve" font-family="MyriadSetPro-ThinItalic,Myriad Set Pro" font-style="italic" font-size="32.0" fill="#000000" transform="matrix(1.00, 0.00, -0.00, -1.00, 395.2, 271.7)"> </text><text xml:space="preserve" font-family="MyriadSetPro-ThinItalic,Myriad Set Pro" font-style="italic" font-size="32.0" fill="#000000" transform="matrix(1.00, 0.00, -0.00, -1.00, 402.1, 271.7)">c</text><text xml:space="preserve" font-family="MyriadSetPro-ThinItalic,Myriad Set Pro" font-style="italic" font-size="32.0" fill="#000000" transform="matrix(1.00, 0.00, -0.00, -1.00, 416.0, 271.7)">o</text><text xml:space="preserve" font-family="MyriadSetPro-ThinItalic,Myriad Set Pro" font-style="italic" font-size="32.0" fill="#000000" transform="matrix(1.00, 0.00, -0.00, -1.00, 432.6, 271.7)">n</text><text xml:space="preserve" font-family="MyriadSetPro-ThinItalic,Myriad Set Pro" font-style="italic" font-size="32.0" fill="#000000" transform="matrix(1.00, 0.00, -0.00, -1.00, 449.4, 271.7)">c</text><text xml:space="preserve" font-family="MyriadSetPro-ThinItalic,Myriad Set Pro" font-style="italic" font-size="32.0" fill="#000000" transform="matrix(1.00, 0.00, -0.00, -1.00, 463.3, 271.7)">l</text><text xml:space="preserve" font-family="MyriadSetPro-ThinItalic,Myriad Set Pro" font-style="italic" font-size="32.0" fill="#000000" transform="matrix(1.00, 0.00, -0.00, -1.00, 469.9, 271.7)">u</text><text xml:space="preserve" font-family="MyriadSetPro-ThinItalic,Myriad Set Pro" font-style="italic" font-size="32.0" fill="#000000" transform="matrix(1.00, 0.00, -0.00, -1.00, 486.5, 271.7)">s</text><text xml:space="preserve" font-family="MyriadSetPro-ThinItalic,Myriad Set Pro" font-style="italic" font-size="32.0" fill="#000000" transform="matrix(1.00, 0.00, -0.00, -1.00, 498.3, 271.7)">i</text><text xml:space="preserve" font-family="MyriadSetPro-ThinItalic,Myriad Set Pro" font-style="italic" font-size="32.0" fill="#000000" transform="matrix(1.00, 0.00, -0.00, -1.00, 504.9, 271.7)">o</text><text xml:space="preserve" font-family="MyriadSetPro-ThinItalic,Myriad Set Pro" font-style="italic" font-size="32.0" fill="#000000" transform="matrix(1.00, 0.00, -0.00, -1.00, 521.5, 271.7)">n</text><text xml:space="preserve" font-family="MyriadSetPro-ThinItalic,Myriad Set Pro" font-style="italic" font-size="32.0" fill="#000000" transform="matrix(1.00, 0.00, -0.00, -1.00, 538.3, 271.7)"> </text><text xml:space="preserve" font-family="MyriadSetPro-ThinItalic,Myriad Set Pro" font-style="italic" font-size="32.0" fill="#000000" transform="matrix(1.00, 0.00, -0.00, -1.00, 545.1, 271.7)">i</text><text xml:space="preserve" font-family="MyriadSetPro-ThinItalic,Myriad Set Pro" font-style="italic" font-size="32.0" fill="#000000" transform="matrix(1.00, 0.00, -0.00, -1.00, 551.7, 271.7)">s</text><text xml:space="preserve" font-family="MyriadSetPro-ThinItalic,Myriad Set Pro" font-style="italic" font-size="32.0" fill="#000000" transform="matrix(1.00, 0.00, -0.00, -1.00, 563.4, 271.7)"> </text><text xml:space="preserve" font-family="MyriadSetPro-ThinItalic,Myriad Set Pro" font-style="italic" font-size="32.0" fill="#000000" transform="matrix(1.00, 0.00, -0.00, -1.00, 570.3, 271.7)">r</text><text xml:space="preserve" font-family="MyriadSetPro-ThinItalic,Myriad Set Pro" font-style="italic" font-size="32.0" fill="#000000" transform="matrix(1.00, 0.00, -0.00, -1.00, 579.6, 271.7)">e</text><text xml:space="preserve" font-family="MyriadSetPro-ThinItalic,Myriad Set Pro" font-style="italic" font-size="32.0" fill="#000000" transform="matrix(1.00, 0.00, -0.00, -1.00, 594.7, 271.7)">a</text><text xml:space="preserve" font-family="MyriadSetPro-ThinItalic,Myriad Set Pro" font-style="italic" font-size="32.0" fill="#000000" transform="matrix(1.00, 0.00, -0.00, -1.00, 609.0, 271.7)">c</text><text xml:space="preserve" font-family="MyriadSetPro-ThinItalic,Myriad Set Pro" font-style="italic" font-size="32.0" fill="#000000" transform="matrix(1.00, 0.00, -0.00, -1.00, 622.9, 271.7)">h</text><text xml:space="preserve" font-family="MyriadSetPro-ThinItalic,Myriad Set Pro" font-style="italic" font-size="32.0" fill="#000000" transform="matrix(1.00, 0.00, -0.00, -1.00, 639.7, 271.7)">e</text><text xml:space="preserve" font-family="MyriadSetPro-ThinItalic,Myriad Set Pro" font-style="italic" font-size="32.0" fill="#000000" transform="matrix(1.00, 0.00, -0.00, -1.00, 654.9, 271.7)">d</text><text xml:space="preserve" font-family="MyriadSetPro-ThinItalic,Myriad Set Pro" font-style="italic" font-size="32.0" fill="#000000" transform="matrix(1.00, 0.00, -0.00, -1.00, 671.9, 271.7)"> </text><text xml:space="preserve" font-family="MyriadSetPro-ThinItalic,Myriad Set Pro" font-style="italic" font-size="32.0" fill="#000000" transform="matrix(1.00, 0.00, -0.00, -1.00, 678.8, 271.7)">a</text><text xml:space="preserve" font-family="MyriadSetPro-ThinItalic,Myriad Set Pro" font-style="italic" font-size="32.0" fill="#000000" transform="matrix(1.00, 0.00, -0.00, -1.00, 693.0, 271.7)">b</text><text xml:space="preserve" font-family="MyriadSetPro-ThinItalic,Myriad Set Pro" font-style="italic" font-size="32.0" fill="#000000" transform="matrix(1.00, 0.00, -0.00, -1.00, 710.3, 271.7)">o</text><text xml:space="preserve" font-family="MyriadSetPro-ThinItalic,Myriad Set Pro" font-style="italic" font-size="32.0" fill="#000000" transform="matrix(1.00, 0.00, -0.00, -1.00, 727.0, 271.7)">u</text><text xml:space="preserve" font-family="MyriadSetPro-ThinItalic,Myriad Set Pro" font-style="italic" font-size="32.0" fill="#000000" transform="matrix(1.00, 0.00, -0.00, -1.00, 743.6, 271.7)">t</text><text xml:space="preserve" font-family="MyriadSetPro-ThinItalic,Myriad Set Pro" font-style="italic" font-size="32.0" fill="#000000" transform="matrix(1.00, 0.00, -0.00, -1.00, 753.3, 271.7)"> </text><text xml:space="preserve" font-family="MyriadSetPro-ThinItalic,Myriad Set Pro" font-style="italic" font-size="32.0" fill="#000000" transform="matrix(1.00, 0.00, -0.00, -1.00, 760.1, 271.7)">i</text><text xml:space="preserve" font-family="MyriadSetPro-ThinItalic,Myriad Set Pro" font-style="italic" font-size="32.0" fill="#000000" transform="matrix(1.00, 0.00, -0.00, -1.00, 766.7, 271.7)">n</text><text xml:space="preserve" font-family="MyriadSetPro-ThinItalic,Myriad Set Pro" font-style="italic" font-size="32.0" fill="#000000" transform="matrix(1.00, 0.00, -0.00, -1.00, 783.5, 271.7)">t</text><text xml:space="preserve" font-family="MyriadSetPro-ThinItalic,Myriad Set Pro" font-style="italic" font-size="32.0" fill="#000000" transform="matrix(1.00, 0.00, -0.00, -1.00, 793.2, 271.7)">u</text><text xml:space="preserve" font-family="MyriadSetPro-ThinItalic,Myriad Set Pro" font-style="italic" font-size="32.0" fill="#000000" transform="matrix(1.00, 0.00, -0.00, -1.00, 809.8, 271.7)">i</text><text xml:space="preserve" font-family="MyriadSetPro-ThinItalic,Myriad Set Pro" font-style="italic" font-size="32.0" fill="#000000" transform="matrix(1.00, 0.00, -0.00, -1.00, 816.4, 271.7)">t</text><text xml:space="preserve" font-family="MyriadSetPro-ThinItalic,Myriad Set Pro" font-style="italic" font-size="32.0" fill="#000000" transform="matrix(1.00, 0.00, -0.00, -1.00, 826.1, 271.7)">i</text><text xml:space="preserve" font-family="MyriadSetPro-ThinItalic,Myriad Set Pro" font-style="italic" font-size="32.0" fill="#000000" transform="matrix(1.00, 0.00, -0.00, -1.00, 832.7, 271.7)">o</text><text xml:space="preserve" font-family="MyriadSetPro-ThinItalic,Myriad Set Pro" font-style="italic" font-size="32.0" fill="#000000" transform="matrix(1.00, 0.00, -0.00, -1.00, 849.3, 271.7)">n</text><text xml:space="preserve" font-family="MyriadSetPro-ThinItalic,Myriad Set Pro" font-style="italic" font-size="32.0" fill="#000000" transform="matrix(1.00, 0.00, -0.00, -1.00, 866.1, 271.7)"> </text><text xml:space="preserve" font-family="MyriadSetPro-ThinItalic,Myriad Set Pro" font-style="italic" font-size="32.0" fill="#000000" transform="matrix(1.00, 0.00, -0.00, -1.00, 873.0, 271.7)">i</text><text xml:space="preserve" font-family="MyriadSetPro-ThinItalic,Myriad Set Pro" font-style="italic" font-size="32.0" fill="#000000" transform="matrix(1.00, 0.00, -0.00, -1.00, 879.6, 271.7)">n</text><text xml:space="preserve" font-family="MyriadSetPro-ThinItalic,Myriad Set Pro" font-style="italic" font-size="32.0" fill="#000000" transform="matrix(1.00, 0.00, -0.00, -1.00, 896.4, 271.7)"> </text><text xml:space="preserve" font-family="MyriadSetPro-ThinItalic,Myriad Set Pro" font-style="italic" font-size="32.0" fill="#000000" transform="matrix(1.00, 0.00, -0.00, -1.00, 903.2, 271.7)">t</text><text xml:space="preserve" font-family="MyriadSetPro-ThinItalic,Myriad Set Pro" font-style="italic" font-size="32.0" fill="#000000" transform="matrix(1.00, 0.00, -0.00, -1.00, 912.9, 271.7)">h</text><text xml:space="preserve" font-family="MyriadSetPro-ThinItalic,Myriad Set Pro" font-style="italic" font-size="32.0" fill="#000000" transform="matrix(1.00, 0.00, -0.00, -1.00, 929.7, 271.7)">i</text><text xml:space="preserve" font-family="MyriadSetPro-ThinItalic,Myriad Set Pro" font-style="italic" font-size="32.0" fill="#000000" transform="matrix(1.00, 0.00, -0.00, -1.00, 936.3, 271.7)">s</text><text xml:space="preserve" font-family="MyriadSetPro-ThinItalic,Myriad Set Pro" font-style="italic" font-size="32.0" fill="#000000" transform="matrix(1.00, 0.00, -0.00, -1.00, 948.0, 271.7)"> </text><text xml:space="preserve" font-family="MyriadSetPro-ThinItalic,Myriad Set Pro" font-style="italic" font-size="32.0" fill="#000000" transform="matrix(1.00, 0.00, -0.00, -1.00, 358.6, 230.9)">s</text><text xml:space="preserve" font-family="MyriadSetPro-ThinItalic,Myriad Set Pro" font-style="italic" font-size="32.0" fill="#000000" transform="matrix(1.00, 0.00, -0.00, -1.00, 370.3, 230.9)">t</text><text xml:space="preserve" font-family="MyriadSetPro-ThinItalic,Myriad Set Pro" font-style="italic" font-size="32.0" fill="#000000" transform="matrix(1.00, 0.00, -0.00, -1.00, 380.0, 230.9)">a</text><text xml:space="preserve" font-family="MyriadSetPro-ThinItalic,Myriad Set Pro" font-style="italic" font-size="32.0" fill="#000000" transform="matrix(1.00, 0.00, -0.00, -1.00, 394.3, 230.9)">g</text><text xml:space="preserve" font-family="MyriadSetPro-ThinItalic,Myriad Set Pro" font-style="italic" font-size="32.0" fill="#000000" transform="matrix(1.00, 0.00, -0.00, -1.00, 411.3, 230.9)">e</text><text xml:space="preserve" font-family="MyriadSetPro-ThinItalic,Myriad Set Pro" font-style="italic" font-size="32.0" fill="#000000" transform="matrix(1.00, 0.00, -0.00, -1.00, 426.5, 230.9)">.</text></g></svg>