<?xml version="1.0" encoding="UTF-8" standalone="no"?><svg xmlns="http://www.w3.org/2000/svg" xmlns:xlink="http://www.w3.org/1999/xlink" clip-rule="evenodd" stroke-miterlimit="10" viewBox="0 0 1024 768"><desc>SVG generated by Keynote</desc><defs><linearGradient id="gradSh1.14" x1="0.0" y1="0.0" x2="100.0" y2="0.0" gradientUnits="userSpaceOnUse" gradientTransform="matrix(0.00, 7.70, 10.26, 0.00, 512.0, -1.0)"><stop offset="0.00000" stop-color="#FFFFFF"></stop><stop offset="0.01246" stop-color="#FEFEFE"></stop><stop offset="1.00000" stop-color="#D5D5D5"></stop></linearGradient></defs><g transform="matrix(1.00, 0.00, -0.00, -1.00, 0.0, 768.0)"><g><clipPath id="clip0x6080034aa9e0"><path d="M 0.0 768.0 L 1024.0 768.0 L 1024.0 0.0 L 0.0 0.0 Z M 0.0 768.0 "></path></clipPath><g clip-path="url(#clip0x6080034aa9e0)"><path d="M 0.0 768.0 L 1024.0 768.0 L 1024.0 0.0 L 0.0 0.0 Z M 0.0 768.0 " fill="url(#gradSh1.14)"></path></g></g><text xml:space="preserve" font-family="MyriadSetPro-ThinItalic,Myriad Set Pro" font-style="italic" font-size="34.0" fill="#000000" transform="matrix(1.00, 0.00, -0.00, -1.00, 130.0, 361.2)">“</text><text xml:space="preserve" font-family="MyriadSetPro-ThinItalic,Myriad Set Pro" font-style="italic" font-size="34.0" fill="#000000" transform="matrix(1.00, 0.00, -0.00, -1.00, 139.9, 361.2)">P</text><text xml:space="preserve" font-family="MyriadSetPro-ThinItalic,Myriad Set Pro" font-style="italic" font-size="34.0" fill="#000000" transform="matrix(1.00, 0.00, -0.00, -1.00, 156.6, 361.2)">o</text><text xml:space="preserve" font-family="MyriadSetPro-ThinItalic,Myriad Set Pro" font-style="italic" font-size="34.0" fill="#000000" transform="matrix(1.00, 0.00, -0.00, -1.00, 174.3, 361.2)">t</text><text xml:space="preserve" font-family="MyriadSetPro-ThinItalic,Myriad Set Pro" font-style="italic" font-size="34.0" fill="#000000" transform="matrix(1.00, 0.00, -0.00, -1.00, 184.6, 361.2)">e</text><text xml:space="preserve" font-family="MyriadSetPro-ThinItalic,Myriad Set Pro" font-style="italic" font-size="34.0" fill="#000000" transform="matrix(1.00, 0.00, -0.00, -1.00, 200.7, 361.2)">n</text><text xml:space="preserve" font-family="MyriadSetPro-ThinItalic,Myriad Set Pro" font-style="italic" font-size="34.0" fill="#000000" transform="matrix(1.00, 0.00, -0.00, -1.00, 218.6, 361.2)">t</text><text xml:space="preserve" font-family="MyriadSetPro-ThinItalic,Myriad Set Pro" font-style="italic" font-size="34.0" fill="#000000" transform="matrix(1.00, 0.00, -0.00, -1.00, 228.9, 361.2)">i</text><text xml:space="preserve" font-family="MyriadSetPro-ThinItalic,Myriad Set Pro" font-style="italic" font-size="34.0" fill="#000000" transform="matrix(1.00, 0.00, -0.00, -1.00, 235.9, 361.2)">a</text><text xml:space="preserve" font-family="MyriadSetPro-ThinItalic,Myriad Set Pro" font-style="italic" font-size="34.0" fill="#000000" transform="matrix(1.00, 0.00, -0.00, -1.00, 251.1, 361.2)">l</text><text xml:space="preserve" font-family="MyriadSetPro-ThinItalic,Myriad Set Pro" font-style="italic" font-size="34.0" fill="#000000" transform="matrix(1.00, 0.00, -0.00, -1.00, 258.1, 361.2)">l</text><text xml:space="preserve" font-family="MyriadSetPro-ThinItalic,Myriad Set Pro" font-style="italic" font-size="34.0" fill="#000000" transform="matrix(1.00, 0.00, -0.00, -1.00, 265.1, 361.2)">y</text><text xml:space="preserve" font-family="MyriadSetPro-ThinItalic,Myriad Set Pro" font-style="italic" font-size="34.0" fill="#000000" transform="matrix(1.00, 0.00, -0.00, -1.00, 279.7, 361.2)"> </text><text xml:space="preserve" font-family="MyriadSetPro-ThinItalic,Myriad Set Pro" font-style="italic" font-size="34.0" fill="#000000" transform="matrix(1.00, 0.00, -0.00, -1.00, 287.0, 361.2)">u</text><text xml:space="preserve" font-family="MyriadSetPro-ThinItalic,Myriad Set Pro" font-style="italic" font-size="34.0" fill="#000000" transform="matrix(1.00, 0.00, -0.00, -1.00, 304.7, 361.2)">n</text><text xml:space="preserve" font-family="MyriadSetPro-ThinItalic,Myriad Set Pro" font-style="italic" font-size="34.0" fill="#000000" transform="matrix(1.00, 0.00, -0.00, -1.00, 322.5, 361.2)">e</text><text xml:space="preserve" font-family="MyriadSetPro-ThinItalic,Myriad Set Pro" font-style="italic" font-size="34.0" fill="#000000" transform="matrix(1.00, 0.00, -0.00, -1.00, 338.6, 361.2)">t</text><text xml:space="preserve" font-family="MyriadSetPro-ThinItalic,Myriad Set Pro" font-style="italic" font-size="34.0" fill="#000000" transform="matrix(1.00, 0.00, -0.00, -1.00, 348.9, 361.2)">h</text><text xml:space="preserve" font-family="MyriadSetPro-ThinItalic,Myriad Set Pro" font-style="italic" font-size="34.0" fill="#000000" transform="matrix(1.00, 0.00, -0.00, -1.00, 366.8, 361.2)">i</text><text xml:space="preserve" font-family="MyriadSetPro-ThinItalic,Myriad Set Pro" font-style="italic" font-size="34.0" fill="#000000" transform="matrix(1.00, 0.00, -0.00, -1.00, 373.8, 361.2)">c</text><text xml:space="preserve" font-family="MyriadSetPro-ThinItalic,Myriad Set Pro" font-style="italic" font-size="34.0" fill="#000000" transform="matrix(1.00, 0.00, -0.00, -1.00, 388.6, 361.2)">a</text><text xml:space="preserve" font-family="MyriadSetPro-ThinItalic,Myriad Set Pro" font-style="italic" font-size="34.0" fill="#000000" transform="matrix(1.00, 0.00, -0.00, -1.00, 403.7, 361.2)">l</text><text xml:space="preserve" font-family="MyriadSetPro-ThinItalic,Myriad Set Pro" font-style="italic" font-size="34.0" fill="#000000" transform="matrix(1.00, 0.00, -0.00, -1.00, 410.7, 361.2)"> </text><text xml:space="preserve" font-family="MyriadSetPro-ThinItalic,Myriad Set Pro" font-style="italic" font-size="34.0" fill="#000000" transform="matrix(1.00, 0.00, -0.00, -1.00, 418.0, 361.2)">b</text><text xml:space="preserve" font-family="MyriadSetPro-ThinItalic,Myriad Set Pro" font-style="italic" font-size="34.0" fill="#000000" transform="matrix(1.00, 0.00, -0.00, -1.00, 436.4, 361.2)">e</text><text xml:space="preserve" font-family="MyriadSetPro-ThinItalic,Myriad Set Pro" font-style="italic" font-size="34.0" fill="#000000" transform="matrix(1.00, 0.00, -0.00, -1.00, 452.5, 361.2)">h</text><text xml:space="preserve" font-family="MyriadSetPro-ThinItalic,Myriad Set Pro" font-style="italic" font-size="34.0" fill="#000000" transform="matrix(1.00, 0.00, -0.00, -1.00, 470.3, 361.2)">a</text><text xml:space="preserve" font-family="MyriadSetPro-ThinItalic,Myriad Set Pro" font-style="italic" font-size="34.0" fill="#000000" transform="matrix(1.00, 0.00, -0.00, -1.00, 485.5, 361.2)">v</text><text xml:space="preserve" font-family="MyriadSetPro-ThinItalic,Myriad Set Pro" font-style="italic" font-size="34.0" fill="#000000" transform="matrix(1.00, 0.00, -0.00, -1.00, 500.6, 361.2)">i</text><text xml:space="preserve" font-family="MyriadSetPro-ThinItalic,Myriad Set Pro" font-style="italic" font-size="34.0" fill="#000000" transform="matrix(1.00, 0.00, -0.00, -1.00, 507.6, 361.2)">o</text><text xml:space="preserve" font-family="MyriadSetPro-ThinItalic,Myriad Set Pro" font-style="italic" font-size="34.0" fill="#000000" transform="matrix(1.00, 0.00, -0.00, -1.00, 525.2, 361.2)">r</text><text xml:space="preserve" font-family="MyriadSetPro-ThinItalic,Myriad Set Pro" font-style="italic" font-size="34.0" fill="#000000" transform="matrix(1.00, 0.00, -0.00, -1.00, 535.1, 361.2)">s</text><text xml:space="preserve" font-family="MyriadSetPro-ThinItalic,Myriad Set Pro" font-style="italic" font-size="34.0" fill="#000000" transform="matrix(1.00, 0.00, -0.00, -1.00, 547.5, 361.2)"> </text><text xml:space="preserve" font-family="MyriadSetPro-ThinItalic,Myriad Set Pro" font-style="italic" font-size="34.0" fill="#000000" transform="matrix(1.00, 0.00, -0.00, -1.00, 554.8, 361.2)">a</text><text xml:space="preserve" font-family="MyriadSetPro-ThinItalic,Myriad Set Pro" font-style="italic" font-size="34.0" fill="#000000" transform="matrix(1.00, 0.00, -0.00, -1.00, 570.0, 361.2)">r</text><text xml:space="preserve" font-family="MyriadSetPro-ThinItalic,Myriad Set Pro" font-style="italic" font-size="34.0" fill="#000000" transform="matrix(1.00, 0.00, -0.00, -1.00, 579.8, 361.2)">e</text><text xml:space="preserve" font-family="MyriadSetPro-ThinItalic,Myriad Set Pro" font-style="italic" font-size="34.0" fill="#000000" transform="matrix(1.00, 0.00, -0.00, -1.00, 596.0, 361.2)"> </text><text xml:space="preserve" font-family="MyriadSetPro-ThinItalic,Myriad Set Pro" font-style="italic" font-size="34.0" fill="#000000" transform="matrix(1.00, 0.00, -0.00, -1.00, 603.2, 361.2)">o</text><text xml:space="preserve" font-family="MyriadSetPro-ThinItalic,Myriad Set Pro" font-style="italic" font-size="34.0" fill="#000000" transform="matrix(1.00, 0.00, -0.00, -1.00, 620.9, 361.2)">f</text><text xml:space="preserve" font-family="MyriadSetPro-ThinItalic,Myriad Set Pro" font-style="italic" font-size="34.0" fill="#000000" transform="matrix(1.00, 0.00, -0.00, -1.00, 629.7, 361.2)">t</text><text xml:space="preserve" font-family="MyriadSetPro-ThinItalic,Myriad Set Pro" font-style="italic" font-size="34.0" fill="#000000" transform="matrix(1.00, 0.00, -0.00, -1.00, 640.0, 361.2)">e</text><text xml:space="preserve" font-family="MyriadSetPro-ThinItalic,Myriad Set Pro" font-style="italic" font-size="34.0" fill="#000000" transform="matrix(1.00, 0.00, -0.00, -1.00, 656.1, 361.2)">n</text><text xml:space="preserve" font-family="MyriadSetPro-ThinItalic,Myriad Set Pro" font-style="italic" font-size="34.0" fill="#000000" transform="matrix(1.00, 0.00, -0.00, -1.00, 673.9, 361.2)"> </text><text xml:space="preserve" font-family="MyriadSetPro-ThinItalic,Myriad Set Pro" font-style="italic" font-size="34.0" fill="#000000" transform="matrix(1.00, 0.00, -0.00, -1.00, 681.2, 361.2)">c</text><text xml:space="preserve" font-family="MyriadSetPro-ThinItalic,Myriad Set Pro" font-style="italic" font-size="34.0" fill="#000000" transform="matrix(1.00, 0.00, -0.00, -1.00, 696.0, 361.2)">o</text><text xml:space="preserve" font-family="MyriadSetPro-ThinItalic,Myriad Set Pro" font-style="italic" font-size="34.0" fill="#000000" transform="matrix(1.00, 0.00, -0.00, -1.00, 713.7, 361.2)">n</text><text xml:space="preserve" font-family="MyriadSetPro-ThinItalic,Myriad Set Pro" font-style="italic" font-size="34.0" fill="#000000" transform="matrix(1.00, 0.00, -0.00, -1.00, 731.5, 361.2)">d</text><text xml:space="preserve" font-family="MyriadSetPro-ThinItalic,Myriad Set Pro" font-style="italic" font-size="34.0" fill="#000000" transform="matrix(1.00, 0.00, -0.00, -1.00, 749.6, 361.2)">u</text><text xml:space="preserve" font-family="MyriadSetPro-ThinItalic,Myriad Set Pro" font-style="italic" font-size="34.0" fill="#000000" transform="matrix(1.00, 0.00, -0.00, -1.00, 767.3, 361.2)">c</text><text xml:space="preserve" font-family="MyriadSetPro-ThinItalic,Myriad Set Pro" font-style="italic" font-size="34.0" fill="#000000" transform="matrix(1.00, 0.00, -0.00, -1.00, 782.0, 361.2)">t</text><text xml:space="preserve" font-family="MyriadSetPro-ThinItalic,Myriad Set Pro" font-style="italic" font-size="34.0" fill="#000000" transform="matrix(1.00, 0.00, -0.00, -1.00, 792.3, 361.2)">e</text><text xml:space="preserve" font-family="MyriadSetPro-ThinItalic,Myriad Set Pro" font-style="italic" font-size="34.0" fill="#000000" transform="matrix(1.00, 0.00, -0.00, -1.00, 808.5, 361.2)">d</text><text xml:space="preserve" font-family="MyriadSetPro-ThinItalic,Myriad Set Pro" font-style="italic" font-size="34.0" fill="#000000" transform="matrix(1.00, 0.00, -0.00, -1.00, 826.6, 361.2)"> </text><text xml:space="preserve" font-family="MyriadSetPro-ThinItalic,Myriad Set Pro" font-style="italic" font-size="34.0" fill="#000000" transform="matrix(1.00, 0.00, -0.00, -1.00, 833.8, 361.2)">a</text><text xml:space="preserve" font-family="MyriadSetPro-ThinItalic,Myriad Set Pro" font-style="italic" font-size="34.0" fill="#000000" transform="matrix(1.00, 0.00, -0.00, -1.00, 849.0, 361.2)">f</text><text xml:space="preserve" font-family="MyriadSetPro-ThinItalic,Myriad Set Pro" font-style="italic" font-size="34.0" fill="#000000" transform="matrix(1.00, 0.00, -0.00, -1.00, 857.7, 361.2)">t</text><text xml:space="preserve" font-family="MyriadSetPro-ThinItalic,Myriad Set Pro" font-style="italic" font-size="34.0" fill="#000000" transform="matrix(1.00, 0.00, -0.00, -1.00, 868.0, 361.2)">e</text><text xml:space="preserve" font-family="MyriadSetPro-ThinItalic,Myriad Set Pro" font-style="italic" font-size="34.0" fill="#000000" transform="matrix(1.00, 0.00, -0.00, -1.00, 884.1, 361.2)">r</text><text xml:space="preserve" font-family="MyriadSetPro-ThinItalic,Myriad Set Pro" font-style="italic" font-size="34.0" fill="#000000" transform="matrix(1.00, 0.00, -0.00, -1.00, 894.0, 361.2)"> </text><text xml:space="preserve" font-family="MyriadSetPro-ThinItalic,Myriad Set Pro" font-style="italic" font-size="34.0" fill="#000000" transform="matrix(1.00, 0.00, -0.00, -1.00, 150.4, 303.6)">t</text><text xml:space="preserve" font-family="MyriadSetPro-ThinItalic,Myriad Set Pro" font-style="italic" font-size="34.0" fill="#000000" transform="matrix(1.00, 0.00, -0.00, -1.00, 160.7, 303.6)">h</text><text xml:space="preserve" font-family="MyriadSetPro-ThinItalic,Myriad Set Pro" font-style="italic" font-size="34.0" fill="#000000" transform="matrix(1.00, 0.00, -0.00, -1.00, 178.6, 303.6)">o</text><text xml:space="preserve" font-family="MyriadSetPro-ThinItalic,Myriad Set Pro" font-style="italic" font-size="34.0" fill="#000000" transform="matrix(1.00, 0.00, -0.00, -1.00, 196.2, 303.6)">r</text><text xml:space="preserve" font-family="MyriadSetPro-ThinItalic,Myriad Set Pro" font-style="italic" font-size="34.0" fill="#000000" transform="matrix(1.00, 0.00, -0.00, -1.00, 206.1, 303.6)">o</text><text xml:space="preserve" font-family="MyriadSetPro-ThinItalic,Myriad Set Pro" font-style="italic" font-size="34.0" fill="#000000" transform="matrix(1.00, 0.00, -0.00, -1.00, 223.8, 303.6)">u</text><text xml:space="preserve" font-family="MyriadSetPro-ThinItalic,Myriad Set Pro" font-style="italic" font-size="34.0" fill="#000000" transform="matrix(1.00, 0.00, -0.00, -1.00, 241.4, 303.6)">g</text><text xml:space="preserve" font-family="MyriadSetPro-ThinItalic,Myriad Set Pro" font-style="italic" font-size="34.0" fill="#000000" transform="matrix(1.00, 0.00, -0.00, -1.00, 259.5, 303.6)">h</text><text xml:space="preserve" font-family="MyriadSetPro-ThinItalic,Myriad Set Pro" font-style="italic" font-size="34.0" fill="#000000" transform="matrix(1.00, 0.00, -0.00, -1.00, 277.4, 303.6)"> </text><text xml:space="preserve" font-family="MyriadSetPro-ThinItalic,Myriad Set Pro" font-style="italic" font-size="34.0" fill="#000000" transform="matrix(1.00, 0.00, -0.00, -1.00, 284.6, 303.6)">c</text><text xml:space="preserve" font-family="MyriadSetPro-ThinItalic,Myriad Set Pro" font-style="italic" font-size="34.0" fill="#000000" transform="matrix(1.00, 0.00, -0.00, -1.00, 299.4, 303.6)">o</text><text xml:space="preserve" font-family="MyriadSetPro-ThinItalic,Myriad Set Pro" font-style="italic" font-size="34.0" fill="#000000" transform="matrix(1.00, 0.00, -0.00, -1.00, 317.1, 303.6)">n</text><text xml:space="preserve" font-family="MyriadSetPro-ThinItalic,Myriad Set Pro" font-style="italic" font-size="34.0" fill="#000000" transform="matrix(1.00, 0.00, -0.00, -1.00, 335.0, 303.6)">s</text><text xml:space="preserve" font-family="MyriadSetPro-ThinItalic,Myriad Set Pro" font-style="italic" font-size="34.0" fill="#000000" transform="matrix(1.00, 0.00, -0.00, -1.00, 347.4, 303.6)">i</text><text xml:space="preserve" font-family="MyriadSetPro-ThinItalic,Myriad Set Pro" font-style="italic" font-size="34.0" fill="#000000" transform="matrix(1.00, 0.00, -0.00, -1.00, 354.4, 303.6)">d</text><text xml:space="preserve" font-family="MyriadSetPro-ThinItalic,Myriad Set Pro" font-style="italic" font-size="34.0" fill="#000000" transform="matrix(1.00, 0.00, -0.00, -1.00, 372.5, 303.6)">e</text><text xml:space="preserve" font-family="MyriadSetPro-ThinItalic,Myriad Set Pro" font-style="italic" font-size="34.0" fill="#000000" transform="matrix(1.00, 0.00, -0.00, -1.00, 388.6, 303.6)">r</text><text xml:space="preserve" font-family="MyriadSetPro-ThinItalic,Myriad Set Pro" font-style="italic" font-size="34.0" fill="#000000" transform="matrix(1.00, 0.00, -0.00, -1.00, 398.5, 303.6)">a</text><text xml:space="preserve" font-family="MyriadSetPro-ThinItalic,Myriad Set Pro" font-style="italic" font-size="34.0" fill="#000000" transform="matrix(1.00, 0.00, -0.00, -1.00, 413.6, 303.6)">t</text><text xml:space="preserve" font-family="MyriadSetPro-ThinItalic,Myriad Set Pro" font-style="italic" font-size="34.0" fill="#000000" transform="matrix(1.00, 0.00, -0.00, -1.00, 423.9, 303.6)">i</text><text xml:space="preserve" font-family="MyriadSetPro-ThinItalic,Myriad Set Pro" font-style="italic" font-size="34.0" fill="#000000" transform="matrix(1.00, 0.00, -0.00, -1.00, 430.9, 303.6)">o</text><text xml:space="preserve" font-family="MyriadSetPro-ThinItalic,Myriad Set Pro" font-style="italic" font-size="34.0" fill="#000000" transform="matrix(1.00, 0.00, -0.00, -1.00, 448.6, 303.6)">n</text><text xml:space="preserve" font-family="MyriadSetPro-ThinItalic,Myriad Set Pro" font-style="italic" font-size="34.0" fill="#000000" transform="matrix(1.00, 0.00, -0.00, -1.00, 466.5, 303.6)">,</text><text xml:space="preserve" font-family="MyriadSetPro-ThinItalic,Myriad Set Pro" font-style="italic" font-size="34.0" fill="#000000" transform="matrix(1.00, 0.00, -0.00, -1.00, 472.4, 303.6)"> </text><text xml:space="preserve" font-family="MyriadSetPro-ThinItalic,Myriad Set Pro" font-style="italic" font-size="34.0" fill="#000000" transform="matrix(1.00, 0.00, -0.00, -1.00, 479.6, 303.6)">r</text><text xml:space="preserve" font-family="MyriadSetPro-ThinItalic,Myriad Set Pro" font-style="italic" font-size="34.0" fill="#000000" transform="matrix(1.00, 0.00, -0.00, -1.00, 489.5, 303.6)">a</text><text xml:space="preserve" font-family="MyriadSetPro-ThinItalic,Myriad Set Pro" font-style="italic" font-size="34.0" fill="#000000" transform="matrix(1.00, 0.00, -0.00, -1.00, 504.7, 303.6)">t</text><text xml:space="preserve" font-family="MyriadSetPro-ThinItalic,Myriad Set Pro" font-style="italic" font-size="34.0" fill="#000000" transform="matrix(1.00, 0.00, -0.00, -1.00, 515.0, 303.6)">h</text><text xml:space="preserve" font-family="MyriadSetPro-ThinItalic,Myriad Set Pro" font-style="italic" font-size="34.0" fill="#000000" transform="matrix(1.00, 0.00, -0.00, -1.00, 532.8, 303.6)">e</text><text xml:space="preserve" font-family="MyriadSetPro-ThinItalic,Myriad Set Pro" font-style="italic" font-size="34.0" fill="#000000" transform="matrix(1.00, 0.00, -0.00, -1.00, 548.9, 303.6)">r</text><text xml:space="preserve" font-family="MyriadSetPro-ThinItalic,Myriad Set Pro" font-style="italic" font-size="34.0" fill="#000000" transform="matrix(1.00, 0.00, -0.00, -1.00, 558.8, 303.6)"> </text><text xml:space="preserve" font-family="MyriadSetPro-ThinItalic,Myriad Set Pro" font-style="italic" font-size="34.0" fill="#000000" transform="matrix(1.00, 0.00, -0.00, -1.00, 566.1, 303.6)">t</text><text xml:space="preserve" font-family="MyriadSetPro-ThinItalic,Myriad Set Pro" font-style="italic" font-size="34.0" fill="#000000" transform="matrix(1.00, 0.00, -0.00, -1.00, 576.4, 303.6)">h</text><text xml:space="preserve" font-family="MyriadSetPro-ThinItalic,Myriad Set Pro" font-style="italic" font-size="34.0" fill="#000000" transform="matrix(1.00, 0.00, -0.00, -1.00, 594.2, 303.6)">a</text><text xml:space="preserve" font-family="MyriadSetPro-ThinItalic,Myriad Set Pro" font-style="italic" font-size="34.0" fill="#000000" transform="matrix(1.00, 0.00, -0.00, -1.00, 609.4, 303.6)">n</text><text xml:space="preserve" font-family="MyriadSetPro-ThinItalic,Myriad Set Pro" font-style="italic" font-size="34.0" fill="#000000" transform="matrix(1.00, 0.00, -0.00, -1.00, 627.2, 303.6)"> </text><text xml:space="preserve" font-family="MyriadSetPro-ThinItalic,Myriad Set Pro" font-style="italic" font-size="34.0" fill="#000000" transform="matrix(1.00, 0.00, -0.00, -1.00, 634.5, 303.6)">i</text><text xml:space="preserve" font-family="MyriadSetPro-ThinItalic,Myriad Set Pro" font-style="italic" font-size="34.0" fill="#000000" transform="matrix(1.00, 0.00, -0.00, -1.00, 641.5, 303.6)">n</text><text xml:space="preserve" font-family="MyriadSetPro-ThinItalic,Myriad Set Pro" font-style="italic" font-size="34.0" fill="#000000" transform="matrix(1.00, 0.00, -0.00, -1.00, 659.4, 303.6)">s</text><text xml:space="preserve" font-family="MyriadSetPro-ThinItalic,Myriad Set Pro" font-style="italic" font-size="34.0" fill="#000000" transform="matrix(1.00, 0.00, -0.00, -1.00, 671.8, 303.6)">t</text><text xml:space="preserve" font-family="MyriadSetPro-ThinItalic,Myriad Set Pro" font-style="italic" font-size="34.0" fill="#000000" transform="matrix(1.00, 0.00, -0.00, -1.00, 682.1, 303.6)">a</text><text xml:space="preserve" font-family="MyriadSetPro-ThinItalic,Myriad Set Pro" font-style="italic" font-size="34.0" fill="#000000" transform="matrix(1.00, 0.00, -0.00, -1.00, 697.3, 303.6)">n</text><text xml:space="preserve" font-family="MyriadSetPro-ThinItalic,Myriad Set Pro" font-style="italic" font-size="34.0" fill="#000000" transform="matrix(1.00, 0.00, -0.00, -1.00, 715.1, 303.6)">t</text><text xml:space="preserve" font-family="MyriadSetPro-ThinItalic,Myriad Set Pro" font-style="italic" font-size="34.0" fill="#000000" transform="matrix(1.00, 0.00, -0.00, -1.00, 725.4, 303.6)"> </text><text xml:space="preserve" font-family="MyriadSetPro-ThinItalic,Myriad Set Pro" font-style="italic" font-size="34.0" fill="#000000" transform="matrix(1.00, 0.00, -0.00, -1.00, 732.7, 303.6)">i</text><text xml:space="preserve" font-family="MyriadSetPro-ThinItalic,Myriad Set Pro" font-style="italic" font-size="34.0" fill="#000000" transform="matrix(1.00, 0.00, -0.00, -1.00, 739.7, 303.6)">n</text><text xml:space="preserve" font-family="MyriadSetPro-ThinItalic,Myriad Set Pro" font-style="italic" font-size="34.0" fill="#000000" transform="matrix(1.00, 0.00, -0.00, -1.00, 757.5, 303.6)">t</text><text xml:space="preserve" font-family="MyriadSetPro-ThinItalic,Myriad Set Pro" font-style="italic" font-size="34.0" fill="#000000" transform="matrix(1.00, 0.00, -0.00, -1.00, 767.9, 303.6)">u</text><text xml:space="preserve" font-family="MyriadSetPro-ThinItalic,Myriad Set Pro" font-style="italic" font-size="34.0" fill="#000000" transform="matrix(1.00, 0.00, -0.00, -1.00, 785.5, 303.6)">i</text><text xml:space="preserve" font-family="MyriadSetPro-ThinItalic,Myriad Set Pro" font-style="italic" font-size="34.0" fill="#000000" transform="matrix(1.00, 0.00, -0.00, -1.00, 792.5, 303.6)">t</text><text xml:space="preserve" font-family="MyriadSetPro-ThinItalic,Myriad Set Pro" font-style="italic" font-size="34.0" fill="#000000" transform="matrix(1.00, 0.00, -0.00, -1.00, 802.8, 303.6)">i</text><text xml:space="preserve" font-family="MyriadSetPro-ThinItalic,Myriad Set Pro" font-style="italic" font-size="34.0" fill="#000000" transform="matrix(1.00, 0.00, -0.00, -1.00, 809.8, 303.6)">o</text><text xml:space="preserve" font-family="MyriadSetPro-ThinItalic,Myriad Set Pro" font-style="italic" font-size="34.0" fill="#000000" transform="matrix(1.00, 0.00, -0.00, -1.00, 827.5, 303.6)">n</text><text xml:space="preserve" font-family="MyriadSetPro-ThinItalic,Myriad Set Pro" font-style="italic" font-size="34.0" fill="#000000" transform="matrix(1.00, 0.00, -0.00, -1.00, 845.3, 303.6)">s</text><text xml:space="preserve" font-family="MyriadSetPro-ThinItalic,Myriad Set Pro" font-style="italic" font-size="34.0" fill="#000000" transform="matrix(1.00, 0.00, -0.00, -1.00, 857.8, 303.6)">.</text><text xml:space="preserve" font-family="MyriadSetPro-ThinItalic,Myriad Set Pro" font-style="italic" font-size="34.0" fill="#000000" transform="matrix(1.00, 0.00, -0.00, -1.00, 863.7, 303.6)">”</text><text xml:space="preserve" font-family="MyriadSetPro-ThinItalic,Myriad Set Pro" font-style="italic" font-size="34.0" fill="#000000" transform="matrix(1.00, 0.00, -0.00, -1.00, 873.6, 303.6)"> </text><text xml:space="preserve" font-family="MyriadSetPro-Thin,Myriad Set Pro" font-size="77.0" fill="#000000" transform="matrix(1.00, 0.00, -0.00, -1.00, 219.9, 542.8)">K</text><text xml:space="preserve" font-family="MyriadSetPro-Thin,Myriad Set Pro" font-size="77.0" fill="#000000" transform="matrix(1.00, 0.00, -0.00, -1.00, 258.4, 542.8)">n</text><text xml:space="preserve" font-family="MyriadSetPro-Thin,Myriad Set Pro" font-size="77.0" fill="#000000" transform="matrix(1.00, 0.00, -0.00, -1.00, 298.9, 542.8)">o</text><text xml:space="preserve" font-family="MyriadSetPro-Thin,Myriad Set Pro" font-size="77.0" fill="#000000" transform="matrix(1.00, 0.00, -0.00, -1.00, 338.4, 542.8)">w</text><text xml:space="preserve" font-family="MyriadSetPro-Thin,Myriad Set Pro" font-size="77.0" fill="#000000" transform="matrix(1.00, 0.00, -0.00, -1.00, 393.0, 542.8)">l</text><text xml:space="preserve" font-family="MyriadSetPro-Thin,Myriad Set Pro" font-size="77.0" fill="#000000" transform="matrix(1.00, 0.00, -0.00, -1.00, 408.9, 542.8)">e</text><text xml:space="preserve" font-family="MyriadSetPro-Thin,Myriad Set Pro" font-size="77.0" fill="#000000" transform="matrix(1.00, 0.00, -0.00, -1.00, 445.4, 542.8)">d</text><text xml:space="preserve" font-family="MyriadSetPro-Thin,Myriad Set Pro" font-size="77.0" fill="#000000" transform="matrix(1.00, 0.00, -0.00, -1.00, 486.4, 542.8)">g</text><text xml:space="preserve" font-family="MyriadSetPro-Thin,Myriad Set Pro" font-size="77.0" fill="#000000" transform="matrix(1.00, 0.00, -0.00, -1.00, 527.3, 542.8)">e</text><text xml:space="preserve" font-family="MyriadSetPro-Thin,Myriad Set Pro" font-size="77.0" fill="#000000" transform="matrix(1.00, 0.00, -0.00, -1.00, 563.8, 542.8)"> </text><text xml:space="preserve" font-family="MyriadSetPro-Thin,Myriad Set Pro" font-size="77.0" fill="#000000" transform="matrix(1.00, 0.00, -0.00, -1.00, 580.3, 542.8)">C</text><text xml:space="preserve" font-family="MyriadSetPro-Thin,Myriad Set Pro" font-size="77.0" fill="#000000" transform="matrix(1.00, 0.00, -0.00, -1.00, 622.9, 542.8)">l</text><text xml:space="preserve" font-family="MyriadSetPro-Thin,Myriad Set Pro" font-size="77.0" fill="#000000" transform="matrix(1.00, 0.00, -0.00, -1.00, 638.7, 542.8)">a</text><text xml:space="preserve" font-family="MyriadSetPro-Thin,Myriad Set Pro" font-size="77.0" fill="#000000" transform="matrix(1.00, 0.00, -0.00, -1.00, 673.1, 542.8)">i</text><text xml:space="preserve" font-family="MyriadSetPro-Thin,Myriad Set Pro" font-size="77.0" fill="#000000" transform="matrix(1.00, 0.00, -0.00, -1.00, 688.9, 542.8)">m</text><text xml:space="preserve" font-family="MyriadSetPro-Thin,Myriad Set Pro" font-size="77.0" fill="#000000" transform="matrix(1.00, 0.00, -0.00, -1.00, 750.8, 542.8)"> </text><text xml:space="preserve" font-family="MyriadSetPro-Thin,Myriad Set Pro" font-size="77.0" fill="#000000" transform="matrix(1.00, 0.00, -0.00, -1.00, 767.3, 542.8)">1</text><g><clipPath id="clip0x6080036acea0"><path d="M 355.8 470.6 L 483.7 470.6 L 483.7 467.6 L 355.8 467.6 Z M 355.8 470.6 "></path></clipPath><g clip-path="url(#clip0x6080036acea0)"><path d="M 0.2 -0.4 L 126.2 -0.4 " fill="none" stroke="#000000" stroke-width="1.00" stroke-linejoin="bevel" transform="matrix(1.00, 0.00, 0.00, -1.00, 356.8, 469.1)"></path></g></g><g><clipPath id="clip0x6080036ad0e0"><path d="M 492.5 456.4 L 492.5 481.8 L 531.5 481.8 L 531.5 456.4 Z M 492.5 456.4 "></path></clipPath><g clip-path="url(#clip0x6080036ad0e0)"><text xml:space="preserve" font-family="MyriadSetPro-Thin,Myriad Set Pro" font-size="24.0" fill="#000000" transform="matrix(0.00, 1.00, 1.00, -0.00, 519.0, 463.4)">8</text></g></g><g><clipPath id="clip0x6080036ad320"><path d="M 540.3 470.6 L 668.2 470.6 L 668.2 467.6 L 540.3 467.6 Z M 540.3 470.6 "></path></clipPath><g clip-path="url(#clip0x6080036ad320)"><path d="M -0.3 -0.4 L 125.7 -0.4 " fill="none" stroke="#000000" stroke-width="1.00" stroke-linejoin="bevel" transform="matrix(1.00, 0.00, 0.00, -1.00, 541.3, 469.1)"></path></g></g></g></svg>